<svg xmlns="http://www.w3.org/2000/svg" xmlns:xlink="http://www.w3.org/1999/xlink" xmlns:inkscape="http://www.inkscape.org/namespaces/inkscape" version="1.1" width="872.7278" height="568.53189" viewBox="0 0 872.7278 568.53189">
<defs>
<g id="font_1_53">
<path transform="matrix(.001,0,0,.001,0,0)" d="M108 729H495V646H198V467C212 472 227 476 241 478 255 480 270 482 284 482 365 482 429 459 477 415 525 370 549 310 549 234 549 155 524 94 475 51 426 8 357-13 269-13 238-13 207-10 175-6 143-1 111 6 77 17V116C106 100 136 88 168 80 199 72 232 69 267 69 323 69 368 83 401 113 433 143 450 183 450 234 450 284 433 324 401 354 368 384 323 399 267 399 241 399 214 396 188 390 162 384 135 375 108 363V729Z"/>
</g>
<g id="font_1_48">
<path transform="matrix(.001,0,0,.001,0,0)" d="M318 664C267 664 229 639 203 589 177 539 165 464 165 364 165 264 177 189 203 139 229 89 267 64 318 64 369 64 407 89 433 139 458 189 471 264 471 364 471 464 458 539 433 589 407 639 369 664 318 664ZM318 742C399 742 461 709 505 645 548 580 570 486 570 364 570 241 548 147 505 83 461 19 399-13 317-13 235-13 173 19 130 83 87 147 66 241 66 364 66 486 87 580 130 645 173 709 236 742 318 742Z"/>
</g>
<g id="font_1_49">
<path transform="matrix(.001,0,0,.001,0,0)" d="M124 83H285V639L110 604V694L284 729H383V83H544V0H124V83Z"/>
</g>
<g id="font_1_107">
<path transform="matrix(.001,0,0,.001,0,0)" d="M91 760H181V311L449 547H564L274 291 576 0H459L181 267V0H91V760Z"/>
</g>
<g id="font_1_46">
<path transform="matrix(.001,0,0,.001,0,0)" d="M107 124H210V0H107V124Z"/>
</g>
<g id="font_1_50">
<path transform="matrix(.001,0,0,.001,0,0)" d="M192 83H536V0H73V83C110 121 161 173 226 239 290 304 331 346 348 365 380 400 402 430 414 455 426 479 433 504 433 528 433 566 419 598 392 622 365 646 330 659 286 659 255 659 222 653 188 643 154 632 117 616 78 594V694C118 710 155 722 189 730 223 738 255 742 284 742 359 742 419 723 464 685 509 647 532 597 532 534 532 504 526 475 515 449 504 422 484 390 454 354 446 344 420 317 376 272 332 227 271 164 192 83Z"/>
</g>
<clipPath id="clip_2">
<path transform="matrix(1,0,0,-1,0,568.53189)" d="M95.325 42.903127H850.3325V530.3631H95.325Z"/>
</clipPath>
<clipPath id="clip_3">
<path transform="matrix(.025,0,0,-.025,7.2,493.61787)" d="M-1021-463H1794V1233H-1021Z"/>
</clipPath>
<clipPath id="clip_4">
<path transform="matrix(1,0,0,-1,0,568.53189)" d="M95.325 42.903127H850.3325V530.3631H95.325Z"/>
</clipPath>
<clipPath id="clip_5">
<path transform="matrix(.025,0,0,-.025,7.2,433.82899)" d="M-1021-463H1794V1233H-1021Z"/>
</clipPath>
<clipPath id="clip_6">
<path transform="matrix(1,0,0,-1,0,568.53189)" d="M95.325 42.903127H850.3325V530.3631H95.325Z"/>
</clipPath>
<clipPath id="clip_7">
<path transform="matrix(1,0,0,-1,0,568.53189)" d="M95.325 42.903127H850.3325V530.3631H95.325Z"/>
</clipPath>
<clipPath id="clip_8">
<path transform="matrix(1,0,0,-1,0,568.53189)" d="M95.325 42.903127H850.3325V530.3631H95.325Z"/>
</clipPath>
<clipPath id="clip_9">
<path transform="matrix(1,0,0,-1,0,568.53189)" d="M95.325 42.903127H850.3325V530.3631H95.325Z"/>
</clipPath>
<clipPath id="clip_10">
<path transform="matrix(1,0,0,-1,0,568.53189)" d="M95.325 42.903127H850.3325V530.3631H95.325Z"/>
</clipPath>
<clipPath id="clip_11">
<path transform="matrix(1,0,0,-1,0,568.53189)" d="M95.325 42.903127H850.3325V530.3631H95.325Z"/>
</clipPath>
<clipPath id="clip_12">
<path transform="matrix(1,0,0,-1,0,568.53189)" d="M95.325 42.903127H850.3325V530.3631H95.325Z"/>
</clipPath>
<g id="font_1_80">
<path transform="matrix(.001,0,0,.001,0,0)" d="M197 648V374H321C367 374 402 385 427 409 452 433 465 467 465 511 465 555 452 588 427 612 402 636 367 648 321 648H197ZM98 729H321C402 729 464 710 506 673 548 636 569 582 569 511 569 439 548 384 506 348 464 311 402 293 321 293H197V0H98V729Z"/>
</g>
<g id="font_1_71">
<path transform="matrix(.001,0,0,.001,0,0)" d="M595 104V300H434V381H693V68C655 40 613 20 567 7 521-6 472-13 420-13 306-13 216 20 152 86 88 152 56 245 56 364 56 482 88 575 152 642 216 708 306 742 420 742 467 742 512 736 555 724 598 712 638 695 674 673V568C637 598 598 621 557 637 516 653 473 661 428 661 338 661 271 636 227 586 182 536 160 462 160 364 160 265 182 191 227 141 271 91 338 67 428 67 462 67 493 70 521 76 549 82 573 91 595 104Z"/>
</g>
<g id="font_1_32">
</g>
<g id="font_1_76">
<path transform="matrix(.001,0,0,.001,0,0)" d="M98 729H197V83H552V0H98V729Z"/>
</g>
<g id="font_1_111">
<path transform="matrix(.001,0,0,.001,0,0)" d="M306 484C258 484 220 465 192 427 164 389 150 338 150 273 150 207 163 156 191 118 219 80 257 62 306 62 354 62 392 80 420 118 448 156 462 207 462 273 462 337 448 389 420 427 392 465 354 484 306 484ZM306 560C384 560 445 534 490 484 534 433 557 363 557 273 557 183 534 113 490 63 445 12 384-13 306-13 227-13 165 12 121 63 77 113 55 183 55 273 55 363 77 433 121 484 165 534 227 560 306 560Z"/>
</g>
<g id="font_1_115">
<path transform="matrix(.001,0,0,.001,0,0)" d="M443 531V446C417 458 391 468 364 475 336 481 308 485 279 485 234 485 200 478 178 464 156 450 145 430 145 403 145 382 153 366 169 354 185 342 217 330 265 320L296 313C360 299 405 279 432 255 458 230 472 195 472 151 472 100 452 60 412 31 372 1 316-13 246-13 216-13 186-10 154-5 122 0 89 8 54 20V113C87 95 120 82 152 74 184 65 216 61 248 61 290 61 323 68 346 82 368 96 380 117 380 144 380 168 371 187 355 200 339 213 303 226 247 238L216 245C160 257 119 275 95 299 70 323 58 356 58 399 58 450 76 490 112 518 148 546 200 560 268 560 301 560 332 557 362 552 391 547 418 540 443 531Z"/>
</g>
<g id="font_1_83">
<path transform="matrix(.001,0,0,.001,0,0)" d="M535 705V609C497 627 462 640 429 649 395 657 363 662 333 662 279 662 237 651 208 631 179 610 165 580 165 542 165 510 174 485 194 469 213 452 250 439 304 429L364 417C437 403 491 378 526 343 561 307 579 260 579 201 579 130 555 77 508 41 460 5 391-13 300-13 265-13 228-9 189-2 150 5 110 16 69 32V134C109 111 148 94 186 83 224 71 262 66 300 66 356 66 399 77 430 99 460 121 476 152 476 194 476 230 465 258 443 278 421 298 385 313 335 323L275 335C201 349 148 372 115 404 82 435 66 478 66 534 66 598 88 649 134 686 179 723 242 742 322 742 356 742 390 739 426 733 461 727 497 717 535 705Z"/>
</g>
<g id="font_1_116">
<path transform="matrix(.001,0,0,.001,0,0)" d="M183 702V547H368V477H183V180C183 135 189 106 201 94 213 81 238 75 276 75H368V0H276C206 0 158 13 132 39 106 65 93 112 93 180V477H27V547H93V702H183Z"/>
</g>
<g id="font_1_101">
<path transform="matrix(.001,0,0,.001,0,0)" d="M562 296V252H149C153 190 171 142 205 110 238 78 284 62 344 62 378 62 412 66 444 74 476 82 509 95 541 113V28C509 14 476 3 442-3 408-9 373-13 339-13 251-13 182 12 131 62 80 112 55 181 55 268 55 357 79 428 127 481 175 533 241 560 323 560 397 560 455 536 498 489 540 441 562 377 562 296ZM472 322C471 371 457 410 431 440 404 469 368 484 324 484 274 484 234 469 204 441 174 413 156 373 152 322H472Z"/>
</g>
<g id="font_1_112">
<path transform="matrix(.001,0,0,.001,0,0)" d="M181 82V-207H91V547H181V464C199 496 223 520 252 536 281 552 316 560 356 560 422 560 476 533 518 481 559 428 580 359 580 273 580 187 559 117 518 65 476 13 422-13 356-13 316-13 281-5 252 10 223 25 199 49 181 82ZM487 273C487 339 473 390 446 428 418 466 381 485 334 485 286 485 249 466 222 428 194 390 181 339 181 273 181 207 194 155 222 117 249 79 286 61 334 61 381 61 418 79 446 117 473 155 487 207 487 273Z"/>
</g>
</defs>
<path transform="matrix(1,0,0,-1,0,568.53189)" d="M0 0H872.7278V568.53189H0Z" fill="#ffffff"/>
<path transform="matrix(1,0,0,-1,0,568.53189)" d="M95.325 42.903127H850.3325V530.3631H95.325Z" fill="#ffffff"/>
<path transform="matrix(1,0,0,-1,0,568.53189)" d="M284.07688 42.903127V39.403127"/>
<path transform="matrix(1,0,0,-1,0,568.53189)" stroke-width=".8" stroke-linecap="butt" stroke-linejoin="round" fill="none" stroke="#000000" d="M284.07688 42.903127V39.403127"/>
<use data-text="5" xlink:href="#font_1_53" transform="matrix(25,0,0,-25,260.2175,556.1287)"/>
<use data-text="0" xlink:href="#font_1_48" transform="matrix(25,0,0,-25,276.1175,556.1287)"/>
<use data-text="0" xlink:href="#font_1_48" transform="matrix(25,0,0,-25,292.0175,556.1287)"/>
<path transform="matrix(1,0,0,-1,0,568.53189)" d="M472.82875 42.903127V39.403127"/>
<path transform="matrix(1,0,0,-1,0,568.53189)" stroke-width=".8" stroke-linecap="butt" stroke-linejoin="round" fill="none" stroke="#000000" d="M472.82875 42.903127V39.403127"/>
<use data-text="1" xlink:href="#font_1_49" transform="matrix(25,0,0,-25,457.63343,556.1287)"/>
<use data-text="k" xlink:href="#font_1_107" transform="matrix(25,0,0,-25,473.53343,556.1287)"/>
<path transform="matrix(1,0,0,-1,0,568.53189)" d="M661.5806 42.903127V39.403127"/>
<path transform="matrix(1,0,0,-1,0,568.53189)" stroke-width=".8" stroke-linecap="butt" stroke-linejoin="round" fill="none" stroke="#000000" d="M661.5806 42.903127V39.403127"/>
<use data-text="1" xlink:href="#font_1_49" transform="matrix(25,0,0,-25,634.4556,556.1287)"/>
<use data-text="." xlink:href="#font_1_46" transform="matrix(25,0,0,-25,650.35568,556.1287)"/>
<use data-text="5" xlink:href="#font_1_53" transform="matrix(25,0,0,-25,658.3056,556.1287)"/>
<use data-text="k" xlink:href="#font_1_107" transform="matrix(25,0,0,-25,674.2056,556.1287)"/>
<path transform="matrix(1,0,0,-1,0,568.53189)" d="M850.3325 42.903127V39.403127"/>
<path transform="matrix(1,0,0,-1,0,568.53189)" stroke-width=".8" stroke-linecap="butt" stroke-linejoin="round" fill="none" stroke="#000000" d="M850.3325 42.903127V39.403127"/>
<use data-text="2" xlink:href="#font_1_50" transform="matrix(25,0,0,-25,835.1372,556.1287)"/>
<use data-text="k" xlink:href="#font_1_107" transform="matrix(25,0,0,-25,851.03726,556.1287)"/>
<g clip-path="url(#clip_2)">
<path transform="matrix(1,0,0,-1,0,568.53189)" stroke-width=".8" stroke-linecap="square" stroke-linejoin="round" fill="none" stroke="#b0b0b0" stroke-opacity=".3" d="M95.325 84.41401H850.3325"/>
</g>
<path transform="matrix(1,0,0,-1,0,568.53189)" d="M95.325 84.41401H91.825"/>
<path transform="matrix(1,0,0,-1,0,568.53189)" stroke-width=".8" stroke-linecap="butt" stroke-linejoin="round" fill="none" stroke="#000000" d="M95.325 84.41401H91.825"/>
<use data-text="0" xlink:href="#font_1_48" transform="matrix(25,0,0,-25,28.147267,493.61787)"/>
<use data-text="." xlink:href="#font_1_46" transform="matrix(25,0,0,-25,44.047269,493.61787)"/>
<use data-text="1" xlink:href="#font_1_49" transform="matrix(25,0,0,-25,51.99727,493.61787)"/>
<use data-text="0" xlink:href="#font_1_48" transform="matrix(25,0,0,-25,67.89727,493.61787)"/>
<g clip-path="url(#clip_3)">
<path transform="matrix(.025,0,0,-.025,7.2,493.61787)" d="M106 355H732V272H106V355Z"/>
</g>
<g clip-path="url(#clip_4)">
<path transform="matrix(1,0,0,-1,0,568.53189)" stroke-width=".8" stroke-linecap="square" stroke-linejoin="round" fill="none" stroke="#b0b0b0" stroke-opacity=".3" d="M95.325 144.20288H850.3325"/>
</g>
<path transform="matrix(1,0,0,-1,0,568.53189)" d="M95.325 144.20288H91.825"/>
<path transform="matrix(1,0,0,-1,0,568.53189)" stroke-width=".8" stroke-linecap="butt" stroke-linejoin="round" fill="none" stroke="#000000" d="M95.325 144.20288H91.825"/>
<use data-text="0" xlink:href="#font_1_48" transform="matrix(25,0,0,-25,28.147267,433.82899)"/>
<use data-text="." xlink:href="#font_1_46" transform="matrix(25,0,0,-25,44.047269,433.82899)"/>
<use data-text="0" xlink:href="#font_1_48" transform="matrix(25,0,0,-25,51.99727,433.82899)"/>
<use data-text="5" xlink:href="#font_1_53" transform="matrix(25,0,0,-25,67.89727,433.82899)"/>
<g clip-path="url(#clip_5)">
<path transform="matrix(.025,0,0,-.025,7.2,433.82899)" d="M106 355H732V272H106V355Z"/>
</g>
<g clip-path="url(#clip_6)">
<path transform="matrix(1,0,0,-1,0,568.53189)" stroke-width=".8" stroke-linecap="square" stroke-linejoin="round" fill="none" stroke="#b0b0b0" stroke-opacity=".3" d="M95.325 203.99176H850.3325"/>
</g>
<path transform="matrix(1,0,0,-1,0,568.53189)" d="M95.325 203.99176H91.825"/>
<path transform="matrix(1,0,0,-1,0,568.53189)" stroke-width=".8" stroke-linecap="butt" stroke-linejoin="round" fill="none" stroke="#000000" d="M95.325 203.99176H91.825"/>
<use data-text="0" xlink:href="#font_1_48" transform="matrix(25,0,0,-25,28.153126,374.0401)"/>
<use data-text="." xlink:href="#font_1_46" transform="matrix(25,0,0,-25,44.053129,374.0401)"/>
<use data-text="0" xlink:href="#font_1_48" transform="matrix(25,0,0,-25,52.003129,374.0401)"/>
<use data-text="0" xlink:href="#font_1_48" transform="matrix(25,0,0,-25,67.90312,374.0401)"/>
<g clip-path="url(#clip_7)">
<path transform="matrix(1,0,0,-1,0,568.53189)" stroke-width=".8" stroke-linecap="square" stroke-linejoin="round" fill="none" stroke="#b0b0b0" stroke-opacity=".3" d="M95.325 263.78065H850.3325"/>
</g>
<path transform="matrix(1,0,0,-1,0,568.53189)" d="M95.325 263.78065H91.825"/>
<path transform="matrix(1,0,0,-1,0,568.53189)" stroke-width=".8" stroke-linecap="butt" stroke-linejoin="round" fill="none" stroke="#000000" d="M95.325 263.78065H91.825"/>
<use data-text="0" xlink:href="#font_1_48" transform="matrix(25,0,0,-25,28.153126,314.25123)"/>
<use data-text="." xlink:href="#font_1_46" transform="matrix(25,0,0,-25,44.053129,314.25123)"/>
<use data-text="0" xlink:href="#font_1_48" transform="matrix(25,0,0,-25,52.003129,314.25123)"/>
<use data-text="5" xlink:href="#font_1_53" transform="matrix(25,0,0,-25,67.90312,314.25123)"/>
<g clip-path="url(#clip_8)">
<path transform="matrix(1,0,0,-1,0,568.53189)" stroke-width=".8" stroke-linecap="square" stroke-linejoin="round" fill="none" stroke="#b0b0b0" stroke-opacity=".3" d="M95.325 323.56953H850.3325"/>
</g>
<path transform="matrix(1,0,0,-1,0,568.53189)" d="M95.325 323.56953H91.825"/>
<path transform="matrix(1,0,0,-1,0,568.53189)" stroke-width=".8" stroke-linecap="butt" stroke-linejoin="round" fill="none" stroke="#000000" d="M95.325 323.56953H91.825"/>
<use data-text="0" xlink:href="#font_1_48" transform="matrix(25,0,0,-25,28.153126,254.46234)"/>
<use data-text="." xlink:href="#font_1_46" transform="matrix(25,0,0,-25,44.053129,254.46234)"/>
<use data-text="1" xlink:href="#font_1_49" transform="matrix(25,0,0,-25,52.003129,254.46234)"/>
<use data-text="0" xlink:href="#font_1_48" transform="matrix(25,0,0,-25,67.90312,254.46234)"/>
<g clip-path="url(#clip_9)">
<path transform="matrix(1,0,0,-1,0,568.53189)" stroke-width=".8" stroke-linecap="square" stroke-linejoin="round" fill="none" stroke="#b0b0b0" stroke-opacity=".3" d="M95.325 383.35838H850.3325"/>
</g>
<path transform="matrix(1,0,0,-1,0,568.53189)" d="M95.325 383.35838H91.825"/>
<path transform="matrix(1,0,0,-1,0,568.53189)" stroke-width=".8" stroke-linecap="butt" stroke-linejoin="round" fill="none" stroke="#000000" d="M95.325 383.35838H91.825"/>
<use data-text="0" xlink:href="#font_1_48" transform="matrix(25,0,0,-25,28.153126,194.6735)"/>
<use data-text="." xlink:href="#font_1_46" transform="matrix(25,0,0,-25,44.053129,194.6735)"/>
<use data-text="1" xlink:href="#font_1_49" transform="matrix(25,0,0,-25,52.003129,194.6735)"/>
<use data-text="5" xlink:href="#font_1_53" transform="matrix(25,0,0,-25,67.90312,194.6735)"/>
<g clip-path="url(#clip_10)">
<path transform="matrix(1,0,0,-1,0,568.53189)" stroke-width=".8" stroke-linecap="square" stroke-linejoin="round" fill="none" stroke="#b0b0b0" stroke-opacity=".3" d="M95.325 443.14726H850.3325"/>
</g>
<path transform="matrix(1,0,0,-1,0,568.53189)" d="M95.325 443.14726H91.825"/>
<path transform="matrix(1,0,0,-1,0,568.53189)" stroke-width=".8" stroke-linecap="butt" stroke-linejoin="round" fill="none" stroke="#000000" d="M95.325 443.14726H91.825"/>
<use data-text="0" xlink:href="#font_1_48" transform="matrix(25,0,0,-25,28.153126,134.88462)"/>
<use data-text="." xlink:href="#font_1_46" transform="matrix(25,0,0,-25,44.053129,134.88462)"/>
<use data-text="2" xlink:href="#font_1_50" transform="matrix(25,0,0,-25,52.003129,134.88462)"/>
<use data-text="0" xlink:href="#font_1_48" transform="matrix(25,0,0,-25,67.90312,134.88462)"/>
<g clip-path="url(#clip_11)">
<path transform="matrix(1,0,0,-1,0,568.53189)" stroke-width=".8" stroke-linecap="square" stroke-linejoin="round" fill="none" stroke="#b0b0b0" stroke-opacity=".3" d="M95.325 502.93614H850.3325"/>
</g>
<path transform="matrix(1,0,0,-1,0,568.53189)" d="M95.325 502.93614H91.825"/>
<path transform="matrix(1,0,0,-1,0,568.53189)" stroke-width=".8" stroke-linecap="butt" stroke-linejoin="round" fill="none" stroke="#000000" d="M95.325 502.93614H91.825"/>
<use data-text="0" xlink:href="#font_1_48" transform="matrix(25,0,0,-25,28.153126,75.09573)"/>
<use data-text="." xlink:href="#font_1_46" transform="matrix(25,0,0,-25,44.053129,75.09573)"/>
<use data-text="2" xlink:href="#font_1_50" transform="matrix(25,0,0,-25,52.003129,75.09573)"/>
<use data-text="5" xlink:href="#font_1_53" transform="matrix(25,0,0,-25,67.90312,75.09573)"/>
<g clip-path="url(#clip_12)">
<path transform="matrix(1,0,0,-1,0,568.53189)" stroke-width="3" stroke-linecap="square" stroke-linejoin="round" fill="none" stroke="#1f77b4" d="M95.70251 178.3285 96.08001 271.47535 96.45751 202.8005 96.835018 253.64263 97.21252 170.65155 97.59002 240.67067 97.96753 256.60478 98.34503 284.67454 98.722537 321.8725 99.10004 42.903127 99.47754 47.773557 99.85504 87.90676 100.23255 365.306 100.610057 137.17804 100.98756 233.08274 101.36506 283.5492 101.74256 256.9879 102.12007 348.85484 102.497577 344.24009 102.87508 273.20436 103.25258 359.65177 103.63008 507.15077 104.00758 279.287 104.38509 450.05598 105.1401 345.08384 105.5176 202.60222 105.8951 378.97856 106.272609 402.4374 106.650119 416.57783 107.02762 376.6319 107.40512 411.96556 107.78262 254.93372 108.53763 376.3722 108.91514 382.71153 109.67014 435.06166 110.047649 325.36079 110.42515 340.55433 110.80265 405.0171 111.18016 334.97645 111.55766 388.2282 111.935169 338.11735 112.31267 175.53328 112.69017 301.86576 113.06767 163.2268 113.44518 308.75468 113.822689 306.0699 114.20019 326.56623 114.57769 292.20964 114.95519 420.77027 115.3327 264.8808 115.710208 333.9954 116.08771 340.99974 116.46521 323.433 116.84271 405.9921 117.220218 295.825 117.59772 328.01695 117.97523 294.3208 118.35273 312.93199 118.73023 314.26756 119.107738 296.89088 119.48524 317.80287 119.86275 312.06297 120.24025 311.02647 120.61775 327.87138 120.995258 306.33753 121.37276 203.99176 121.75026 332.5323 122.12777 328.5681 122.50527 322.9589 122.882778 198.88399 123.26028 347.73927 123.63778 312.62577 124.01528 316.06675 124.39279 338.70298 124.770298 222.11156 125.1478 330.73905 125.5253 323.63053 125.9028 318.97566 126.280307 327.46873 126.657817 332.34416 127.03532 283.98979 127.41282 325.6221 127.79032 323.44413 128.16783 325.13917 128.54534 327.74635 128.92284 315.2611 129.67784 326.94477 130.05535 366.56895 130.81035 324.55116 131.18785 324.86546 131.56536 321.93339 131.94287 337.34114 132.32038 320.54588 132.69788 313.15007 133.07538 331.60035 133.45288 289.4619 133.83039 332.35075 134.20789 196.52869 134.58539 313.56916 134.96289 323.83485 135.3404 318.20976 135.7179 190.60657 136.0954 322.94084 136.47292 330.02589 136.85042 302.24449 137.22792 310.96394 137.60543 332.6912 137.98293 324.25703 138.36043 268.39646 138.73793 311.05287 139.11544 327.8678 139.49294 327.4122 139.87044 178.91902 140.24794 324.0021 140.62545 327.31535 141.00296 318.3213 141.38047 314.39216 141.75797 332.88365 142.13547 320.98014 142.51297 203.99176 142.89048 196.81589 143.26798 235.69821 143.64548 331.3639 144.02298 331.09956 144.40048 325.80076 144.77799 325.2352 145.1555 203.99176 145.533 330.01979 145.9105 333.22886 146.28801 190.58388 146.66551 334.462 147.04302 214.88755 147.42052 330.35429 147.79802 323.83564 148.17552 324.63285 148.55303 215.70829 148.93053 350.9647 149.30803 328.78044 149.68555 321.7711 150.06305 308.37248 150.44055 332.58567 150.81806 322.50407 151.19556 338.91676 151.57306 331.51454 151.95056 334.06825 152.32807 330.68055 152.70557 337.50874 153.08307 270.63948 153.46057 329.29856 153.83808 238.54659 154.21559 333.56834 154.5931 309.2438 155.3481 334.49238 156.1031 324.69355 156.4806 331.84104 156.85811 329.10008 157.23561 293.50386 157.61312 335.26438 157.99062 195.09284 158.36814 193.25388 158.74564 336.31056 159.12314 340.23509 159.50064 332.76747 159.87815 199.11272 160.25565 203.99176 160.63315 224.60474 161.38816 323.38133 161.76566 330.7122 162.14316 203.99176 162.52066 337.27928 162.89818 332.47554 163.27568 203.99176 163.65319 336.81648 164.03069 335.33103 164.40819 312.42915 164.78569 324.31575 165.1632 322.1563 165.5407 347.40867 165.9182 203.99176H166.2957L166.6732 324.6895 167.05072 201.22682 167.42823 337.78465 167.80573 334.35868 168.18323 290.90473 168.56073 200.43811 168.93824 339.41056 169.31574 269.9568 169.69324 302.16035 170.07074 203.99176 170.44824 337.56117 170.82575 329.56105 171.20325 203.99176 171.58077 336.90913 171.95827 203.99176 172.33577 335.83357 172.71327 304.5429 173.09078 334.24497 173.46828 199.98343 173.84578 326.48664 174.22328 340.99064 174.60079 339.7084 174.97829 347.87168 175.35579 203.99176 175.73329 334.60609 176.11081 252.66124 176.48831 197.31174 176.86582 343.97056 177.24332 203.99176 177.62082 338.33628 177.99832 336.422 178.37583 336.32405 179.13083 353.97123 179.50833 203.99176 179.88584 306.09187 180.26335 324.72676 180.64086 326.52583 181.01836 330.41404 181.39586 333.02323 181.77336 355.7551 182.15087 321.3894 182.52837 337.61064 182.90587 203.99176 183.28337 316.46125 183.66088 340.15879 184.03838 328.41557 184.41588 340.11997 184.7934 338.40858 185.1709 203.99176 185.5484 334.1964 185.9259 203.99176 186.3034 333.66618 186.68091 342.85725 187.05841 203.99176 187.43592 337.43067 187.81342 339.49214 188.19092 199.98256 188.56842 360.37275 188.94593 354.36799 189.32344 344.4101 189.70095 197.4838 190.07845 203.99176 190.45595 201.24144 190.83345 288.97926 191.21096 341.45335 191.58846 194.90483 191.96596 212.59159 192.34346 330.058 192.72097 336.45344 193.09847 203.99176H193.47597L193.85349 354.39143 194.23099 340.16474 194.60849 290.8497 194.986 343.17674 195.3635 203.99176 195.741 336.52684 196.1185 340.12886 196.496 199.74434 196.8735 332.40965 197.251 344.19108 197.62851 193.76663 198.00603 337.49858 198.38353 203.99176 198.76103 343.69227 199.13854 200.96616 199.51604 203.99176 199.89354 313.57453 200.27104 350.17024 200.64855 334.75083 201.02605 203.99176H201.78105L202.15856 321.02555 202.53607 203.99176 202.91358 316.74104 203.29108 338.62684 203.66858 203.99176H204.04608L204.42359 227.41466 204.80109 292.219 205.17859 203.99176 205.55609 343.07453 205.9336 203.99176 206.3111 346.95387 206.6886 203.99176H207.06612L207.44362 343.10868 207.82112 203.99176H208.19863L208.57613 344.16017 208.95363 203.99176 209.33113 346.1741 209.70864 340.41184 210.08614 311.86299 210.46364 191.28462 210.84114 345.12303 211.21866 196.95894 211.59616 203.99176 211.97367 291.35578 212.35117 348.29725 212.72867 203.99176H213.10617L213.48368 366.6915 213.86118 203.99176 214.23868 329.401 214.61618 334.54869 214.99369 203.99176 215.3712 193.59973 215.7487 224.67786 216.1262 347.34159 216.50371 203.99176 216.88121 335.47203 217.25872 201.17244 217.63622 339.9983 218.01372 203.99176 218.39122 200.896 218.76873 200.98625 219.14623 348.23313 219.52373 342.46809 219.90123 339.20265 220.27875 199.91674 220.65625 348.76603 221.03376 203.99176H221.41126L221.78876 338.51194 222.16626 197.79477 222.54376 342.29737 222.92127 345.66523 223.29877 203.99176 223.67627 325.1948 224.05377 203.99176H224.80879L225.1863 341.18263 225.5638 193.23438 225.9413 201.11298 226.3188 345.6454 226.6963 349.5728 227.0738 346.61039 227.45131 346.1417 227.82881 328.18098 228.20632 345.81004 228.58382 203.99176 228.96134 201.17078 229.33884 350.3038 229.71634 349.81565 230.09384 201.18608 230.47135 226.51912 230.84885 203.99176 231.22635 346.32627 231.60385 347.7775 231.98136 203.99176H232.35886L232.73636 332.02226 233.11388 200.92028 233.49138 332.9455 233.86888 203.99176 234.24639 201.50917 234.62389 193.94506 235.00139 346.26506 235.37889 342.33164 235.7564 203.99176H236.5114L236.8889 349.42378 237.2664 262.31553 237.64392 203.99176 238.02143 338.1159 238.39893 203.99176H238.77643L239.15393 336.69743 239.53144 203.99176H239.90894L240.28644 297.1095 240.66394 351.9131 241.04145 203.99176 241.41895 296.47883 241.79645 197.90854 242.17397 195.28127 242.55147 201.01677 242.92897 197.81092 243.30648 350.81855 243.68398 198.32157 244.06148 203.99176 244.43898 351.5865 244.81649 351.1755 245.19399 203.99176 245.57149 200.98126 245.94899 203.99176 246.3265 200.78134 246.70401 296.86073 247.08152 350.128 247.45902 348.1926 247.83652 223.79192 248.21402 203.99176 248.59152 339.24238 248.96903 203.99176 249.34653 230.76155 249.72403 367.43003 250.10153 201.06772 250.47904 203.99176 250.85655 347.05747 251.23406 203.99176 251.61156 344.59568 251.98906 352.01908 252.36656 203.99176 252.74407 312.56938 253.12157 346.48194 253.49907 350.00346 253.87657 203.99176H256.5191L256.8966 200.78156 257.2741 349.3057 257.6516 203.99176 258.0291 196.36168 258.40663 352.8821 258.78413 203.99176H259.16163L259.53913 349.7637 259.91664 341.8231 260.29414 203.99176 260.67164 196.61127 261.04914 203.99176 261.42665 359.08006 261.80418 203.99176 262.18168 197.6239 262.55918 203.99176 262.93669 353.22428 263.31419 224.62728 263.69169 203.99176H264.06919L264.4467 200.9587 264.8242 191.08219 265.2017 203.99176H265.9567L266.3342 352.27018 266.7117 203.99176 267.0892 337.81816 267.4667 203.99176H267.8442L268.2217 217.47832 268.5992 203.99176 268.9767 199.90845 269.35423 339.6863 269.73173 203.99176H270.10923L270.48674 352.75544 270.86427 222.31249 271.24177 203.99176H271.61927L271.99678 201.04598 272.37428 203.99176H273.12928L273.50679 349.82518 273.88429 350.54808 274.26179 347.11305 274.63929 203.99176 275.01679 352.30073 275.3943 349.21488 276.1493 203.99176 276.5268 349.4931 276.9043 203.99176H277.2818L277.6593 354.63877 278.0368 197.50705 278.4143 203.99176 278.7918 196.6519 279.1693 203.99176H281.05686L281.43437 334.12477 281.81187 203.99176 282.18937 330.2025 282.56687 201.35517 282.94438 203.99176 283.32188 332.46788 283.69938 203.99176 284.07688 199.8844 284.45439 203.99176 284.83189 352.92115 285.20939 305.9448 285.58689 352.27986 285.9644 203.99176 286.3419 198.48526 286.7194 203.99176 287.0969 349.23503 287.4744 203.99176 287.8519 344.82466 288.22944 203.99176H288.98445L289.36195 352.67759 289.73945 203.99176H291.62696L292.00447 199.65612 292.38197 201.09648 292.75947 254.9596 293.13697 350.80973 293.51448 199.87866 293.89198 203.99176 294.26948 342.7747 294.64698 203.99176 295.02449 198.22551 295.40199 203.99176 295.77949 342.61164 296.15699 349.2219 296.5345 203.99176H296.912L297.28953 353.4598 297.66703 347.1385 298.04454 203.99176 298.42204 346.48359 298.79954 213.56128 299.17704 349.48139 299.55455 346.2841 299.93205 201.05277 300.30955 304.8734 300.68705 203.99176 301.06455 345.43327 301.44206 203.99176 301.81956 200.76293 302.19706 201.23802 302.95207 206.36511 303.32957 200.86354 303.70707 203.99176H304.08457L304.46208 319.26039 304.83958 197.98085 305.21708 203.99176H305.9721L306.3496 201.00676 306.7271 199.6281 307.1046 341.27543 307.48213 203.99176 307.85963 349.7312 308.23713 203.99176 308.61463 199.18114 308.99214 203.99176H309.36964L309.74714 354.18086 310.12464 353.22428 310.50215 203.99176H310.87965L311.25715 350.83955 311.63465 214.91985 312.01216 195.62546 312.38966 203.99176H313.52217L313.89967 192.32027 314.27717 203.99176 314.6547 199.4791 315.0322 200.78762 315.4097 352.69703 315.7872 201.20398 316.1647 203.99176H316.5422L316.9197 197.64351 317.2972 352.9309 317.6747 203.99176H318.05223L318.42973 200.2514 318.80723 199.76612 319.18473 203.99176 319.56224 340.76704 319.93974 200.23659 320.31724 203.99176 320.69474 325.9888 321.07225 203.99176H322.20475L322.58226 348.6034 323.33726 346.42546 323.71479 197.03899 324.0923 201.19794 324.4698 203.99176H324.8473L325.2248 329.34184 325.6023 203.99176H327.1123L327.4898 342.76646 327.8673 203.99176H328.2448L328.6223 347.34056 328.99983 342.73277 329.75483 340.47676 330.13233 350.8901 330.50984 197.0546 330.88734 197.35242 331.26484 201.25342 331.64234 203.99176H332.01985L332.39738 345.93858 332.77488 343.67704 333.15238 203.99176H333.52989L333.90739 349.01545 334.28489 200.96407 334.66239 203.99176 335.0399 189.7207 335.4174 203.99176 335.7949 346.82017 336.1724 203.99176H336.5499L336.9274 350.47355 337.3049 203.99176H337.6824L338.0599 336.66053 338.4374 346.58583 338.8149 203.99176 339.1924 351.16596 339.56993 351.7304 339.94743 201.06145 340.32493 351.78807 340.70243 200.96115 341.07997 221.9992 341.45747 349.54136 341.83497 203.99176H342.21247L342.58998 281.47657 342.96748 197.59188 343.34498 350.55857 343.72248 203.99176 344.09999 327.62269 344.47749 203.99176 344.85499 341.55158 345.23249 190.84691 345.61 203.99176 345.9875 198.47827 346.365 203.99176 346.7425 352.1735 347.12 200.64228 347.4975 199.6188 347.875 203.99176 348.2525 197.15142 348.63 203.99176 349.0075 195.9739 349.385 203.99176 349.7625 189.90297 350.14006 203.99176 350.51756 246.8347 350.89506 222.10276 351.27256 327.4943 351.65007 203.99176 352.02757 221.867 352.40507 200.01113 352.78257 203.99176H354.67008L355.04759 202.69678 355.42509 203.99176H356.18009L356.5576 353.28309 356.9351 203.99176H357.3126L357.6901 200.94182 358.0676 203.99176 358.4451 200.962 358.82264 203.99176H359.20014L359.95515 341.48417 360.33265 203.99176H360.71015L361.08766 200.67232 361.46516 199.4405 361.84266 320.07774 362.22016 191.70388 362.59767 194.60962 362.97517 231.42829 363.35267 200.19474 363.73017 365.20277 364.10768 346.60975 364.48518 203.99176 364.86268 198.06652 365.24018 194.73027 365.61769 200.90236 365.99519 334.9414 366.37269 203.99176 366.75019 352.75544 367.1277 193.74932 367.50523 349.2758 367.88273 340.42915 368.26023 348.7232 368.63774 205.3523 369.01524 350.31758 369.39274 198.4103 369.77024 203.99176 370.14775 197.47792 370.52525 196.74472 370.90275 203.99176 371.28025 200.95795 371.65776 203.99176H372.03526L372.41276 198.01679 372.79026 186.55391 373.16777 344.86009 373.54527 342.09519 373.92277 203.99176 374.30027 347.2896 374.67778 352.98948 375.05528 203.99176H375.43278L375.81028 352.4251 376.1878 203.99176 376.5653 201.00171 376.9428 212.43277 377.3203 196.01895 378.07533 203.99176 378.45283 349.29225 378.83033 203.99176 379.20783 198.83267 379.58534 203.99176 379.96284 199.80011 380.34034 203.99176 380.71784 209.74512 381.47285 197.26999 381.85035 347.74803 382.22785 334.70936 382.60536 203.99176 382.98286 200.99155 383.36036 203.99176 383.73786 225.03789 384.11537 203.99176 384.49287 345.65419 384.87037 203.99176 385.2479 349.68183 385.6254 346.43757 386.0029 203.99176 386.3804 329.87126 386.7579 351.22319 387.1354 342.35038 387.5129 200.28299 387.8904 201.45201 388.2679 203.99176H388.64543L389.02293 201.33126 389.40043 211.2906 389.77793 203.99176H390.53294L390.91044 301.31819 391.28794 203.99176H391.66545L392.04295 192.19004 392.42045 196.95148 392.79795 195.78221 393.17546 348.74055 393.55296 203.99176 393.93049 346.77629 394.30799 201.33895 395.063 347.85 395.4405 343.88096 395.818 201.49706 396.1955 203.99176 396.573 335.26896 396.9505 334.95216 397.328 348.58854 397.7055 196.90904 398.083 203.99176H399.59303L399.97053 193.12502 400.34803 230.42565 400.72554 333.65934 401.10304 193.54372 401.48054 198.71344 401.85804 197.3837 402.61305 201.60453 402.99058 209.06745 403.36808 203.99176 403.74559 341.9486 404.12309 291.39 404.50059 287.6302 404.87809 201.69913 405.25559 201.34581 405.6331 203.99176 406.0106 224.33916 406.3881 203.99176H406.7656L407.1431 351.27088 407.5206 223.2735 407.8981 200.85082 408.2756 203.99176H408.6531L409.0306 349.0576 409.4081 198.02925 409.7856 203.99176 410.16313 370.8138 410.91813 336.62828 411.29563 203.99176 411.67317 199.48862 412.05067 203.99176 412.42817 345.01417 412.80567 203.99176H413.18318L413.56068 373.44004 413.93818 222.2965 414.31568 201.41838 414.69319 199.78203 415.07069 211.98085 415.82569 197.56162 416.2032 236.14331 416.5807 203.99176 416.9582 348.32505 417.3357 199.70381 417.7132 201.43451 418.0907 201.45655 418.4682 199.81748 418.8457 203.99176 419.2232 204.91825 419.6007 203.99176 419.9782 197.19345 420.35575 203.99176H420.73326L421.11076 348.08125 421.48826 351.29588 421.86576 351.10777 422.24327 203.99176 422.62077 199.57289 422.99827 345.21357 423.37577 339.10667 423.75328 346.64649 424.13078 203.99176H424.50828L424.88578 348.84 425.26329 257.6322 425.64079 203.99176 426.01829 318.46528 426.39579 346.89939 426.7733 203.99176 427.1508 345.95954 427.5283 213.56616 427.9058 212.17098 428.2833 339.6358 428.6608 203.99176 429.03834 315.55738 429.41584 203.99176H430.17085L430.54835 217.016 430.92585 346.55445 431.30335 203.99176 431.68086 198.16728 432.05836 350.71943 432.43586 225.25693 432.81336 200.90648 433.19087 217.06726 433.56837 203.99176H433.94587L434.32337 345.64607 434.70088 203.99176 435.07838 217.09862 435.45588 215.93082 435.83338 195.65906 436.21089 190.69637 436.58839 194.11713 436.96589 326.148 437.34339 284.80488 437.7209 350.50187 438.09843 203.99176H438.47593L438.85343 229.1428 439.60844 313.0055 439.98594 368.74995 440.36344 203.99176 440.74095 333.68708 441.11845 189.6157 441.49595 213.78899 441.87345 348.45634 442.25096 246.43077 442.62846 343.4978 443.00596 189.77339 443.38346 201.21968 443.76097 191.90065 444.13847 344.08839 444.51597 218.55294 444.89347 203.99176 445.27098 200.96808 445.64848 203.99176H446.02598L446.40348 349.846 446.781 203.99176 447.1585 272.6129 447.536 203.99176 447.9135 379.28984 448.29103 203.99176H449.04603L449.42353 199.34745 449.80104 203.99176H451.31105L451.68855 344.91508 452.06605 255.11754 452.44355 344.73588 452.82106 384.28208 453.19856 217.79418 453.57606 191.9253 453.95356 352.36695 454.33106 200.47403 454.70857 193.80974 455.08607 352.64839 455.46357 352.57066 455.8411 355.7701 456.2186 203.99176H456.9736L457.3511 201.32062 457.7286 203.99176H458.4836L459.23863 196.48522 459.61613 199.61635 459.99363 197.79029 460.37113 193.90557 460.74864 201.0144 461.12614 203.99176 461.50364 198.07433 461.88114 210.40135 462.25865 203.99176 462.63615 216.49857 463.01365 340.6465 463.39115 194.48677 463.76866 283.60304 464.14619 203.99176 464.52369 340.52183 464.90119 346.9599 465.2787 200.71132 465.6562 345.98109 466.0337 185.90964 466.4112 203.99176 466.7887 193.887 467.1662 203.99176 467.5437 186.9203 467.9212 206.93175 468.2987 198.85373 468.6762 201.05304 469.0537 203.99176 469.4312 344.17085 469.80873 194.2033 470.18623 218.68827 470.56373 186.71187 470.94123 199.98258 471.31874 370.94615 471.69624 203.99176 472.07374 211.53131 472.45124 203.99176 472.82875 343.54084 473.20628 194.4143 473.58378 343.28056 473.96128 200.71442 474.33879 188.3314 474.71629 200.08605 475.09379 203.99176 475.47129 189.11136 475.8488 336.87666 476.2263 203.99176 476.6038 337.66413 476.9813 336.87937 477.3588 353.2929 477.7363 226.97219 478.1138 264.47389 478.4913 198.65493 478.8688 344.20933 479.2463 203.99176 479.6238 200.90883 480.0013 344.559 480.3788 203.99176 480.75633 369.5777 481.13383 344.8789 481.51133 297.25895 481.88887 198.627 482.26637 351.6341 482.64387 189.26934 483.02137 203.99176 483.39888 198.49498 483.77638 195.55388 484.15388 203.99176 484.53138 201.0484 484.90888 349.89054 485.28639 331.61308 485.66389 203.99176H486.04139L486.41889 336.28739 486.7964 203.99176 487.1739 200.11554 487.5514 225.375 487.9289 198.86299 488.3064 191.97095 488.6839 203.99176 489.0614 201.12468 489.4389 203.99176 489.8164 351.37593 490.1939 378.5367 490.5714 209.19202 490.94895 201.27315 491.32646 346.30824 491.70396 348.9692 492.08146 343.8632 492.45896 324.89955 492.83647 346.50364 493.21397 338.20417 493.59147 336.28877 493.96897 203.99176 494.34648 196.87133 494.72398 203.99176 495.10148 346.68006 495.47898 220.3703 495.85649 198.56507 496.23399 203.99176 496.61149 346.35237 496.98899 203.99176 497.3665 350.97563 497.744 357.99079 498.1215 203.99176 498.499 224.02164 498.8765 194.06304 499.254 200.69715 499.63154 199.59291 500.00904 217.02173 500.38655 225.13857 500.76405 203.99176 501.14155 211.03966 501.51905 203.99176 501.89656 194.36154 502.27406 222.60649 502.65156 240.21166 503.02906 350.03117 503.40657 186.09053 503.78407 196.84789 504.16157 337.7696 504.53907 203.99176 504.91658 346.5124 505.29408 293.4725 505.67158 364.9778 506.04908 201.23114 506.42658 203.99176 506.80409 343.66014 507.18159 201.0633 507.55909 298.0844 507.93659 336.61277 508.3141 218.31418 508.69163 198.55275 509.06913 189.64057 509.44664 204.66725 509.82414 201.44235 510.20164 200.40535 510.57914 201.38036 510.95664 330.7269 511.33415 217.5817 511.71165 191.68424 512.0891 203.99176 512.4666 195.52523 512.8442 223.42946 513.5992 200.80149 513.9767 191.70594 514.3542 347.40489 514.7317 203.99176 515.1092 198.1785 515.4867 199.74503 516.2417 193.91187 516.6192 336.99855 516.9967 343.64173 517.3742 203.99176H518.1292L518.5067 245.47165 519.2617 203.99176 519.6392 336.43318 520.0167 335.62965 520.3942 215.12541 520.7717 179.95882 521.14926 203.99176 521.52676 330.0514 521.90426 220.77278 522.28176 327.64338 522.65927 324.2733 523.03677 192.29056 523.41427 200.95856 523.79177 203.99176 524.54678 197.26474 524.92428 221.04181 525.67929 189.48363 526.05679 312.75794 526.43429 331.79847 526.81179 203.99176 527.1893 192.78888 527.5668 340.043 527.9443 208.73793 528.3218 269.29978 528.6993 201.2313 529.0768 240.0873 529.4543 201.54564 529.8318 188.73183 530.2093 200.66507 530.58688 201.56678 530.96438 188.65433 531.34188 323.5961 531.71939 216.06992 532.09689 200.33263 532.47439 197.55278 532.85189 191.81345 533.2294 302.09284 533.6069 335.4748 533.9844 220.67943 534.3619 348.15977 534.7394 345.09883 535.1169 336.54914 535.4944 208.86022 535.8719 203.99176 536.2494 363.11213 536.6269 184.80397 537.0044 222.75142 537.3819 355.72697 537.7594 339.8139 538.1369 289.4455 538.5144 337.3914 538.8919 214.76866 539.2694 238.44226 539.6469 189.34668 540.4019 203.99176 540.7794 193.79628 541.1569 199.83167 541.5344 203.99176 541.9119 201.58266 542.2894 181.53209 542.66696 212.08365 543.04446 213.11539 543.42196 188.87493 543.79946 334.60575 544.17697 203.99176 544.55447 196.52695 544.93197 332.53877 545.30947 201.2317 545.68698 335.50294 546.06448 201.29674 546.44198 334.607 546.81948 210.20273 547.19699 196.36782 547.57449 277.62376 547.952 194.09493 548.3295 179.27924 548.70706 187.43428 549.08456 208.74889 549.46206 318.05635 549.83956 189.44362 550.21707 184.55928 550.59457 199.97563 550.97207 224.58966 551.34957 343.52113 551.72708 183.75379 552.10458 318.2196 552.48208 327.66688 552.85958 225.16547 553.23709 341.24476 553.61459 340.37104 553.99209 234.06624 554.36959 354.32154 554.7471 332.99418 555.1246 248.16545 555.5021 221.12947 555.8796 248.49932 556.2571 304.66307 556.6346 229.84558 557.0121 202.54631 557.3896 237.04759 557.7671 245.97672 558.5221 344.83845 558.8996 318.05577 559.2771 314.17323 559.6546 193.93357 560.0321 329.7494 560.4096 198.17577 560.7871 203.99176 561.1646 362.0617 561.5421 203.99176 561.9196 233.95452 562.2971 203.99176 562.6746 335.40614 563.0521 191.73017 563.4296 212.09589 563.8071 194.64334 564.18466 199.78858 564.56216 224.70323 564.93966 336.15388 565.31716 331.3844 565.6947 203.99176 566.0722 189.2101 566.4497 197.15624 566.8272 192.26085 567.2047 201.20793 567.5822 190.62654 567.9597 349.63056 568.3372 211.63842 568.7147 221.44412 569.0922 192.98157 569.4697 205.62598 569.8472 371.76649 570.22476 210.4982 570.60226 327.54148 570.97976 324.1133 571.35726 197.03731 571.73477 200.89508 572.11227 193.77077 572.48977 333.18669 572.86727 321.70008 573.24478 336.7595 573.62228 347.19056 573.99978 217.61496 574.37728 198.8391 574.75479 210.2861 575.13229 318.18077 575.50979 222.08683 575.88729 202.94629 576.2648 201.39379 576.6423 184.1245 577.0198 303.94764 577.3973 371.1061 577.7748 348.82969 578.1523 182.4513 578.5298 218.8549 578.9073 194.22005 579.2848 190.90686 579.6623 194.47693 580.0398 328.29505 580.4173 194.40274 580.7948 308.69099 581.1723 323.83256 581.5498 220.75942 581.9273 319.307 582.6823 361.9017 583.0599 251.4309 583.4374 183.18445 583.8149 197.00203 584.1924 217.7491 584.5699 331.30046 584.9474 190.50342 585.3249 178.29447 585.7024 221.65323 586.0799 342.6051 586.4574 184.68779 586.8349 377.66297 587.2124 257.01383 587.5899 322.70527 587.9674 319.12739 588.7224 338.96446 589.0999 317.61769 589.4774 217.17543 589.8549 211.14061 590.2324 199.05655 590.6099 332.35157 590.9874 230.56403 591.3649 206.13918 591.74246 234.31708 592.11996 306.93656 592.49746 328.92323 592.87496 333.26078 593.25247 266.1822 593.62997 449.73579 594.00747 333.7081 594.38497 176.4171 594.76248 379.33705 595.13998 335.51853 595.51748 307.96528 595.89498 341.24885 596.27249 314.91465 596.64999 234.91732 597.02749 338.79164 597.40499 191.51642 597.7825 340.19465 598.16 202.24306 598.5375 164.87067 598.915 323.28507 599.2925 218.86753 599.67 280.14106 600.0475 320.07664 600.425 172.48804 600.80258 133.17755 601.18008 338.0201 601.55758 236.95796 601.93508 324.18025 602.31259 328.72718 602.69009 326.84199 603.06759 141.64048 603.8226 316.8602 604.2001 188.62784 604.5776 336.35398 604.9551 178.09918 605.3326 237.85832 605.7101 427.7307 606.0876 305.59574 606.4651 322.30555 606.8426 195.11734 607.2201 245.19808 607.5976 249.8334 607.9751 260.87879 608.3526 462.97554 608.7301 238.79497 609.1076 192.35811 609.4851 291.9601 610.2401 228.52535 610.6176 386.7383 610.9951 263.63673 611.3726 178.34471 611.7501 167.38835 612.1276 195.12042 612.5051 144.86595 612.8826 244.85599 613.26016 185.2861 613.63766 270.36503 614.01516 267.3101 614.39266 461.86018 614.77017 310.53883 615.14767 272.06877 615.52517 287.13645 615.90267 207.48392 616.28018 235.65976 616.65768 175.57862 617.03518 209.1668 617.41268 261.6137 617.79019 241.46707 618.16769 180.12905 618.5452 290.94685 618.9227 465.3869 619.67776 187.65814 620.05526 207.73667 620.43276 383.15525 620.81027 215.21988 621.18777 195.17885 621.56527 163.7786 621.94277 154.80158 622.32028 244.8165 622.69778 186.63459 623.07528 400.17799 623.45278 213.89952 623.83029 294.2406 624.20779 258.1296 624.58529 238.3776 624.96279 199.72727 625.3403 275.82618 625.7178 254.144 626.0953 363.5203 626.4728 171.1171 626.8503 318.59754 627.2278 204.1075 627.6053 273.93556 627.9828 223.92308 628.3603 326.84138 628.7378 171.79228 629.1153 278.5165 629.4928 174.80446 630.2478 314.30867 630.6253 179.02095 631.0028 267.22328 631.3803 229.39006 631.7578 143.90236 632.1353 282.12956 632.5128 110.38539 632.8903 267.78785 633.2678 237.0878 633.6453 319.90718 634.0228 203.7684 634.4003 339.55003 634.77786 225.54846 635.15536 347.9211 635.53286 212.20978 635.9104 194.47539 636.2879 186.13889 636.6654 159.14124 637.0429 248.05567 637.4204 199.74645 637.7979 178.41536 638.1754 170.10587 638.5529 154.63289 638.9304 224.84787 639.3079 236.95746 639.6854 371.3459 640.0629 223.45793 640.4404 178.62079 640.81796 154.35982 641.19546 208.20528 641.57296 229.35974 641.95046 263.2785 642.32797 275.2872 642.70547 188.55847 643.08297 157.2745 643.46047 181.96361 643.83798 194.7262 644.21548 198.60562 644.59298 222.26869 644.97048 177.36064 645.72549 150.24562 646.10299 180.87319 646.48049 190.70314 646.858 182.20197 647.2355 104.93552 647.613 171.5335 647.9905 195.47965 648.368 234.05919 648.7455 249.62763 649.123 218.78264 649.5005 152.31948 649.878 162.88465 650.2555 161.3375 651.0105 253.10724 651.388 246.79271 651.7655 286.60975 652.143 129.5882 652.5205 219.9598 652.898 232.0236 653.2755 222.07646 653.6531 226.72666 654.0306 204.34792 654.4081 327.7006 654.7856 232.5121 655.1631 251.47925 655.5406 220.98888 655.9181 218.1558 656.2956 200.02086 656.6731 300.6323 657.0506 253.07218 657.4281 319.5341 657.8056 164.87789 658.1831 135.60681 658.5606 288.13648 658.9381 178.1534 659.3156 135.25246 659.6931 350.7402 660.0706 103.690258 660.4481 228.47159 660.8256 158.77167 661.2031 196.10346 661.5806 109.1486 661.9581 235.16304 662.33566 262.53507 662.71316 256.8875 663.09066 218.0948 663.84567 359.87269 664.22317 267.96565 664.60067 241.7159 664.97817 200.24475 665.35568 287.4998 665.73318 235.61872 666.11068 283.8809 666.48818 250.71312 666.86569 176.2359 667.24319 184.46533 667.62069 266.0044 667.99819 223.20905 668.3757 215.00952 668.7532 197.61724 669.1307 203.68474 669.5082 228.69606 670.2632 213.59328 670.6407 209.16652 671.01828 181.65534 671.39578 215.25536 671.77328 213.3444 672.15078 163.4762 672.52828 201.48596 672.90579 194.02278 673.28329 203.65294 673.66079 248.22147 674.03829 190.97962 674.4158 245.92476 675.1708 264.97837 675.5483 188.34944 675.9258 232.59761 676.3033 231.79288 676.6808 206.11304 677.0583 163.94109 677.4358 232.09654 677.8133 196.17159 678.1908 228.4238 678.5683 282.97303 678.9458 148.97245 679.3233 189.82216 679.7008 204.45017 680.0783 279.97148 680.4558 169.92913 680.8333 183.77481 681.2108 238.83684 681.5883 155.28704 681.9658 138.06269 682.3433 235.74448 682.7208 156.30998 683.0983 208.67938 683.4758 201.66977 683.85336 291.86769 684.23086 161.47743 684.60836 131.16739 684.98587 302.0573 685.36337 173.10422 685.74087 222.64977 686.11837 160.50968 686.49588 177.14327 686.87338 235.86629 687.25088 148.26448 687.62838 204.51065 688.00588 169.42302 688.38339 208.70925 688.7609 169.06856 689.1384 200.0194 689.5159 186.20381 689.89346 263.17866 690.27096 182.41223 690.64846 207.73 691.02597 190.45322 691.78097 169.58477 692.15847 217.17917 692.53598 176.48305 692.91348 222.48526 693.29098 231.87378 693.66848 129.8519 694.04598 191.76615 694.42349 204.6203 694.80099 189.47806 695.17849 187.21086 695.55599 200.92319 695.9335 173.36603 696.311 205.17659 696.6885 194.23639 697.066 233.66703 697.4435 167.92066 697.821 263.2373 698.1985 190.12899 698.576 192.36026 698.9535 179.24326 699.331 172.1272 700.086 238.2877 700.4635 232.70298 700.841 170.53199 701.2185 181.06316 701.596 196.10849 701.9735 177.78874 702.351 193.13196 702.7285 180.07775 703.106 158.73648 703.4835 203.52086 703.861 271.21308 704.2385 179.68364 704.616 122.65917 704.9935 164.67403 705.37106 229.9126 705.74856 217.65464 706.12606 199.45572 706.5036 169.58322 706.8811 264.96498 707.2586 155.02875 707.6361 236.07541 708.0136 223.08403 708.3911 204.9778 708.7686 220.56014 709.1461 184.0504 709.5236 82.72015 709.9011 204.28452 710.2786 176.03157 710.6561 130.97058 711.0336 157.719 711.41116 115.59296 711.78866 110.89926 712.16616 202.57338 712.54367 133.31562 712.92117 218.04721 713.29867 190.68285 713.67617 172.52661 714.05368 286.39073 714.43118 249.62021 714.80868 67.08135 715.18618 284.44877 715.56369 169.02596 715.94119 255.68016 716.31869 146.39263 716.69619 204.51416 717.07369 184.37332 717.4512 248.04149 718.2062 184.58441 718.5837 238.5901 718.9612 137.65464 719.3387 185.44815 719.7162 208.07453 720.0937 223.71346 720.4712 157.03296 721.2262 250.76157 721.6037 162.25839 721.9812 153.94858 722.3587 234.67179 722.7362 214.4508 723.1137 180.54854 723.4912 215.31049 723.8688 196.45484 724.2463 194.01255 724.6238 229.43619 725.0013 208.43144 725.7563 184.2655 726.1338 186.95545 726.5113 150.77117 726.8888 221.26517 727.2663 180.43613 727.6438 174.38486 728.0213 198.6032 728.3988 163.66309 728.7763 168.75653 729.1538 224.5692 729.5313 188.69301 729.9088 180.1671 730.2863 163.99376 730.6638 201.616 731.4188 143.38155 731.7963 276.88856 732.1738 151.01053 732.55136 154.43309 732.92886 228.35224 733.30636 151.4333 733.68386 171.23339 734.06137 150.59967 734.43887 189.32305 734.81637 272.91606 735.57138 157.73215 735.94888 214.42099 736.32638 215.39926 736.70388 208.80617 737.08139 183.49983 737.45889 178.50045 737.83639 164.50472 738.21389 197.90682 738.5914 197.20446 738.9689 215.88103 739.3464 228.36989 739.7239 145.2258 740.1014 160.84792 740.4789 167.82617 740.8564 189.57556 741.2339 202.9944 741.61148 133.52571 742.36648 215.44329 743.12149 183.76699 743.49899 186.75994 743.87649 209.46646 744.25399 186.23215 744.6315 229.99512 745.009 226.62564 745.3865 208.71854 745.764 170.4482 746.1415 184.09389 746.519 191.69309 746.8965 176.79541 747.274 111.907909 747.6515 241.9081 748.029 191.67217 748.4065 217.07224 748.784 146.41654 749.1615 169.52674 749.539 169.2023 749.9165 181.4795 750.294 241.1886 750.6715 226.72927 751.049 197.04644 751.4265 235.00183 751.804 228.81565 752.1815 183.05666 752.559 202.34014 752.9365 214.24803 753.314 185.21179 753.6915 237.79669 754.06906 169.7505 754.82406 179.7393 755.20156 152.69025 755.95657 187.57775 756.33407 196.44382 756.71157 172.8097 757.08908 178.96125 757.46658 154.03934 757.84408 198.8839 758.22158 190.95429 758.59909 240.31735 758.97659 177.43173 759.3541 171.15663 759.7316 206.428 760.10916 180.56519 760.48666 164.52152 760.86416 181.2131 761.24166 151.55136 761.61917 260.59504 761.99667 178.56153 762.37417 177.88053 762.75167 184.5202 763.12918 202.92998 763.50668 193.02147 763.88418 199.46869 764.26168 197.90915 764.63919 193.82949 765.01669 197.19545 765.39419 197.77126 765.77169 291.0662 766.1492 160.97696 766.5267 216.78261 766.9042 205.29909 767.2817 148.09934 768.0367 216.63387 768.4142 190.7305 768.7917 209.55898 769.1692 164.133 769.5467 172.23163 769.9242 229.58052 770.3017 168.3654 770.6792 197.52568 771.0567 164.07444 771.4342 203.71277 771.8117 224.83086 772.1892 205.8776 772.5667 230.45055 772.9442 189.00446 773.3217 197.75315 773.6992 188.0746 774.0767 184.18611 774.4542 188.0625 774.8317 177.47293 775.2092 197.77428 775.58676 195.79254 775.96426 190.649 776.34176 173.87065 776.7193 168.76436 777.0968 174.44356 777.4743 212.44412 777.8518 184.0346 778.2293 174.29003 778.6068 179.94162 778.9843 190.72832 779.3618 197.87717 779.7393 188.43262 780.1168 184.03261 780.4943 199.06836 780.8718 193.59421 781.2493 176.87162 781.62686 176.56627 782.00436 186.03534 782.38186 171.0334 782.75936 177.17705 783.13687 201.69384 783.51437 209.1125 783.89187 209.41637 784.26937 209.20804 784.64688 176.16767 785.02438 212.32328 785.40188 184.43579 785.77938 190.3274 786.15689 143.09651 786.53439 221.39852 786.91189 148.84882 787.28939 216.05864 787.6669 161.40552 788.4219 214.0114 788.7994 148.3487 789.1769 165.2426 789.5544 194.24823 789.9319 192.56607 790.3094 219.07962 791.0644 156.06119 791.4419 220.87244 791.8194 140.73137 792.1969 238.62403 792.5744 184.16046 792.9519 198.55661 793.3294 187.63666 793.7069 181.29938 794.0844 209.19454 794.462 194.66085 794.8395 167.66962 795.217 206.58765 795.5945 196.39221 795.972 224.51465 796.3495 195.04248 796.727 190.78545 797.1045 216.67137 797.482 213.4932 797.8595 196.30709 798.237 196.83719 798.6145 197.7705 798.992 180.90499 799.3695 212.1188 799.747 194.1667 800.1245 216.42494 800.502 153.37271 800.8795 187.2141 801.257 208.48137 801.6345 196.08013 802.012 197.88426 802.3895 213.59793 802.767 200.48754 803.14456 211.97615 803.52206 180.55457 803.89956 197.84358 804.27706 197.3888 804.65457 208.4088 805.03207 225.83739 805.40957 176.81374 805.78707 172.03055 806.16458 224.96228 806.54208 184.0837 806.91958 194.15032 807.29708 269.35664 807.67459 157.9273 808.05209 210.15189 808.42959 197.7187 808.80709 180.98113 809.1846 212.99127 809.9396 174.8127 810.3171 177.7547 810.6946 170.83878 811.0721 243.81267 811.4496 175.52542 811.8271 233.89115 812.20468 198.5781 812.58218 185.3814 812.95968 209.65863 813.33718 177.09876 813.71469 205.41584 814.09219 207.523 814.46969 189.76676 814.84719 163.81168 815.2247 174.69037 815.6022 136.0349 815.9797 166.98184 816.3572 233.74887 816.7347 171.1727 817.1122 166.28328 817.4897 197.59526 817.8672 164.73619 818.2447 220.04907 818.6222 210.32297 818.9997 174.19484 819.7547 214.74962 820.1322 218.70403 820.8872 132.41069 821.2647 187.99584 821.6422 187.31111 822.0197 174.24135 822.3972 197.98928 822.7747 158.73203 823.1522 204.95218 823.5297 198.03624 823.9072 195.92938 824.2847 194.54102 824.66226 184.36928 825.03976 188.05677 825.41726 196.02481 825.79476 169.97402 826.17227 167.00254 826.54977 193.12392 826.92727 234.40558 827.30477 186.05109 827.68228 202.86856 828.05978 187.07363 828.43728 185.03592 828.81478 191.47696 829.19229 228.19245 829.5698 212.23368 829.9473 183.97447 830.3248 226.29457 830.70236 198.54294 831.07986 180.22589 831.45736 174.31032 831.83486 201.41516 832.21237 158.72109 832.58987 184.48493 832.96737 198.29334 833.34487 187.60332 833.72238 186.16626 834.09988 212.44 834.47738 158.34221 834.85488 172.9872 835.23239 192.39646 835.60989 195.20467 835.98739 224.03493 836.36489 176.51697 836.7424 187.56305 837.1199 184.07392 837.4974 186.73111 837.8749 217.47724 838.6299 173.76433 839.0074 219.27704 839.3849 173.18665 839.7624 182.7707 840.1399 182.66674 840.5174 201.92247 840.8949 194.2321 841.2724 166.69026 842.0274 250.67133 842.4049 177.18735 842.7824 204.93958 843.1599 162.14434 843.5374 184.49723 843.9149 184.47226 844.2924 191.56755 844.6699 165.695 845.0474 178.64324 845.4249 208.07668 845.8024 141.38808 846.17996 184.13919 846.55746 202.13076 846.93496 191.12248 847.3125 205.49868 847.69 200.05759 848.0675 186.03977 848.445 180.8972 848.8225 185.90972 849.2 218.27214 849.5775 211.05944 849.955 192.1104"/>
</g>
<path transform="matrix(1,0,0,-1,0,568.53189)" stroke-width=".8" stroke-linecap="square" stroke-miterlimit="10" stroke-linejoin="miter" fill="none" stroke="#888888" d="M95.325 42.903127V530.3631"/>
<path transform="matrix(1,0,0,-1,0,568.53189)" stroke-width=".8" stroke-linecap="square" stroke-miterlimit="10" stroke-linejoin="miter" fill="none" stroke="#888888" d="M95.325 42.903127H850.3325"/>
<use data-text="P" xlink:href="#font_1_80" transform="matrix(32,0,0,-32,410.57093,31.512513)"/>
<use data-text="G" xlink:href="#font_1_71" transform="matrix(32,0,0,-32,429.8669,31.512513)"/>
<use data-text=" " xlink:href="#font_1_32" transform="matrix(32,0,0,-32,454.66694,31.512513)"/>
<use data-text="L" xlink:href="#font_1_76" transform="matrix(32,0,0,-32,464.84294,31.512513)"/>
<use data-text="o" xlink:href="#font_1_111" transform="matrix(32,0,0,-32,482.10444,31.512513)"/>
<use data-text="s" xlink:href="#font_1_115" transform="matrix(32,0,0,-32,501.68843,31.512513)"/>
<use data-text="s" xlink:href="#font_1_115" transform="matrix(32,0,0,-32,518.3604,31.512513)"/>
<use data-text="S" xlink:href="#font_1_83" transform="matrix(28,0,0,-28,790.9387,516.4153)"/>
<use data-text="t" xlink:href="#font_1_116" transform="matrix(28,0,0,-28,808.71878,516.4153)"/>
<use data-text="e" xlink:href="#font_1_101" transform="matrix(28,0,0,-28,819.6947,516.4153)"/>
<use data-text="p" xlink:href="#font_1_112" transform="matrix(28,0,0,-28,836.91476,516.4153)"/>
</svg>
