<svg xmlns="http://www.w3.org/2000/svg" xmlns:xlink="http://www.w3.org/1999/xlink" version="1.1" width="288pt" height="180pt" viewBox="0 0 288 180">
<defs>
<clipPath id="clip_0">
<path transform="matrix(1,0,0,-1,0,180)" d="M18.36 21.756H260.1V160.76532H18.36Z"/>
</clipPath>
<clipPath id="clip_1">
<path transform="matrix(1,0,0,-1,0,180)" d="M18.36 21.756H260.1V160.76532H18.36Z"/>
</clipPath>
<clipPath id="clip_2">
<path transform="matrix(1,0,0,-1,0,180)" d="M18.36 21.756H260.1V160.76532H18.36Z"/>
</clipPath>
<g id="font_3_49">
<path transform="matrix(.001,0,0,.001,0,0)" d="M124 83H285V639L110 604V694L284 729H383V83H544V0H124V83Z"/>
</g>
<g id="font_3_48">
<path transform="matrix(.001,0,0,.001,0,0)" d="M318 664C267 664 229 639 203 589 177 539 165 464 165 364 165 264 177 189 203 139 229 89 267 64 318 64 369 64 407 89 433 139 458 189 471 264 471 364 471 464 458 539 433 589 407 639 369 664 318 664ZM318 742C399 742 461 709 505 645 548 580 570 486 570 364 570 241 548 147 505 83 461 19 399-13 317-13 235-13 173 19 130 83 87 147 66 241 66 364 66 486 87 580 130 645 173 709 236 742 318 742Z"/>
</g>
<g id="font_3_50">
<path transform="matrix(.001,0,0,.001,0,0)" d="M192 83H536V0H73V83C110 121 161 173 226 239 290 304 331 346 348 365 380 400 402 430 414 455 426 479 433 504 433 528 433 566 419 598 392 622 365 646 330 659 286 659 255 659 222 653 188 643 154 632 117 616 78 594V694C118 710 155 722 189 730 223 738 255 742 284 742 359 742 419 723 464 685 509 647 532 597 532 534 532 504 526 475 515 449 504 422 484 390 454 354 446 344 420 317 376 272 332 227 271 164 192 83Z"/>
</g>
<g id="font_3_51">
<path transform="matrix(.001,0,0,.001,0,0)" d="M406 393C453 383 490 362 516 330 542 298 556 258 556 212 556 140 531 84 482 45 432 6 362-13 271-13 240-13 208-10 176-4 144 1 110 10 76 22V117C103 101 133 89 166 81 198 73 232 69 268 69 330 69 377 81 409 105 441 129 458 165 458 212 458 254 443 288 413 312 383 336 341 349 287 349H202V430H291C339 430 376 439 402 459 428 478 441 506 441 543 441 580 427 609 401 629 374 649 336 659 287 659 260 659 231 656 200 650 169 644 135 635 98 623V711C135 721 170 729 203 734 235 739 266 742 296 742 370 742 429 725 473 691 517 657 539 611 539 553 539 513 527 479 504 451 481 423 448 403 406 393Z"/>
</g>
<g id="font_3_52">
<path transform="matrix(.001,0,0,.001,0,0)" d="M378 643 129 254H378V643ZM352 729H476V254H580V172H476V0H378V172H49V267L352 729Z"/>
</g>
<g id="font_3_53">
<path transform="matrix(.001,0,0,.001,0,0)" d="M108 729H495V646H198V467C212 472 227 476 241 478 255 480 270 482 284 482 365 482 429 459 477 415 525 370 549 310 549 234 549 155 524 94 475 51 426 8 357-13 269-13 238-13 207-10 175-6 143-1 111 6 77 17V116C106 100 136 88 168 80 199 72 232 69 267 69 323 69 368 83 401 113 433 143 450 183 450 234 450 284 433 324 401 354 368 384 323 399 267 399 241 399 214 396 188 390 162 384 135 375 108 363V729Z"/>
</g>
<clipPath id="clip_4">
<path transform="matrix(1,0,0,-1,0,180)" d="M18.36 21.756H260.1V160.76532H18.36Z"/>
</clipPath>
<clipPath id="clip_5">
<path transform="matrix(1,0,0,-1,0,180)" d="M18.36 21.756H260.1V160.76532H18.36Z"/>
</clipPath>
<clipPath id="clip_6">
<path transform="matrix(1,0,0,-1,0,180)" d="M18.36 21.756H260.1V160.76532H18.36Z"/>
</clipPath>
<g id="font_3_114">
<path transform="matrix(.001,0,0,.001,0,0)" d="M411 463C401 469 390 473 378 476 366 478 353 480 339 480 288 480 249 463 222 430 194 397 181 350 181 288V0H91V547H181V462C199 495 224 520 254 536 284 552 321 560 365 560 371 560 378 559 386 559 393 558 401 557 411 555V463Z"/>
</g>
<g id="font_3_32">
</g>
<g id="font_3_61">
<path transform="matrix(.001,0,0,.001,0,0)" d="M106 454H732V372H106V454ZM106 255H732V172H106V255Z"/>
</g>
<g id="font_3_46">
<path transform="matrix(.001,0,0,.001,0,0)" d="M107 124H210V0H107V124Z"/>
</g>
<g id="font_3_44">
<path transform="matrix(.001,0,0,.001,0,0)" d="M117 124H220V40L140-115H77L117 40V124Z"/>
</g>
<g id="font_3_100">
<path transform="matrix(.001,0,0,.001,0,0)" d="M454 464V760H544V0H454V82C435 49 411 25 382 10 353-5 319-13 279-13 213-13 159 13 117 65 75 117 55 187 55 273 55 359 75 428 117 481 159 533 213 560 279 560 319 560 353 552 382 536 411 520 435 496 454 464ZM148 273C148 207 161 155 188 117 215 79 252 61 300 61 348 61 385 79 413 117 440 155 454 207 454 273 454 339 440 390 413 428 385 466 348 485 300 485 252 485 215 466 188 428 161 390 148 339 148 273Z"/>
</g>
<g id="font_3_101">
<path transform="matrix(.001,0,0,.001,0,0)" d="M562 296V252H149C153 190 171 142 205 110 238 78 284 62 344 62 378 62 412 66 444 74 476 82 509 95 541 113V28C509 14 476 3 442-3 408-9 373-13 339-13 251-13 182 12 131 62 80 112 55 181 55 268 55 357 79 428 127 481 175 533 241 560 323 560 397 560 455 536 498 489 540 441 562 377 562 296ZM472 322C471 371 457 410 431 440 404 469 368 484 324 484 274 484 234 469 204 441 174 413 156 373 152 322H472Z"/>
</g>
<g id="font_3_112">
<path transform="matrix(.001,0,0,.001,0,0)" d="M181 82V-207H91V547H181V464C199 496 223 520 252 536 281 552 316 560 356 560 422 560 476 533 518 481 559 428 580 359 580 273 580 187 559 117 518 65 476 13 422-13 356-13 316-13 281-5 252 10 223 25 199 49 181 82ZM487 273C487 339 473 390 446 428 418 466 381 485 334 485 286 485 249 466 222 428 194 390 181 339 181 273 181 207 194 155 222 117 249 79 286 61 334 61 381 61 418 79 446 117 473 155 487 207 487 273Z"/>
</g>
<g id="font_3_116">
<path transform="matrix(.001,0,0,.001,0,0)" d="M183 702V547H368V477H183V180C183 135 189 106 201 94 213 81 238 75 276 75H368V0H276C206 0 158 13 132 39 106 65 93 112 93 180V477H27V547H93V702H183Z"/>
</g>
<g id="font_3_104">
<path transform="matrix(.001,0,0,.001,0,0)" d="M549 330V0H459V327C459 379 448 417 428 443 408 469 378 482 338 482 289 482 251 466 223 435 195 404 181 362 181 309V0H91V760H181V462C202 494 227 519 257 535 286 551 320 560 358 560 420 560 468 540 500 501 532 462 549 405 549 330Z"/>
</g>
<g id="font_3_97">
<path transform="matrix(.001,0,0,.001,0,0)" d="M343 275C270 275 220 266 192 250 164 233 150 205 150 165 150 133 160 107 181 89 202 70 231 61 267 61 317 61 357 78 387 114 417 149 432 196 432 255V275H343ZM522 312V0H432V83C411 49 385 25 355 10 325-5 287-13 243-13 187-13 142 2 109 33 76 64 60 106 60 159 60 220 80 266 122 298 163 329 224 345 306 345H432V354C432 395 418 427 391 450 364 472 326 484 277 484 245 484 215 480 185 472 155 464 127 453 100 439V522C132 534 164 544 195 550 226 556 256 560 286 560 365 560 424 539 463 498 502 457 522 395 522 312Z"/>
</g>
<g id="font_3_105">
<path transform="matrix(.001,0,0,.001,0,0)" d="M94 547H184V0H94V547ZM94 760H184V646H94V760Z"/>
</g>
<g id="font_3_110">
<path transform="matrix(.001,0,0,.001,0,0)" d="M549 330V0H459V327C459 379 448 417 428 443 408 469 378 482 338 482 289 482 251 466 223 435 195 404 181 362 181 309V0H91V547H181V462C202 494 227 519 257 535 286 551 320 560 358 560 420 560 468 540 500 501 532 462 549 405 549 330Z"/>
</g>
<g id="font_3_115">
<path transform="matrix(.001,0,0,.001,0,0)" d="M443 531V446C417 458 391 468 364 475 336 481 308 485 279 485 234 485 200 478 178 464 156 450 145 430 145 403 145 382 153 366 169 354 185 342 217 330 265 320L296 313C360 299 405 279 432 255 458 230 472 195 472 151 472 100 452 60 412 31 372 1 316-13 246-13 216-13 186-10 154-5 122 0 89 8 54 20V113C87 95 120 82 152 74 184 65 216 61 248 61 290 61 323 68 346 82 368 96 380 117 380 144 380 168 371 187 355 200 339 213 303 226 247 238L216 245C160 257 119 275 95 299 70 323 58 356 58 399 58 450 76 490 112 518 148 546 200 560 268 560 301 560 332 557 362 552 391 547 418 540 443 531Z"/>
</g>
<g id="font_3_111">
<path transform="matrix(.001,0,0,.001,0,0)" d="M306 484C258 484 220 465 192 427 164 389 150 338 150 273 150 207 163 156 191 118 219 80 257 62 306 62 354 62 392 80 420 118 448 156 462 207 462 273 462 337 448 389 420 427 392 465 354 484 306 484ZM306 560C384 560 445 534 490 484 534 433 557 363 557 273 557 183 534 113 490 63 445 12 384-13 306-13 227-13 165 12 121 63 77 113 55 183 55 273 55 363 77 433 121 484 165 534 227 560 306 560Z"/>
</g>
<g id="font_3_109">
<path transform="matrix(.001,0,0,.001,0,0)" d="M520 442C542 482 569 511 600 531 631 550 668 560 711 560 767 560 811 540 842 500 873 460 889 403 889 330V0H799V327C799 379 789 418 771 444 752 469 724 482 686 482 639 482 602 466 575 435 548 404 535 362 535 309V0H445V327C445 379 435 418 417 444 398 469 369 482 331 482 285 482 248 466 221 435 194 404 181 362 181 309V0H91V547H181V462C201 495 226 520 255 536 283 552 317 560 357 560 397 560 430 550 458 530 486 510 506 480 520 442Z"/>
</g>
<g id="font_3_54">
<path transform="matrix(.001,0,0,.001,0,0)" d="M330 404C286 404 251 388 225 358 199 328 186 286 186 234 186 181 199 139 225 109 251 79 286 64 330 64 374 64 409 79 435 109 461 139 474 181 474 234 474 286 461 328 435 358 409 388 374 404 330 404ZM526 713V623C501 635 476 644 451 650 425 656 400 659 376 659 310 659 260 637 226 593 192 549 172 482 168 394 187 422 211 444 240 459 269 474 301 482 336 482 409 482 467 459 509 415 551 371 573 310 573 234 573 159 550 99 506 54 462 9 403-13 330-13 246-13 181 19 137 83 92 147 70 241 70 364 70 479 97 571 152 639 206 707 280 742 372 742 396 742 421 739 447 735 472 730 498 723 526 713Z"/>
</g>
<g id="font_3_56">
<path transform="matrix(.001,0,0,.001,0,0)" d="M318 346C271 346 234 333 207 308 180 283 167 249 167 205 167 161 180 126 207 101 234 76 271 64 318 64 364 64 401 76 428 102 455 127 469 161 469 205 469 249 455 283 429 308 402 333 365 346 318 346ZM219 388C177 398 144 418 120 447 96 476 85 511 85 553 85 611 105 657 147 691 188 725 245 742 318 742 390 742 447 725 489 691 530 657 551 611 551 553 551 511 539 476 515 447 491 418 459 398 417 388 464 377 501 355 528 323 554 291 568 251 568 205 568 134 546 80 503 43 459 5 397-13 317-13 237-13 175 5 132 43 89 80 68 134 68 205 68 251 81 291 108 323 134 355 171 377 219 388ZM183 544C183 506 194 476 218 455 242 434 275 424 318 424 360 424 393 434 417 455 441 476 453 506 453 544 453 582 441 611 417 632 393 653 360 664 318 664 275 664 242 653 218 632 194 611 183 582 183 544Z"/>
</g>
<clipPath id="clip_7">
<path transform="matrix(1,0,0,-1,0,180)" d="M18.36 21.756H260.1V160.76532H18.36Z"/>
</clipPath>
<clipPath id="clip_8">
<path transform="matrix(1,0,0,-1,0,180)" d="M18.36 21.756H260.1V160.76532H18.36Z"/>
</clipPath>
</defs>
<path transform="matrix(1,0,0,-1,0,180)" d="M0 0H288V180H0Z" fill="#ffffff"/>
<path transform="matrix(1,0,0,-1,0,180)" d="M18.36 21.756H260.1V160.76532H18.36Z" fill="#ffffff"/>
<g clip-path="url(#clip_0)">
<g>
<path transform="matrix(1,0,0,-1,0,180)" d="M18.36 40.417905V37.509706L32.86053 37.039495 41.342798 36.694669 47.36106 38.01173 52.029188 35.920869 55.843328 37.288389 59.068136 37.02446 61.86159 36.367696 64.32559 36.1347 66.52972 36.67551 68.52359 36.306135 70.34386 36.77199 72.01834 36.667306 73.568668 36.411035 75.011989 37.230009 76.36212 36.855527 77.63038 36.398958 78.826129 36.729837 79.9572 36.073858 81.03025 36.913629 82.050937 36.526975 83.024127 36.99553 83.95405 36.12438 84.84438 36.335424 85.69838 36.95249 86.51887 36.839765 87.30839 35.69531 88.0692 35.810087 88.8033 36.059366 89.51251 36.43384 90.19847 36.11865 96.04734 36.201955 100.613178 36.93943 104.35883 36.721967 107.53459 37.460027 110.29118 36.743577 112.72647 37.215837 114.90759 36.116174 116.88263 36.90065 118.68719 37.066869 120.348369 36.575796 121.88728 38.098615 154.42868 53.57185 168.91356 75.88849 177.3906 97.76759 183.40625 127.21054 188.0728 141.19217 191.8859 145.25244 195.10996 72.75269 197.90287 96.782398 200.36643 73.45458 202.5702 74.33642 204.5638 84.43197 206.38382 77.05445 208.05809 82.41493 209.60825 81.56393 211.05142 75.00508 212.40143 80.94143 213.66957 75.76097 214.86522 71.50732 215.9962 69.73297 217.06917 79.71685 218.08977 75.14359 219.0629 84.200748 219.99275 61.759553 220.88304 79.8246 221.73699 81.63823 222.55742 80.53848 223.3469 79.698429 224.10767 65.771999 224.84172 76.34312 225.5509 75.706188 226.23683 78.05527 226.90097 74.555919 227.5447 71.212078 228.16918 80.31324 228.77556 84.65099 229.36487 81.78745 229.93804 74.908069 230.4959 67.40946 231.03929 78.420269 231.56891 77.43108 232.08545 78.91236 232.58956 75.296588 233.08179 68.01548 233.56272 70.393169 234.03282 68.41764 234.4926 77.8619 234.94249 74.52744 235.38292 65.99678 235.81426 66.37151 236.23688 64.99499 236.65114 73.42446 237.05735 72.68212 237.45583 77.24442 237.84685 69.83701 238.2307 64.902919 238.60764 76.02066 238.97789 75.455379 239.34172 76.98902 239.69933 70.06574 240.05092 66.510189 240.3967 73.88194 240.73686 74.930019 241.07158 77.578479 241.40102 76.00795 241.72536 70.87793 242.04474 79.29 242.35933 74.56671 242.66925 77.978679 242.97464 77.50824 243.27565 75.175739 243.57239 79.73751 243.86496 79.63176 244.15352 83.17086 244.43814 83.375629 244.71894 79.78077 244.99602 84.32004 245.26949 82.02026 245.53942 82.96617 245.80591 83.16346 246.06905 79.621997 246.32892 84.09423 246.5856 81.452327 246.83917 81.97467 247.0897 85.445079 247.33728 81.08297 247.58196 87.5797 247.8238 83.844478 248.06288 83.23901 248.29927 86.85823 248.533 79.19656 248.76416 87.006679 248.9928 83.055889 249.21895 85.46028 249.44269 87.4656 249.66407 81.124568 249.88312 87.97903 250.0999 81.23144 250.31447 82.81256 250.52686 88.22157 250.73709 81.11296 250.94525 87.39774 251.15135 78.87121 251.35546 82.59171 251.55757 85.97463 251.75777 81.96711 251.95606 87.902599 252.15248 81.632167 252.34709 81.68089 252.5399 86.74381 252.73094 80.5458 252.92026 86.083728 253.10788 79.078128 253.29384 81.947078 253.47815 85.32583 253.66086 79.141948 253.84198 86.42085 254.02155 81.64972 254.19959 80.32425 254.37613 87.21264 254.55118 79.23872 254.7248 83.74953 254.89698 82.25597 255.06775 81.43397 255.23714 88.4085 255.40517 80.48993 255.57186 80.37102 255.73723 81.306179 255.9013 80.89863 256.0641 84.488498 256.22566 81.721309 256.38597 84.59564 256.54505 79.4618 256.7029 80.21619 256.85963 87.90095 257.01518 79.70379 257.16957 84.173999 257.3228 81.00583 257.47496 81.06292 257.62599 87.68486 257.77595 80.065769 257.92485 85.728199 258.0727 82.50467 258.21949 80.80951 258.36528 83.045 258.51005 77.41665 258.65385 83.238819 258.79664 80.703968 258.93846 79.54535 259.0793 84.0218V91.181339L258.93846 86.13322 258.79664 87.524898 258.65385 90.507 258.51005 84.25431 258.36528 90.28445 258.21949 87.73163 258.0727 89.57565 257.92485 92.85799 257.77595 86.70578 257.62599 95.06506 257.47496 88.20688 257.3228 87.89964 257.16957 91.54961 257.01518 86.547298 256.85963 95.2133 256.7029 87.179927 256.54505 86.11267 256.38597 91.90866 256.22566 88.32919 256.0641 91.44329 255.9013 87.64251 255.73723 88.17181 255.57186 87.18124 255.40517 87.114368 255.23714 95.902828 255.06775 87.991977 254.89698 89.043659 254.7248 91.29746 254.55118 85.71118 254.37613 94.28816 254.19959 86.967769 254.02155 88.60896 253.84198 93.41445 253.66086 85.80797 253.47815 92.3235 253.29384 88.78003 253.10788 85.61155 252.92026 93.17906 252.73094 87.42283 252.5399 93.7681 252.34709 88.369609 252.15248 88.26219 251.95606 95.3678 251.75777 88.60386 251.55757 93.3402 251.35546 89.54066 251.15135 85.24595 250.94525 94.93581 250.73709 87.84455 250.52686 95.725429 250.31447 89.52799 250.0999 87.67403 249.88312 95.551609 249.66407 87.93704 249.44269 94.81591 249.21895 92.44929 248.9928 89.70105 248.76416 94.9105 248.533 86.01358 248.29927 93.91392 248.06288 90.454769 247.8238 90.47386 247.58196 94.962039 247.33728 87.71841 247.0897 92.25631 246.83917 88.960628 246.5856 87.92156 246.32892 91.265048 246.06905 86.004528 245.80591 89.905757 245.53942 89.89485 245.26949 88.75889 244.99602 91.61175 244.71894 86.15803 244.43814 90.31815 244.15352 90.314739 243.86496 86.41113 243.57239 86.35743 243.27565 81.55077 242.97464 84.16272 242.66925 84.733219 242.35933 81.01477 242.04474 86.23242 241.72536 76.79243 241.40102 82.38406 241.07158 84.560909 240.73686 81.32807 240.3967 80.034038 240.05092 72.31221 239.69933 76.14731 239.34172 84.10942 238.97789 81.7916 238.60764 82.42339 238.2307 70.53644 237.84685 76.0117 237.45583 84.530628 237.05735 79.04789 236.65114 79.50263 236.23688 70.496417 235.81426 72.45089 235.38292 71.99287 234.94249 80.84585 234.4926 84.12134 234.03282 74.20418 233.56272 76.4965 233.08179 74.08587 232.58956 81.638118 232.08545 85.30889 231.56891 84.239879 231.03929 84.96824 230.4959 73.07844 229.93804 81.40207 229.36487 88.41918 228.77556 91.90536 228.16918 87.13491 227.5447 76.874668 226.90097 80.817378 226.23683 84.34435 225.5509 82.42559 224.84172 83.03778 224.10767 71.593097 223.3469 85.98014 222.55742 86.80558 221.73699 88.56841 220.88304 86.1142 219.99275 67.278049 219.0629 91.10648 218.08977 81.58292 217.06917 86.0658 215.9962 75.75143 214.86522 78.03673 213.66957 82.00647 212.40143 87.54767 211.05142 81.253009 209.60825 88.07019 208.05809 89.61335 206.38382 83.41943 204.5638 91.0314 202.5702 80.10004 200.36643 80.201168 197.90287 103.871639 195.10996 78.92527 191.8859 154.44672 188.0728 150.59587 183.40625 136.78449 177.3906 106.009258 168.91356 82.45147 154.42868 58.342336 121.88728 41.078115 120.348369 39.269937 118.68719 39.97594 116.88263 39.673738 114.90759 38.792718 112.72647 40.139257 110.29118 39.622625 107.53459 40.31144 104.35883 39.644235 100.613178 39.687005 96.04734 39.019216 90.19847 38.842287 89.51251 39.151659 88.8033 38.693387 88.0692 38.630384 87.30839 38.276739 86.51887 39.682577 85.69838 39.778039 84.84438 38.88575 83.95405 38.732465 83.024127 39.89114 82.050937 39.266714 81.03025 39.66076 79.9572 38.782987 78.826129 39.480226 77.63038 39.082448 76.36212 39.61477 75.011989 39.96894 73.568668 39.226514 72.01834 39.594804 70.34386 39.490118 68.52359 38.96708 66.52972 39.37841 64.32559 38.982378 61.86159 39.009618 59.068136 39.914258 55.843328 40.11875 52.029188 38.571649 47.36106 41.00886 41.342798 39.4113 32.86053 39.847177 18.36 40.417905Z" fill="#006428" fill-opacity=".1"/>
<path transform="matrix(1,0,0,-1,0,180)" stroke-width="1" stroke-linecap="butt" stroke-linejoin="round" fill="none" stroke="#006428" stroke-opacity=".1" d="M18.36 40.417905V37.509706L32.86053 37.039495 41.342798 36.694669 47.36106 38.01173 52.029188 35.920869 55.843328 37.288389 59.068136 37.02446 61.86159 36.367696 64.32559 36.1347 66.52972 36.67551 68.52359 36.306135 70.34386 36.77199 72.01834 36.667306 73.568668 36.411035 75.011989 37.230009 76.36212 36.855527 77.63038 36.398958 78.826129 36.729837 79.9572 36.073858 81.03025 36.913629 82.050937 36.526975 83.024127 36.99553 83.95405 36.12438 84.84438 36.335424 85.69838 36.95249 86.51887 36.839765 87.30839 35.69531 88.0692 35.810087 88.8033 36.059366 89.51251 36.43384 90.19847 36.11865 96.04734 36.201955 100.613178 36.93943 104.35883 36.721967 107.53459 37.460027 110.29118 36.743577 112.72647 37.215837 114.90759 36.116174 116.88263 36.90065 118.68719 37.066869 120.348369 36.575796 121.88728 38.098615 154.42868 53.57185 168.91356 75.88849 177.3906 97.76759 183.40625 127.21054 188.0728 141.19217 191.8859 145.25244 195.10996 72.75269 197.90287 96.782398 200.36643 73.45458 202.5702 74.33642 204.5638 84.43197 206.38382 77.05445 208.05809 82.41493 209.60825 81.56393 211.05142 75.00508 212.40143 80.94143 213.66957 75.76097 214.86522 71.50732 215.9962 69.73297 217.06917 79.71685 218.08977 75.14359 219.0629 84.200748 219.99275 61.759553 220.88304 79.8246 221.73699 81.63823 222.55742 80.53848 223.3469 79.698429 224.10767 65.771999 224.84172 76.34312 225.5509 75.706188 226.23683 78.05527 226.90097 74.555919 227.5447 71.212078 228.16918 80.31324 228.77556 84.65099 229.36487 81.78745 229.93804 74.908069 230.4959 67.40946 231.03929 78.420269 231.56891 77.43108 232.08545 78.91236 232.58956 75.296588 233.08179 68.01548 233.56272 70.393169 234.03282 68.41764 234.4926 77.8619 234.94249 74.52744 235.38292 65.99678 235.81426 66.37151 236.23688 64.99499 236.65114 73.42446 237.05735 72.68212 237.45583 77.24442 237.84685 69.83701 238.2307 64.902919 238.60764 76.02066 238.97789 75.455379 239.34172 76.98902 239.69933 70.06574 240.05092 66.510189 240.3967 73.88194 240.73686 74.930019 241.07158 77.578479 241.40102 76.00795 241.72536 70.87793 242.04474 79.29 242.35933 74.56671 242.66925 77.978679 242.97464 77.50824 243.27565 75.175739 243.57239 79.73751 243.86496 79.63176 244.15352 83.17086 244.43814 83.375629 244.71894 79.78077 244.99602 84.32004 245.26949 82.02026 245.53942 82.96617 245.80591 83.16346 246.06905 79.621997 246.32892 84.09423 246.5856 81.452327 246.83917 81.97467 247.0897 85.445079 247.33728 81.08297 247.58196 87.5797 247.8238 83.844478 248.06288 83.23901 248.29927 86.85823 248.533 79.19656 248.76416 87.006679 248.9928 83.055889 249.21895 85.46028 249.44269 87.4656 249.66407 81.124568 249.88312 87.97903 250.0999 81.23144 250.31447 82.81256 250.52686 88.22157 250.73709 81.11296 250.94525 87.39774 251.15135 78.87121 251.35546 82.59171 251.55757 85.97463 251.75777 81.96711 251.95606 87.902599 252.15248 81.632167 252.34709 81.68089 252.5399 86.74381 252.73094 80.5458 252.92026 86.083728 253.10788 79.078128 253.29384 81.947078 253.47815 85.32583 253.66086 79.141948 253.84198 86.42085 254.02155 81.64972 254.19959 80.32425 254.37613 87.21264 254.55118 79.23872 254.7248 83.74953 254.89698 82.25597 255.06775 81.43397 255.23714 88.4085 255.40517 80.48993 255.57186 80.37102 255.73723 81.306179 255.9013 80.89863 256.0641 84.488498 256.22566 81.721309 256.38597 84.59564 256.54505 79.4618 256.7029 80.21619 256.85963 87.90095 257.01518 79.70379 257.16957 84.173999 257.3228 81.00583 257.47496 81.06292 257.62599 87.68486 257.77595 80.065769 257.92485 85.728199 258.0727 82.50467 258.21949 80.80951 258.36528 83.045 258.51005 77.41665 258.65385 83.238819 258.79664 80.703968 258.93846 79.54535 259.0793 84.0218V91.181339L258.93846 86.13322 258.79664 87.524898 258.65385 90.507 258.51005 84.25431 258.36528 90.28445 258.21949 87.73163 258.0727 89.57565 257.92485 92.85799 257.77595 86.70578 257.62599 95.06506 257.47496 88.20688 257.3228 87.89964 257.16957 91.54961 257.01518 86.547298 256.85963 95.2133 256.7029 87.179927 256.54505 86.11267 256.38597 91.90866 256.22566 88.32919 256.0641 91.44329 255.9013 87.64251 255.73723 88.17181 255.57186 87.18124 255.40517 87.114368 255.23714 95.902828 255.06775 87.991977 254.89698 89.043659 254.7248 91.29746 254.55118 85.71118 254.37613 94.28816 254.19959 86.967769 254.02155 88.60896 253.84198 93.41445 253.66086 85.80797 253.47815 92.3235 253.29384 88.78003 253.10788 85.61155 252.92026 93.17906 252.73094 87.42283 252.5399 93.7681 252.34709 88.369609 252.15248 88.26219 251.95606 95.3678 251.75777 88.60386 251.55757 93.3402 251.35546 89.54066 251.15135 85.24595 250.94525 94.93581 250.73709 87.84455 250.52686 95.725429 250.31447 89.52799 250.0999 87.67403 249.88312 95.551609 249.66407 87.93704 249.44269 94.81591 249.21895 92.44929 248.9928 89.70105 248.76416 94.9105 248.533 86.01358 248.29927 93.91392 248.06288 90.454769 247.8238 90.47386 247.58196 94.962039 247.33728 87.71841 247.0897 92.25631 246.83917 88.960628 246.5856 87.92156 246.32892 91.265048 246.06905 86.004528 245.80591 89.905757 245.53942 89.89485 245.26949 88.75889 244.99602 91.61175 244.71894 86.15803 244.43814 90.31815 244.15352 90.314739 243.86496 86.41113 243.57239 86.35743 243.27565 81.55077 242.97464 84.16272 242.66925 84.733219 242.35933 81.01477 242.04474 86.23242 241.72536 76.79243 241.40102 82.38406 241.07158 84.560909 240.73686 81.32807 240.3967 80.034038 240.05092 72.31221 239.69933 76.14731 239.34172 84.10942 238.97789 81.7916 238.60764 82.42339 238.2307 70.53644 237.84685 76.0117 237.45583 84.530628 237.05735 79.04789 236.65114 79.50263 236.23688 70.496417 235.81426 72.45089 235.38292 71.99287 234.94249 80.84585 234.4926 84.12134 234.03282 74.20418 233.56272 76.4965 233.08179 74.08587 232.58956 81.638118 232.08545 85.30889 231.56891 84.239879 231.03929 84.96824 230.4959 73.07844 229.93804 81.40207 229.36487 88.41918 228.77556 91.90536 228.16918 87.13491 227.5447 76.874668 226.90097 80.817378 226.23683 84.34435 225.5509 82.42559 224.84172 83.03778 224.10767 71.593097 223.3469 85.98014 222.55742 86.80558 221.73699 88.56841 220.88304 86.1142 219.99275 67.278049 219.0629 91.10648 218.08977 81.58292 217.06917 86.0658 215.9962 75.75143 214.86522 78.03673 213.66957 82.00647 212.40143 87.54767 211.05142 81.253009 209.60825 88.07019 208.05809 89.61335 206.38382 83.41943 204.5638 91.0314 202.5702 80.10004 200.36643 80.201168 197.90287 103.871639 195.10996 78.92527 191.8859 154.44672 188.0728 150.59587 183.40625 136.78449 177.3906 106.009258 168.91356 82.45147 154.42868 58.342336 121.88728 41.078115 120.348369 39.269937 118.68719 39.97594 116.88263 39.673738 114.90759 38.792718 112.72647 40.139257 110.29118 39.622625 107.53459 40.31144 104.35883 39.644235 100.613178 39.687005 96.04734 39.019216 90.19847 38.842287 89.51251 39.151659 88.8033 38.693387 88.0692 38.630384 87.30839 38.276739 86.51887 39.682577 85.69838 39.778039 84.84438 38.88575 83.95405 38.732465 83.024127 39.89114 82.050937 39.266714 81.03025 39.66076 79.9572 38.782987 78.826129 39.480226 77.63038 39.082448 76.36212 39.61477 75.011989 39.96894 73.568668 39.226514 72.01834 39.594804 70.34386 39.490118 68.52359 38.96708 66.52972 39.37841 64.32559 38.982378 61.86159 39.009618 59.068136 39.914258 55.843328 40.11875 52.029188 38.571649 47.36106 41.00886 41.342798 39.4113 32.86053 39.847177 18.36 40.417905Z"/>
</g>
</g>
<g clip-path="url(#clip_1)">
<g>
<path transform="matrix(1,0,0,-1,0,180)" d="M18.36 38.301534V37.434904L32.86053 37.7584 41.342798 37.409124 47.36106 37.294145 52.029188 37.4623 55.843328 37.595216 59.068136 37.271524 61.86159 37.581319 64.32559 37.23553 66.52972 37.0826 68.52359 37.712205 70.34386 37.306268 72.01834 37.343515 73.568668 37.506605 75.011989 37.258455 76.36212 37.379194 77.63038 37.26761 78.826129 37.044984 79.9572 37.402116 81.03025 37.461305 82.050937 37.443559 83.024127 37.06993 83.95405 36.950994 84.84438 37.333139 85.69838 36.86834 86.51887 37.15796 87.30839 37.23688 88.0692 36.79172 88.8033 37.124536 89.51251 37.106077 90.19847 37.018056 96.04734 36.822496 100.613178 36.681909 104.35883 37.034257 107.53459 36.63801 110.29118 36.945409 112.72647 36.86841 114.90759 36.500356 116.88263 36.86856 118.68719 36.899717 120.348369 36.440866 121.88728 36.956705 154.42868 37.131 168.91356 37.53073 177.3906 37.385087 183.40625 37.25111 188.0728 37.664377 191.8859 37.779745 195.10996 37.747766 197.90287 37.655366 200.36643 37.67465 202.5702 37.617673 204.5638 37.396619 206.38382 37.403467 208.05809 37.73744 209.60825 37.659494 211.05142 37.531396 212.40143 37.522298 213.66957 37.430749 214.86522 37.30471 215.9962 37.4493 217.06917 37.41218 218.08977 37.78497 219.0629 37.96044 219.99275 37.4756 220.88304 37.549707 221.73699 37.664033 222.55742 37.733827 223.3469 37.389577 224.10767 37.620416 224.84172 37.834989 225.5509 37.68936 226.23683 37.62581 226.90097 37.201623 227.5447 37.498418 228.16918 37.41021 228.77556 37.440759 229.36487 37.857114 229.93804 37.29165 230.4959 37.60852 231.03929 37.505758 231.56891 37.497667 232.08545 37.574529 232.58956 37.545789 233.08179 37.583078 233.56272 37.500215 234.03282 37.703466 234.4926 37.52992 234.94249 37.346269 235.38292 37.69185 235.81426 37.754289 236.23688 37.730978 236.65114 37.60852 237.05735 37.665803 237.45583 37.556818 237.84685 37.58572 238.2307 37.48709 238.60764 37.79697 238.97789 37.574254 239.34172 37.41249 239.69933 37.878038 240.05092 37.485673 240.3967 37.599966 240.73686 37.616575 241.07158 37.478895 241.40102 37.469598 241.72536 37.5666 242.04474 37.59289 242.35933 37.58466 242.66925 37.65913 242.97464 37.487108 243.27565 37.53404 243.57239 37.650136 243.86496 37.48063 244.15352 37.407217 244.43814 37.514455 244.71894 37.629274 244.99602 37.595857 245.26949 37.607809 245.53942 37.561967 245.80591 37.46356 246.06905 37.820699 246.32892 37.85023 246.5856 37.706678 246.83917 37.622808 247.0897 37.686506 247.33728 37.913415 247.58196 37.773107 247.8238 38.197408 248.06288 37.991907 248.29927 37.51645 248.533 37.583486 248.76416 37.615354 248.9928 37.94547 249.21895 37.77789 249.44269 37.78504 249.66407 37.798654 249.88312 37.824365 250.0999 37.73984 250.31447 37.670225 250.52686 37.686666 250.73709 37.705957 250.94525 37.62581 251.15135 37.937078 251.35546 37.95865 251.55757 37.855825 251.75777 37.906328 251.95606 37.917074 252.15248 38.03774 252.34709 38.05851 252.5399 37.644887 252.73094 37.99429 252.92026 37.677194 253.10788 37.756387 253.29384 37.943677 253.47815 37.91641 253.66086 37.96072 253.84198 38.070085 254.02155 37.94547 254.19959 37.970838 254.37613 37.995889 254.55118 37.744024 254.7248 37.978216 254.89698 37.885568 255.06775 37.838544 255.23714 37.803136 255.40517 37.938108 255.57186 37.68998 255.73723 37.78774 255.9013 37.8082 256.0641 38.044946 256.22566 37.976915 256.38597 38.098855 256.54505 38.124109 256.7029 38.067689 256.85963 38.252927 257.01518 38.048166 257.16957 38.22281 257.3228 38.10355 257.47496 37.73584 257.62599 38.26709 257.77595 37.92415 257.92485 38.145467 258.0727 38.045835 258.21949 38.08399 258.36528 38.20775 258.51005 38.286825 258.65385 38.263807 258.79664 38.355997 258.93846 38.2447 259.0793 38.432359V39.344316L258.93846 39.152029 258.79664 39.264535 258.65385 39.17456 258.51005 39.187974 258.36528 39.11611 258.21949 38.990049 258.0727 38.950136 257.92485 39.05869 257.77595 38.806379 257.62599 39.17648 257.47496 38.640768 257.3228 39.00692 257.16957 39.127077 257.01518 38.95821 256.85963 39.16462 256.7029 38.959508 256.54505 39.01759 256.38597 39.00121 256.22566 38.87332 256.0641 38.951025 255.9013 38.69853 255.73723 38.677354 255.57186 38.561719 255.40517 38.82365 255.23714 38.687978 255.06775 38.73064 254.89698 38.78771 254.7248 38.87202 254.55118 38.632589 254.37613 38.89078 254.19959 38.87419 254.02155 38.83711 253.84198 38.962316 253.66086 38.8739 253.47815 38.814119 253.29384 38.833696 253.10788 38.656656 252.92026 38.55889 252.73094 38.887174 252.5399 38.523538 252.34709 38.94787 252.15248 38.927003 251.95606 38.79784 251.75777 38.803388 251.55757 38.744588 251.35546 38.84995 251.15135 38.83509 250.94525 38.506185 250.73709 38.57697 250.52686 38.559827 250.31447 38.550249 250.0999 38.62636 249.88312 38.718797 249.66407 38.68205 249.44269 38.674844 249.21895 38.661176 248.9928 38.83711 248.76416 38.48541 248.533 38.465234 248.29927 38.381334 248.06288 38.894765 247.8238 39.110845 247.58196 38.65555 247.33728 38.806707 247.0897 38.565195 246.83917 38.50398 246.5856 38.57625 246.32892 38.739774 246.06905 38.70685 245.80591 38.33533 245.53942 38.439908 245.26949 38.492956 244.99602 38.46847 244.71894 38.513128 244.43814 38.393735 244.15352 38.277173 243.86496 38.359899 243.57239 38.52349 243.27565 38.41058 242.97464 38.358625 242.66925 38.54052 242.35933 38.45885 242.04474 38.471437 241.72536 38.440477 241.40102 38.344907 241.07158 38.34602 240.73686 38.50501 240.3967 38.479978 240.05092 38.360059 239.69933 38.75881 239.34172 38.2771 238.97789 38.443235 238.60764 38.678529 238.2307 38.36905 237.84685 38.462995 237.45583 38.424238 237.05735 38.549467 236.65114 38.48183 236.23688 38.614408 235.81426 38.648347 235.38292 38.575464 234.94249 38.223619 234.4926 38.4095 234.03282 38.574258 233.56272 38.376745 233.08179 38.465639 232.58956 38.424856 232.08545 38.453367 231.56891 38.358476 231.03929 38.386819 230.4959 38.48183 229.93804 38.158529 229.36487 38.748506 228.77556 38.316495 228.16918 38.274179 227.5447 38.388956 226.90097 38.061189 226.23683 38.506185 225.5509 38.562334 224.84172 38.718584 224.10767 38.501165 223.3469 38.25838 222.55742 38.627168 221.73699 38.535619 220.88304 38.426145 219.99275 38.359724 219.0629 38.85336 218.08977 38.669713 217.06917 38.277414 215.9962 38.328775 214.86522 38.166284 213.66957 38.295278 212.40143 38.3963 211.05142 38.413228 209.60825 38.534955 208.05809 38.613149 206.38382 38.26531 204.5638 38.261747 202.5702 38.4935 200.36643 38.55102 197.90287 38.533876 195.10996 38.628847 191.8859 38.680139 188.0728 38.54048 183.40625 38.105386 177.3906 38.273279 168.91356 38.408685 154.42868 37.991285 121.88728 37.80125 120.348369 37.270948 118.68719 37.754148 116.88263 37.70723 114.90759 37.341577 112.72647 37.722997 110.29118 37.80734 107.53459 37.474565 104.35883 37.89545 100.613178 37.529554 96.04734 37.664819 90.19847 37.86481 89.51251 37.95375 88.8033 37.97172 88.0692 37.63313 87.30839 38.098794 86.51887 38.021574 85.69838 37.71786 84.84438 38.200315 83.95405 37.796556 83.024127 37.927438 82.050937 38.3189 81.03025 38.337587 79.9572 38.266656 78.826129 37.895135 77.63038 38.12011 76.36212 38.237535 75.011989 38.12406 73.568668 38.375566 72.01834 38.21076 70.34386 38.169935 68.52359 38.596746 66.52972 37.935586 64.32559 38.10014 61.86159 38.451784 59.068136 38.131814 55.843328 38.46391 52.029188 38.331388 47.36106 38.15083 41.342798 38.28567 32.86053 38.633825 18.36 38.301534Z" fill="#9e3303" fill-opacity=".1"/>
<path transform="matrix(1,0,0,-1,0,180)" stroke-width="1" stroke-linecap="butt" stroke-linejoin="round" fill="none" stroke="#9e3303" stroke-opacity=".1" d="M18.36 38.301534V37.434904L32.86053 37.7584 41.342798 37.409124 47.36106 37.294145 52.029188 37.4623 55.843328 37.595216 59.068136 37.271524 61.86159 37.581319 64.32559 37.23553 66.52972 37.0826 68.52359 37.712205 70.34386 37.306268 72.01834 37.343515 73.568668 37.506605 75.011989 37.258455 76.36212 37.379194 77.63038 37.26761 78.826129 37.044984 79.9572 37.402116 81.03025 37.461305 82.050937 37.443559 83.024127 37.06993 83.95405 36.950994 84.84438 37.333139 85.69838 36.86834 86.51887 37.15796 87.30839 37.23688 88.0692 36.79172 88.8033 37.124536 89.51251 37.106077 90.19847 37.018056 96.04734 36.822496 100.613178 36.681909 104.35883 37.034257 107.53459 36.63801 110.29118 36.945409 112.72647 36.86841 114.90759 36.500356 116.88263 36.86856 118.68719 36.899717 120.348369 36.440866 121.88728 36.956705 154.42868 37.131 168.91356 37.53073 177.3906 37.385087 183.40625 37.25111 188.0728 37.664377 191.8859 37.779745 195.10996 37.747766 197.90287 37.655366 200.36643 37.67465 202.5702 37.617673 204.5638 37.396619 206.38382 37.403467 208.05809 37.73744 209.60825 37.659494 211.05142 37.531396 212.40143 37.522298 213.66957 37.430749 214.86522 37.30471 215.9962 37.4493 217.06917 37.41218 218.08977 37.78497 219.0629 37.96044 219.99275 37.4756 220.88304 37.549707 221.73699 37.664033 222.55742 37.733827 223.3469 37.389577 224.10767 37.620416 224.84172 37.834989 225.5509 37.68936 226.23683 37.62581 226.90097 37.201623 227.5447 37.498418 228.16918 37.41021 228.77556 37.440759 229.36487 37.857114 229.93804 37.29165 230.4959 37.60852 231.03929 37.505758 231.56891 37.497667 232.08545 37.574529 232.58956 37.545789 233.08179 37.583078 233.56272 37.500215 234.03282 37.703466 234.4926 37.52992 234.94249 37.346269 235.38292 37.69185 235.81426 37.754289 236.23688 37.730978 236.65114 37.60852 237.05735 37.665803 237.45583 37.556818 237.84685 37.58572 238.2307 37.48709 238.60764 37.79697 238.97789 37.574254 239.34172 37.41249 239.69933 37.878038 240.05092 37.485673 240.3967 37.599966 240.73686 37.616575 241.07158 37.478895 241.40102 37.469598 241.72536 37.5666 242.04474 37.59289 242.35933 37.58466 242.66925 37.65913 242.97464 37.487108 243.27565 37.53404 243.57239 37.650136 243.86496 37.48063 244.15352 37.407217 244.43814 37.514455 244.71894 37.629274 244.99602 37.595857 245.26949 37.607809 245.53942 37.561967 245.80591 37.46356 246.06905 37.820699 246.32892 37.85023 246.5856 37.706678 246.83917 37.622808 247.0897 37.686506 247.33728 37.913415 247.58196 37.773107 247.8238 38.197408 248.06288 37.991907 248.29927 37.51645 248.533 37.583486 248.76416 37.615354 248.9928 37.94547 249.21895 37.77789 249.44269 37.78504 249.66407 37.798654 249.88312 37.824365 250.0999 37.73984 250.31447 37.670225 250.52686 37.686666 250.73709 37.705957 250.94525 37.62581 251.15135 37.937078 251.35546 37.95865 251.55757 37.855825 251.75777 37.906328 251.95606 37.917074 252.15248 38.03774 252.34709 38.05851 252.5399 37.644887 252.73094 37.99429 252.92026 37.677194 253.10788 37.756387 253.29384 37.943677 253.47815 37.91641 253.66086 37.96072 253.84198 38.070085 254.02155 37.94547 254.19959 37.970838 254.37613 37.995889 254.55118 37.744024 254.7248 37.978216 254.89698 37.885568 255.06775 37.838544 255.23714 37.803136 255.40517 37.938108 255.57186 37.68998 255.73723 37.78774 255.9013 37.8082 256.0641 38.044946 256.22566 37.976915 256.38597 38.098855 256.54505 38.124109 256.7029 38.067689 256.85963 38.252927 257.01518 38.048166 257.16957 38.22281 257.3228 38.10355 257.47496 37.73584 257.62599 38.26709 257.77595 37.92415 257.92485 38.145467 258.0727 38.045835 258.21949 38.08399 258.36528 38.20775 258.51005 38.286825 258.65385 38.263807 258.79664 38.355997 258.93846 38.2447 259.0793 38.432359V39.344316L258.93846 39.152029 258.79664 39.264535 258.65385 39.17456 258.51005 39.187974 258.36528 39.11611 258.21949 38.990049 258.0727 38.950136 257.92485 39.05869 257.77595 38.806379 257.62599 39.17648 257.47496 38.640768 257.3228 39.00692 257.16957 39.127077 257.01518 38.95821 256.85963 39.16462 256.7029 38.959508 256.54505 39.01759 256.38597 39.00121 256.22566 38.87332 256.0641 38.951025 255.9013 38.69853 255.73723 38.677354 255.57186 38.561719 255.40517 38.82365 255.23714 38.687978 255.06775 38.73064 254.89698 38.78771 254.7248 38.87202 254.55118 38.632589 254.37613 38.89078 254.19959 38.87419 254.02155 38.83711 253.84198 38.962316 253.66086 38.8739 253.47815 38.814119 253.29384 38.833696 253.10788 38.656656 252.92026 38.55889 252.73094 38.887174 252.5399 38.523538 252.34709 38.94787 252.15248 38.927003 251.95606 38.79784 251.75777 38.803388 251.55757 38.744588 251.35546 38.84995 251.15135 38.83509 250.94525 38.506185 250.73709 38.57697 250.52686 38.559827 250.31447 38.550249 250.0999 38.62636 249.88312 38.718797 249.66407 38.68205 249.44269 38.674844 249.21895 38.661176 248.9928 38.83711 248.76416 38.48541 248.533 38.465234 248.29927 38.381334 248.06288 38.894765 247.8238 39.110845 247.58196 38.65555 247.33728 38.806707 247.0897 38.565195 246.83917 38.50398 246.5856 38.57625 246.32892 38.739774 246.06905 38.70685 245.80591 38.33533 245.53942 38.439908 245.26949 38.492956 244.99602 38.46847 244.71894 38.513128 244.43814 38.393735 244.15352 38.277173 243.86496 38.359899 243.57239 38.52349 243.27565 38.41058 242.97464 38.358625 242.66925 38.54052 242.35933 38.45885 242.04474 38.471437 241.72536 38.440477 241.40102 38.344907 241.07158 38.34602 240.73686 38.50501 240.3967 38.479978 240.05092 38.360059 239.69933 38.75881 239.34172 38.2771 238.97789 38.443235 238.60764 38.678529 238.2307 38.36905 237.84685 38.462995 237.45583 38.424238 237.05735 38.549467 236.65114 38.48183 236.23688 38.614408 235.81426 38.648347 235.38292 38.575464 234.94249 38.223619 234.4926 38.4095 234.03282 38.574258 233.56272 38.376745 233.08179 38.465639 232.58956 38.424856 232.08545 38.453367 231.56891 38.358476 231.03929 38.386819 230.4959 38.48183 229.93804 38.158529 229.36487 38.748506 228.77556 38.316495 228.16918 38.274179 227.5447 38.388956 226.90097 38.061189 226.23683 38.506185 225.5509 38.562334 224.84172 38.718584 224.10767 38.501165 223.3469 38.25838 222.55742 38.627168 221.73699 38.535619 220.88304 38.426145 219.99275 38.359724 219.0629 38.85336 218.08977 38.669713 217.06917 38.277414 215.9962 38.328775 214.86522 38.166284 213.66957 38.295278 212.40143 38.3963 211.05142 38.413228 209.60825 38.534955 208.05809 38.613149 206.38382 38.26531 204.5638 38.261747 202.5702 38.4935 200.36643 38.55102 197.90287 38.533876 195.10996 38.628847 191.8859 38.680139 188.0728 38.54048 183.40625 38.105386 177.3906 38.273279 168.91356 38.408685 154.42868 37.991285 121.88728 37.80125 120.348369 37.270948 118.68719 37.754148 116.88263 37.70723 114.90759 37.341577 112.72647 37.722997 110.29118 37.80734 107.53459 37.474565 104.35883 37.89545 100.613178 37.529554 96.04734 37.664819 90.19847 37.86481 89.51251 37.95375 88.8033 37.97172 88.0692 37.63313 87.30839 38.098794 86.51887 38.021574 85.69838 37.71786 84.84438 38.200315 83.95405 37.796556 83.024127 37.927438 82.050937 38.3189 81.03025 38.337587 79.9572 38.266656 78.826129 37.895135 77.63038 38.12011 76.36212 38.237535 75.011989 38.12406 73.568668 38.375566 72.01834 38.21076 70.34386 38.169935 68.52359 38.596746 66.52972 37.935586 64.32559 38.10014 61.86159 38.451784 59.068136 38.131814 55.843328 38.46391 52.029188 38.331388 47.36106 38.15083 41.342798 38.28567 32.86053 38.633825 18.36 38.301534Z"/>
</g>
</g>
<g clip-path="url(#clip_2)">
<g>
<path transform="matrix(1,0,0,-1,0,180)" d="M18.36 33.25234V32.616014L32.86053 32.814878 41.342798 32.657926 47.36106 32.51091 52.029188 32.53654 55.843328 32.277036 59.068136 32.50622 61.86159 32.577558 64.32559 32.31478 66.52972 32.340974 68.52359 32.345708 70.34386 32.24762 72.01834 32.259168 73.568668 32.404577 75.011989 32.26874 76.36212 32.25714 77.63038 32.24477 78.826129 32.38365 79.9572 32.06492 81.03025 32.281637 82.050937 32.04559 83.024127 32.0734 83.95405 32.01037 84.84438 32.025217 85.69838 32.263387 86.51887 32.074178 87.30839 31.90733 88.0692 32.01459 88.8033 31.930039 89.51251 31.93049 90.19847 31.783917 96.04734 31.7716 100.613178 31.704659 104.35883 31.602084 107.53459 31.563378 110.29118 31.402626 112.72647 31.475022 114.90759 31.251235 116.88263 31.348576 118.68719 31.44041 120.348369 31.25536 121.88728 31.275889 154.42868 31.29804 168.91356 31.231122 177.3906 31.110016 183.40625 31.147173 188.0728 30.998185 191.8859 31.20563 195.10996 31.15239 197.90287 31.339972 200.36643 31.234318 202.5702 31.3518 204.5638 31.065476 206.38382 30.909209 208.05809 31.20075 209.60825 31.051999 211.05142 31.044852 212.40143 31.02653 213.66957 31.023982 214.86522 30.853083 215.9962 30.903952 217.06917 30.969626 218.08977 30.879536 219.0629 30.755738 219.99275 30.768452 220.88304 30.694436 221.73699 30.587927 222.55742 30.652035 223.3469 30.823386 224.10767 30.48981 224.84172 30.608948 225.5509 30.601216 226.23683 30.47328 226.90097 30.471789 227.5447 30.282124 228.16918 30.199807 228.77556 30.102068 229.36487 30.149249 229.93804 30.2548 230.4959 30.109206 231.03929 30.042832 231.56891 29.919289 232.08545 29.836642 232.58956 30.063336 233.08179 29.965779 233.56272 29.74711 234.03282 29.933079 234.4926 29.856465 234.94249 29.946732 235.38292 30.002924 235.81426 29.73641 236.23688 29.767447 236.65114 29.708039 237.05735 29.715712 237.45583 29.741757 237.84685 29.59361 238.2307 29.580798 238.60764 29.682705 238.97789 29.724093 239.34172 29.553273 239.69933 29.436127 240.05092 29.497866 240.3967 29.402129 240.73686 29.532902 241.07158 29.348122 241.40102 29.41787 241.72536 29.3648 242.04474 29.381394 242.35933 29.202605 242.66925 29.16199 242.97464 29.220183 243.27565 29.031777 243.57239 29.215897 243.86496 29.170863 244.15352 29.052994 244.43814 28.99787 244.71894 29.104504 244.99602 28.909773 245.26949 28.98715 245.53942 28.903697 245.80591 28.837477 246.06905 28.86441 246.32892 28.83765 246.5856 28.715079 246.83917 28.657223 247.0897 28.70534 247.33728 28.842648 247.58196 28.829976 247.8238 28.66125 248.06288 28.7655 248.29927 28.592835 248.533 28.605538 248.76416 28.621396 248.9928 28.53235 249.21895 28.517706 249.44269 28.614708 249.66407 28.57738 249.88312 28.621396 250.0999 28.533776 250.31447 28.524626 250.52686 28.457005 250.73709 28.472989 250.94525 28.571352 251.15135 28.56415 251.35546 28.38366 251.55757 28.42531 251.75777 28.501936 251.95606 28.50199 252.15248 28.41646 252.34709 28.456194 252.5399 28.441565 252.73094 28.472718 252.92026 28.539544 253.10788 28.302796 253.29384 28.45782 253.47815 28.432999 253.66086 28.378434 253.84198 28.372918 254.02155 28.320603 254.19959 28.336594 254.37613 28.341547 254.55118 28.402401 254.7248 28.311835 254.89698 28.210169 255.06775 28.256108 255.23714 28.341063 255.40517 28.268174 255.57186 28.217873 255.73723 28.342339 255.9013 28.304123 256.0641 28.311549 256.22566 28.228049 256.38597 28.22242 256.54505 28.291007 256.7029 28.305178 256.85963 28.181139 257.01518 28.208884 257.16957 28.127198 257.3228 28.233874 257.47496 28.194075 257.62599 28.127198 257.77595 28.16508 257.92485 28.192208 258.0727 28.15738 258.21949 28.204247 258.36528 28.151238 258.51005 28.207699 258.65385 28.109955 258.79664 28.111193 258.93846 28.074606 259.0793 28.165736V28.464306L258.93846 28.357659 258.79664 28.399142 258.65385 28.40038 258.51005 28.510823 258.36528 28.447577 258.21949 28.503867 258.0727 28.451842 257.92485 28.489882 257.77595 28.459757 257.62599 28.41957 257.47496 28.493218 257.3228 28.536696 257.16957 28.41957 257.01518 28.509638 256.85963 28.480132 256.7029 28.62153 256.54505 28.599268 256.38597 28.522126 256.22566 28.53211 256.0641 28.625569 255.9013 28.61738 255.73723 28.662442 255.57186 28.521466 255.40517 28.57526 255.23714 28.653306 255.06775 28.561303 254.89698 28.513558 254.7248 28.625283 254.55118 28.72729 254.37613 28.658028 254.19959 28.65257 254.02155 28.637335 253.84198 28.694317 253.66086 28.69921 253.47815 28.75915 253.29384 28.786374 253.10788 28.613503 252.92026 28.876406 252.73094 28.802704 252.5399 28.771403 252.34709 28.788 252.15248 28.739254 251.95606 28.83589 251.75777 28.830739 251.55757 28.756426 251.35546 28.709599 251.15135 28.903845 250.94525 28.912259 250.73709 28.802433 250.52686 28.78719 250.31447 28.860095 250.0999 28.871764 249.88312 28.966309 249.66407 28.91664 249.44269 28.957383 249.21895 28.851403 248.9928 28.867985 248.76416 28.966309 248.533 28.945733 248.29927 28.932414 248.06288 29.129279 247.8238 29.00973 247.58196 29.200125 247.33728 29.208273 247.0897 29.064528 246.83917 29.00855 246.5856 29.070403 246.32892 29.20286 246.06905 29.233353 245.80591 29.20824 245.53942 29.27734 245.26949 29.370846 244.99602 29.286879 244.71894 29.498114 244.43814 29.380946 244.15352 29.440325 243.86496 29.561873 243.57239 29.620932 243.27565 29.425108 242.97464 29.62185 242.66925 29.560336 242.35933 29.602995 242.04474 29.798943 241.72536 29.784308 241.40102 29.840538 241.07158 29.75935 240.73686 29.96492 240.3967 29.825049 240.05092 29.932297 239.69933 29.858712 239.34172 29.986186 238.97789 30.164082 238.60764 30.122195 238.2307 30.015913 237.84685 30.029124 237.45583 30.18285 237.05735 30.172463 236.65114 30.15411 236.23688 30.219616 235.81426 30.182991 235.38292 30.468174 234.94249 30.415068 234.4926 30.312762 234.03282 30.392289 233.56272 30.19311 233.08179 30.432454 232.58956 30.53788 232.08545 30.290946 231.56891 30.38526 231.03929 30.511542 230.4959 30.590899 229.93804 30.736765 229.36487 30.628926 228.77556 30.577218 228.16918 30.677256 227.5447 30.766694 226.90097 30.96738 226.23683 30.976298 225.5509 31.113802 224.84172 31.126889 224.10767 30.9962 223.3469 31.354849 222.55742 31.167077 221.73699 31.106272 220.88304 31.20795 219.99275 31.290076 219.0629 31.276766 218.08977 31.4132 217.06917 31.505274 215.9962 31.435627 214.86522 31.387608 213.66957 31.565423 212.40143 31.56808 211.05142 31.58619 209.60825 31.594658 208.05809 31.747778 206.38382 31.440779 204.5638 31.61241 202.5702 31.903805 200.36643 31.787074 197.90287 31.905222 195.10996 31.707657 191.8859 31.75851 188.0728 31.539172 183.40625 31.697262 177.3906 31.651143 168.91356 31.785067 154.42868 31.858674 121.88728 31.833983 120.348369 31.80767 118.68719 32.002565 116.88263 31.912232 114.90759 31.801386 112.72647 32.040815 110.29118 31.96748 107.53459 32.129419 104.35883 32.17919 100.613178 32.29001 96.04734 32.353185 90.19847 32.366895 89.51251 32.527395 88.8033 32.52264 88.0692 32.615049 87.30839 32.49851 86.51887 32.67517 85.69838 32.886724 84.84438 32.635656 83.95405 32.603658 83.024127 32.68636 82.050937 32.646509 81.03025 32.8997 79.9572 32.67402 78.826129 33.005876 77.63038 32.8637 76.36212 32.877355 75.011989 32.881368 73.568668 33.026586 72.01834 32.875326 70.34386 32.866056 68.52359 32.96054 66.52972 32.96007 64.32559 32.934217 61.86159 33.212728 59.068136 33.127923 55.843328 32.9043 52.029188 33.16006 47.36106 33.14405 41.342798 33.298913 32.86053 33.464647 18.36 33.25234Z" fill="#084a91" fill-opacity=".1"/>
<path transform="matrix(1,0,0,-1,0,180)" stroke-width="1" stroke-linecap="butt" stroke-linejoin="round" fill="none" stroke="#084a91" stroke-opacity=".1" d="M18.36 33.25234V32.616014L32.86053 32.814878 41.342798 32.657926 47.36106 32.51091 52.029188 32.53654 55.843328 32.277036 59.068136 32.50622 61.86159 32.577558 64.32559 32.31478 66.52972 32.340974 68.52359 32.345708 70.34386 32.24762 72.01834 32.259168 73.568668 32.404577 75.011989 32.26874 76.36212 32.25714 77.63038 32.24477 78.826129 32.38365 79.9572 32.06492 81.03025 32.281637 82.050937 32.04559 83.024127 32.0734 83.95405 32.01037 84.84438 32.025217 85.69838 32.263387 86.51887 32.074178 87.30839 31.90733 88.0692 32.01459 88.8033 31.930039 89.51251 31.93049 90.19847 31.783917 96.04734 31.7716 100.613178 31.704659 104.35883 31.602084 107.53459 31.563378 110.29118 31.402626 112.72647 31.475022 114.90759 31.251235 116.88263 31.348576 118.68719 31.44041 120.348369 31.25536 121.88728 31.275889 154.42868 31.29804 168.91356 31.231122 177.3906 31.110016 183.40625 31.147173 188.0728 30.998185 191.8859 31.20563 195.10996 31.15239 197.90287 31.339972 200.36643 31.234318 202.5702 31.3518 204.5638 31.065476 206.38382 30.909209 208.05809 31.20075 209.60825 31.051999 211.05142 31.044852 212.40143 31.02653 213.66957 31.023982 214.86522 30.853083 215.9962 30.903952 217.06917 30.969626 218.08977 30.879536 219.0629 30.755738 219.99275 30.768452 220.88304 30.694436 221.73699 30.587927 222.55742 30.652035 223.3469 30.823386 224.10767 30.48981 224.84172 30.608948 225.5509 30.601216 226.23683 30.47328 226.90097 30.471789 227.5447 30.282124 228.16918 30.199807 228.77556 30.102068 229.36487 30.149249 229.93804 30.2548 230.4959 30.109206 231.03929 30.042832 231.56891 29.919289 232.08545 29.836642 232.58956 30.063336 233.08179 29.965779 233.56272 29.74711 234.03282 29.933079 234.4926 29.856465 234.94249 29.946732 235.38292 30.002924 235.81426 29.73641 236.23688 29.767447 236.65114 29.708039 237.05735 29.715712 237.45583 29.741757 237.84685 29.59361 238.2307 29.580798 238.60764 29.682705 238.97789 29.724093 239.34172 29.553273 239.69933 29.436127 240.05092 29.497866 240.3967 29.402129 240.73686 29.532902 241.07158 29.348122 241.40102 29.41787 241.72536 29.3648 242.04474 29.381394 242.35933 29.202605 242.66925 29.16199 242.97464 29.220183 243.27565 29.031777 243.57239 29.215897 243.86496 29.170863 244.15352 29.052994 244.43814 28.99787 244.71894 29.104504 244.99602 28.909773 245.26949 28.98715 245.53942 28.903697 245.80591 28.837477 246.06905 28.86441 246.32892 28.83765 246.5856 28.715079 246.83917 28.657223 247.0897 28.70534 247.33728 28.842648 247.58196 28.829976 247.8238 28.66125 248.06288 28.7655 248.29927 28.592835 248.533 28.605538 248.76416 28.621396 248.9928 28.53235 249.21895 28.517706 249.44269 28.614708 249.66407 28.57738 249.88312 28.621396 250.0999 28.533776 250.31447 28.524626 250.52686 28.457005 250.73709 28.472989 250.94525 28.571352 251.15135 28.56415 251.35546 28.38366 251.55757 28.42531 251.75777 28.501936 251.95606 28.50199 252.15248 28.41646 252.34709 28.456194 252.5399 28.441565 252.73094 28.472718 252.92026 28.539544 253.10788 28.302796 253.29384 28.45782 253.47815 28.432999 253.66086 28.378434 253.84198 28.372918 254.02155 28.320603 254.19959 28.336594 254.37613 28.341547 254.55118 28.402401 254.7248 28.311835 254.89698 28.210169 255.06775 28.256108 255.23714 28.341063 255.40517 28.268174 255.57186 28.217873 255.73723 28.342339 255.9013 28.304123 256.0641 28.311549 256.22566 28.228049 256.38597 28.22242 256.54505 28.291007 256.7029 28.305178 256.85963 28.181139 257.01518 28.208884 257.16957 28.127198 257.3228 28.233874 257.47496 28.194075 257.62599 28.127198 257.77595 28.16508 257.92485 28.192208 258.0727 28.15738 258.21949 28.204247 258.36528 28.151238 258.51005 28.207699 258.65385 28.109955 258.79664 28.111193 258.93846 28.074606 259.0793 28.165736V28.464306L258.93846 28.357659 258.79664 28.399142 258.65385 28.40038 258.51005 28.510823 258.36528 28.447577 258.21949 28.503867 258.0727 28.451842 257.92485 28.489882 257.77595 28.459757 257.62599 28.41957 257.47496 28.493218 257.3228 28.536696 257.16957 28.41957 257.01518 28.509638 256.85963 28.480132 256.7029 28.62153 256.54505 28.599268 256.38597 28.522126 256.22566 28.53211 256.0641 28.625569 255.9013 28.61738 255.73723 28.662442 255.57186 28.521466 255.40517 28.57526 255.23714 28.653306 255.06775 28.561303 254.89698 28.513558 254.7248 28.625283 254.55118 28.72729 254.37613 28.658028 254.19959 28.65257 254.02155 28.637335 253.84198 28.694317 253.66086 28.69921 253.47815 28.75915 253.29384 28.786374 253.10788 28.613503 252.92026 28.876406 252.73094 28.802704 252.5399 28.771403 252.34709 28.788 252.15248 28.739254 251.95606 28.83589 251.75777 28.830739 251.55757 28.756426 251.35546 28.709599 251.15135 28.903845 250.94525 28.912259 250.73709 28.802433 250.52686 28.78719 250.31447 28.860095 250.0999 28.871764 249.88312 28.966309 249.66407 28.91664 249.44269 28.957383 249.21895 28.851403 248.9928 28.867985 248.76416 28.966309 248.533 28.945733 248.29927 28.932414 248.06288 29.129279 247.8238 29.00973 247.58196 29.200125 247.33728 29.208273 247.0897 29.064528 246.83917 29.00855 246.5856 29.070403 246.32892 29.20286 246.06905 29.233353 245.80591 29.20824 245.53942 29.27734 245.26949 29.370846 244.99602 29.286879 244.71894 29.498114 244.43814 29.380946 244.15352 29.440325 243.86496 29.561873 243.57239 29.620932 243.27565 29.425108 242.97464 29.62185 242.66925 29.560336 242.35933 29.602995 242.04474 29.798943 241.72536 29.784308 241.40102 29.840538 241.07158 29.75935 240.73686 29.96492 240.3967 29.825049 240.05092 29.932297 239.69933 29.858712 239.34172 29.986186 238.97789 30.164082 238.60764 30.122195 238.2307 30.015913 237.84685 30.029124 237.45583 30.18285 237.05735 30.172463 236.65114 30.15411 236.23688 30.219616 235.81426 30.182991 235.38292 30.468174 234.94249 30.415068 234.4926 30.312762 234.03282 30.392289 233.56272 30.19311 233.08179 30.432454 232.58956 30.53788 232.08545 30.290946 231.56891 30.38526 231.03929 30.511542 230.4959 30.590899 229.93804 30.736765 229.36487 30.628926 228.77556 30.577218 228.16918 30.677256 227.5447 30.766694 226.90097 30.96738 226.23683 30.976298 225.5509 31.113802 224.84172 31.126889 224.10767 30.9962 223.3469 31.354849 222.55742 31.167077 221.73699 31.106272 220.88304 31.20795 219.99275 31.290076 219.0629 31.276766 218.08977 31.4132 217.06917 31.505274 215.9962 31.435627 214.86522 31.387608 213.66957 31.565423 212.40143 31.56808 211.05142 31.58619 209.60825 31.594658 208.05809 31.747778 206.38382 31.440779 204.5638 31.61241 202.5702 31.903805 200.36643 31.787074 197.90287 31.905222 195.10996 31.707657 191.8859 31.75851 188.0728 31.539172 183.40625 31.697262 177.3906 31.651143 168.91356 31.785067 154.42868 31.858674 121.88728 31.833983 120.348369 31.80767 118.68719 32.002565 116.88263 31.912232 114.90759 31.801386 112.72647 32.040815 110.29118 31.96748 107.53459 32.129419 104.35883 32.17919 100.613178 32.29001 96.04734 32.353185 90.19847 32.366895 89.51251 32.527395 88.8033 32.52264 88.0692 32.615049 87.30839 32.49851 86.51887 32.67517 85.69838 32.886724 84.84438 32.635656 83.95405 32.603658 83.024127 32.68636 82.050937 32.646509 81.03025 32.8997 79.9572 32.67402 78.826129 33.005876 77.63038 32.8637 76.36212 32.877355 75.011989 32.881368 73.568668 33.026586 72.01834 32.875326 70.34386 32.866056 68.52359 32.96054 66.52972 32.96007 64.32559 32.934217 61.86159 33.212728 59.068136 33.127923 55.843328 32.9043 52.029188 33.16006 47.36106 33.14405 41.342798 33.298913 32.86053 33.464647 18.36 33.25234Z"/>
</g>
</g>
<path transform="matrix(1,0,0,-1,0,180)" d="M18.36 21.756V18.256"/>
<path transform="matrix(1,0,0,-1,0,180)" stroke-width=".8" stroke-linecap="butt" stroke-linejoin="round" fill="none" stroke="#000000" d="M18.36 21.756V18.256"/>
<use data-text="1" xlink:href="#font_3_49" transform="matrix(10,0,0,-10,9.36,173.18932)"/>
<use data-text="0" xlink:href="#font_3_48" transform="matrix(10,0,0,-10,15.722304,173.18932)"/>
<use data-text="0" xlink:href="#font_3_48" transform="matrix(7,0,0,-7,22.180314,169.36119)"/>
<path transform="matrix(1,0,0,-1,0,180)" d="M66.52972 21.756V18.256"/>
<path transform="matrix(1,0,0,-1,0,180)" stroke-width=".8" stroke-linecap="butt" stroke-linejoin="round" fill="none" stroke="#000000" d="M66.52972 21.756V18.256"/>
<use data-text="1" xlink:href="#font_3_49" transform="matrix(10,0,0,-10,57.52972,173.10182)"/>
<use data-text="0" xlink:href="#font_3_48" transform="matrix(10,0,0,-10,63.892026,173.10182)"/>
<use data-text="1" xlink:href="#font_3_49" transform="matrix(7,0,0,-7,70.35004,169.2737)"/>
<path transform="matrix(1,0,0,-1,0,180)" d="M114.69944 21.756V18.256"/>
<path transform="matrix(1,0,0,-1,0,180)" stroke-width=".8" stroke-linecap="butt" stroke-linejoin="round" fill="none" stroke="#000000" d="M114.69944 21.756V18.256"/>
<use data-text="1" xlink:href="#font_3_49" transform="matrix(10,0,0,-10,105.69943,173.18932)"/>
<use data-text="0" xlink:href="#font_3_48" transform="matrix(10,0,0,-10,112.06174,173.18932)"/>
<use data-text="2" xlink:href="#font_3_50" transform="matrix(7,0,0,-7,118.519748,169.36119)"/>
<path transform="matrix(1,0,0,-1,0,180)" d="M162.86916 21.756V18.256"/>
<path transform="matrix(1,0,0,-1,0,180)" stroke-width=".8" stroke-linecap="butt" stroke-linejoin="round" fill="none" stroke="#000000" d="M162.86916 21.756V18.256"/>
<use data-text="1" xlink:href="#font_3_49" transform="matrix(10,0,0,-10,153.86916,173.18932)"/>
<use data-text="0" xlink:href="#font_3_48" transform="matrix(10,0,0,-10,160.23146,173.18932)"/>
<use data-text="3" xlink:href="#font_3_51" transform="matrix(7,0,0,-7,166.68947,169.36119)"/>
<path transform="matrix(1,0,0,-1,0,180)" d="M211.03888 21.756V18.256"/>
<path transform="matrix(1,0,0,-1,0,180)" stroke-width=".8" stroke-linecap="butt" stroke-linejoin="round" fill="none" stroke="#000000" d="M211.03888 21.756V18.256"/>
<use data-text="1" xlink:href="#font_3_49" transform="matrix(10,0,0,-10,202.03888,173.10182)"/>
<use data-text="0" xlink:href="#font_3_48" transform="matrix(10,0,0,-10,208.40119,173.10182)"/>
<use data-text="4" xlink:href="#font_3_52" transform="matrix(7,0,0,-7,214.85919,169.2737)"/>
<path transform="matrix(1,0,0,-1,0,180)" d="M259.2086 21.756V18.256"/>
<path transform="matrix(1,0,0,-1,0,180)" stroke-width=".8" stroke-linecap="butt" stroke-linejoin="round" fill="none" stroke="#000000" d="M259.2086 21.756V18.256"/>
<use data-text="1" xlink:href="#font_3_49" transform="matrix(10,0,0,-10,250.20859,173.10182)"/>
<use data-text="0" xlink:href="#font_3_48" transform="matrix(10,0,0,-10,256.5709,173.10182)"/>
<use data-text="5" xlink:href="#font_3_53" transform="matrix(7,0,0,-7,263.0289,169.2737)"/>
<path transform="matrix(1,0,0,-1,0,180)" d="M32.86053 21.756V19.756"/>
<path transform="matrix(1,0,0,-1,0,180)" stroke-width=".6" stroke-linecap="butt" stroke-linejoin="round" fill="none" stroke="#000000" d="M32.86053 21.756V19.756"/>
<path transform="matrix(1,0,0,-1,0,180)" d="M41.342798 21.756V19.756"/>
<path transform="matrix(1,0,0,-1,0,180)" stroke-width=".6" stroke-linecap="butt" stroke-linejoin="round" fill="none" stroke="#000000" d="M41.342798 21.756V19.756"/>
<path transform="matrix(1,0,0,-1,0,180)" d="M47.36106 21.756V19.756"/>
<path transform="matrix(1,0,0,-1,0,180)" stroke-width=".6" stroke-linecap="butt" stroke-linejoin="round" fill="none" stroke="#000000" d="M47.36106 21.756V19.756"/>
<path transform="matrix(1,0,0,-1,0,180)" d="M52.029188 21.756V19.756"/>
<path transform="matrix(1,0,0,-1,0,180)" stroke-width=".6" stroke-linecap="butt" stroke-linejoin="round" fill="none" stroke="#000000" d="M52.029188 21.756V19.756"/>
<path transform="matrix(1,0,0,-1,0,180)" d="M55.843328 21.756V19.756"/>
<path transform="matrix(1,0,0,-1,0,180)" stroke-width=".6" stroke-linecap="butt" stroke-linejoin="round" fill="none" stroke="#000000" d="M55.843328 21.756V19.756"/>
<path transform="matrix(1,0,0,-1,0,180)" d="M59.068136 21.756V19.756"/>
<path transform="matrix(1,0,0,-1,0,180)" stroke-width=".6" stroke-linecap="butt" stroke-linejoin="round" fill="none" stroke="#000000" d="M59.068136 21.756V19.756"/>
<path transform="matrix(1,0,0,-1,0,180)" d="M61.86159 21.756V19.756"/>
<path transform="matrix(1,0,0,-1,0,180)" stroke-width=".6" stroke-linecap="butt" stroke-linejoin="round" fill="none" stroke="#000000" d="M61.86159 21.756V19.756"/>
<path transform="matrix(1,0,0,-1,0,180)" d="M64.32559 21.756V19.756"/>
<path transform="matrix(1,0,0,-1,0,180)" stroke-width=".6" stroke-linecap="butt" stroke-linejoin="round" fill="none" stroke="#000000" d="M64.32559 21.756V19.756"/>
<path transform="matrix(1,0,0,-1,0,180)" d="M81.03025 21.756V19.756"/>
<path transform="matrix(1,0,0,-1,0,180)" stroke-width=".6" stroke-linecap="butt" stroke-linejoin="round" fill="none" stroke="#000000" d="M81.03025 21.756V19.756"/>
<path transform="matrix(1,0,0,-1,0,180)" d="M89.51251 21.756V19.756"/>
<path transform="matrix(1,0,0,-1,0,180)" stroke-width=".6" stroke-linecap="butt" stroke-linejoin="round" fill="none" stroke="#000000" d="M89.51251 21.756V19.756"/>
<path transform="matrix(1,0,0,-1,0,180)" d="M95.53078 21.756V19.756"/>
<path transform="matrix(1,0,0,-1,0,180)" stroke-width=".6" stroke-linecap="butt" stroke-linejoin="round" fill="none" stroke="#000000" d="M95.53078 21.756V19.756"/>
<path transform="matrix(1,0,0,-1,0,180)" d="M100.198909 21.756V19.756"/>
<path transform="matrix(1,0,0,-1,0,180)" stroke-width=".6" stroke-linecap="butt" stroke-linejoin="round" fill="none" stroke="#000000" d="M100.198909 21.756V19.756"/>
<path transform="matrix(1,0,0,-1,0,180)" d="M104.01305 21.756V19.756"/>
<path transform="matrix(1,0,0,-1,0,180)" stroke-width=".6" stroke-linecap="butt" stroke-linejoin="round" fill="none" stroke="#000000" d="M104.01305 21.756V19.756"/>
<path transform="matrix(1,0,0,-1,0,180)" d="M107.237857 21.756V19.756"/>
<path transform="matrix(1,0,0,-1,0,180)" stroke-width=".6" stroke-linecap="butt" stroke-linejoin="round" fill="none" stroke="#000000" d="M107.237857 21.756V19.756"/>
<path transform="matrix(1,0,0,-1,0,180)" d="M110.03131 21.756V19.756"/>
<path transform="matrix(1,0,0,-1,0,180)" stroke-width=".6" stroke-linecap="butt" stroke-linejoin="round" fill="none" stroke="#000000" d="M110.03131 21.756V19.756"/>
<path transform="matrix(1,0,0,-1,0,180)" d="M112.49531 21.756V19.756"/>
<path transform="matrix(1,0,0,-1,0,180)" stroke-width=".6" stroke-linecap="butt" stroke-linejoin="round" fill="none" stroke="#000000" d="M112.49531 21.756V19.756"/>
<path transform="matrix(1,0,0,-1,0,180)" d="M129.19997 21.756V19.756"/>
<path transform="matrix(1,0,0,-1,0,180)" stroke-width=".6" stroke-linecap="butt" stroke-linejoin="round" fill="none" stroke="#000000" d="M129.19997 21.756V19.756"/>
<path transform="matrix(1,0,0,-1,0,180)" d="M137.68224 21.756V19.756"/>
<path transform="matrix(1,0,0,-1,0,180)" stroke-width=".6" stroke-linecap="butt" stroke-linejoin="round" fill="none" stroke="#000000" d="M137.68224 21.756V19.756"/>
<path transform="matrix(1,0,0,-1,0,180)" d="M143.7005 21.756V19.756"/>
<path transform="matrix(1,0,0,-1,0,180)" stroke-width=".6" stroke-linecap="butt" stroke-linejoin="round" fill="none" stroke="#000000" d="M143.7005 21.756V19.756"/>
<path transform="matrix(1,0,0,-1,0,180)" d="M148.36862 21.756V19.756"/>
<path transform="matrix(1,0,0,-1,0,180)" stroke-width=".6" stroke-linecap="butt" stroke-linejoin="round" fill="none" stroke="#000000" d="M148.36862 21.756V19.756"/>
<path transform="matrix(1,0,0,-1,0,180)" d="M152.18277 21.756V19.756"/>
<path transform="matrix(1,0,0,-1,0,180)" stroke-width=".6" stroke-linecap="butt" stroke-linejoin="round" fill="none" stroke="#000000" d="M152.18277 21.756V19.756"/>
<path transform="matrix(1,0,0,-1,0,180)" d="M155.40758 21.756V19.756"/>
<path transform="matrix(1,0,0,-1,0,180)" stroke-width=".6" stroke-linecap="butt" stroke-linejoin="round" fill="none" stroke="#000000" d="M155.40758 21.756V19.756"/>
<path transform="matrix(1,0,0,-1,0,180)" d="M158.20104 21.756V19.756"/>
<path transform="matrix(1,0,0,-1,0,180)" stroke-width=".6" stroke-linecap="butt" stroke-linejoin="round" fill="none" stroke="#000000" d="M158.20104 21.756V19.756"/>
<path transform="matrix(1,0,0,-1,0,180)" d="M160.66503 21.756V19.756"/>
<path transform="matrix(1,0,0,-1,0,180)" stroke-width=".6" stroke-linecap="butt" stroke-linejoin="round" fill="none" stroke="#000000" d="M160.66503 21.756V19.756"/>
<path transform="matrix(1,0,0,-1,0,180)" d="M177.36969 21.756V19.756"/>
<path transform="matrix(1,0,0,-1,0,180)" stroke-width=".6" stroke-linecap="butt" stroke-linejoin="round" fill="none" stroke="#000000" d="M177.36969 21.756V19.756"/>
<path transform="matrix(1,0,0,-1,0,180)" d="M185.85196 21.756V19.756"/>
<path transform="matrix(1,0,0,-1,0,180)" stroke-width=".6" stroke-linecap="butt" stroke-linejoin="round" fill="none" stroke="#000000" d="M185.85196 21.756V19.756"/>
<path transform="matrix(1,0,0,-1,0,180)" d="M191.87021 21.756V19.756"/>
<path transform="matrix(1,0,0,-1,0,180)" stroke-width=".6" stroke-linecap="butt" stroke-linejoin="round" fill="none" stroke="#000000" d="M191.87021 21.756V19.756"/>
<path transform="matrix(1,0,0,-1,0,180)" d="M196.53835 21.756V19.756"/>
<path transform="matrix(1,0,0,-1,0,180)" stroke-width=".6" stroke-linecap="butt" stroke-linejoin="round" fill="none" stroke="#000000" d="M196.53835 21.756V19.756"/>
<path transform="matrix(1,0,0,-1,0,180)" d="M200.35248 21.756V19.756"/>
<path transform="matrix(1,0,0,-1,0,180)" stroke-width=".6" stroke-linecap="butt" stroke-linejoin="round" fill="none" stroke="#000000" d="M200.35248 21.756V19.756"/>
<path transform="matrix(1,0,0,-1,0,180)" d="M203.57729 21.756V19.756"/>
<path transform="matrix(1,0,0,-1,0,180)" stroke-width=".6" stroke-linecap="butt" stroke-linejoin="round" fill="none" stroke="#000000" d="M203.57729 21.756V19.756"/>
<path transform="matrix(1,0,0,-1,0,180)" d="M206.37075 21.756V19.756"/>
<path transform="matrix(1,0,0,-1,0,180)" stroke-width=".6" stroke-linecap="butt" stroke-linejoin="round" fill="none" stroke="#000000" d="M206.37075 21.756V19.756"/>
<path transform="matrix(1,0,0,-1,0,180)" d="M208.83475 21.756V19.756"/>
<path transform="matrix(1,0,0,-1,0,180)" stroke-width=".6" stroke-linecap="butt" stroke-linejoin="round" fill="none" stroke="#000000" d="M208.83475 21.756V19.756"/>
<path transform="matrix(1,0,0,-1,0,180)" d="M225.5394 21.756V19.756"/>
<path transform="matrix(1,0,0,-1,0,180)" stroke-width=".6" stroke-linecap="butt" stroke-linejoin="round" fill="none" stroke="#000000" d="M225.5394 21.756V19.756"/>
<path transform="matrix(1,0,0,-1,0,180)" d="M234.02167 21.756V19.756"/>
<path transform="matrix(1,0,0,-1,0,180)" stroke-width=".6" stroke-linecap="butt" stroke-linejoin="round" fill="none" stroke="#000000" d="M234.02167 21.756V19.756"/>
<path transform="matrix(1,0,0,-1,0,180)" d="M240.03993 21.756V19.756"/>
<path transform="matrix(1,0,0,-1,0,180)" stroke-width=".6" stroke-linecap="butt" stroke-linejoin="round" fill="none" stroke="#000000" d="M240.03993 21.756V19.756"/>
<path transform="matrix(1,0,0,-1,0,180)" d="M244.70807 21.756V19.756"/>
<path transform="matrix(1,0,0,-1,0,180)" stroke-width=".6" stroke-linecap="butt" stroke-linejoin="round" fill="none" stroke="#000000" d="M244.70807 21.756V19.756"/>
<path transform="matrix(1,0,0,-1,0,180)" d="M248.5222 21.756V19.756"/>
<path transform="matrix(1,0,0,-1,0,180)" stroke-width=".6" stroke-linecap="butt" stroke-linejoin="round" fill="none" stroke="#000000" d="M248.5222 21.756V19.756"/>
<path transform="matrix(1,0,0,-1,0,180)" d="M251.74701 21.756V19.756"/>
<path transform="matrix(1,0,0,-1,0,180)" stroke-width=".6" stroke-linecap="butt" stroke-linejoin="round" fill="none" stroke="#000000" d="M251.74701 21.756V19.756"/>
<path transform="matrix(1,0,0,-1,0,180)" d="M254.54047 21.756V19.756"/>
<path transform="matrix(1,0,0,-1,0,180)" stroke-width=".6" stroke-linecap="butt" stroke-linejoin="round" fill="none" stroke="#000000" d="M254.54047 21.756V19.756"/>
<path transform="matrix(1,0,0,-1,0,180)" d="M257.00447 21.756V19.756"/>
<path transform="matrix(1,0,0,-1,0,180)" stroke-width=".6" stroke-linecap="butt" stroke-linejoin="round" fill="none" stroke="#000000" d="M257.00447 21.756V19.756"/>
<path transform="matrix(1,0,0,-1,0,180)" d="M18.36 27.045079H14.86"/>
<path transform="matrix(1,0,0,-1,0,180)" stroke-width=".8" stroke-linecap="butt" stroke-linejoin="round" fill="none" stroke="#000000" d="M18.36 27.045079H14.86"/>
<use data-text="0" xlink:href="#font_3_48" transform="matrix(10,0,0,-10,5.000625,156.7518)"/>
<path transform="matrix(1,0,0,-1,0,180)" d="M18.36 53.068494H14.86"/>
<path transform="matrix(1,0,0,-1,0,180)" stroke-width=".8" stroke-linecap="butt" stroke-linejoin="round" fill="none" stroke="#000000" d="M18.36 53.068494H14.86"/>
<use data-text="1" xlink:href="#font_3_49" transform="matrix(10,0,0,-10,5.000625,130.72838)"/>
<path transform="matrix(1,0,0,-1,0,180)" d="M18.36 79.09191H14.86"/>
<path transform="matrix(1,0,0,-1,0,180)" stroke-width=".8" stroke-linecap="butt" stroke-linejoin="round" fill="none" stroke="#000000" d="M18.36 79.09191H14.86"/>
<use data-text="2" xlink:href="#font_3_50" transform="matrix(10,0,0,-10,5.000625,104.70496)"/>
<path transform="matrix(1,0,0,-1,0,180)" d="M18.36 105.115329H14.86"/>
<path transform="matrix(1,0,0,-1,0,180)" stroke-width=".8" stroke-linecap="butt" stroke-linejoin="round" fill="none" stroke="#000000" d="M18.36 105.115329H14.86"/>
<use data-text="3" xlink:href="#font_3_51" transform="matrix(10,0,0,-10,5.000625,78.68155)"/>
<path transform="matrix(1,0,0,-1,0,180)" d="M18.36 131.13875H14.86"/>
<path transform="matrix(1,0,0,-1,0,180)" stroke-width=".8" stroke-linecap="butt" stroke-linejoin="round" fill="none" stroke="#000000" d="M18.36 131.13875H14.86"/>
<use data-text="4" xlink:href="#font_3_52" transform="matrix(10,0,0,-10,5.000625,52.658136)"/>
<path transform="matrix(1,0,0,-1,0,180)" d="M18.36 157.16216H14.86"/>
<path transform="matrix(1,0,0,-1,0,180)" stroke-width=".8" stroke-linecap="butt" stroke-linejoin="round" fill="none" stroke="#000000" d="M18.36 157.16216H14.86"/>
<use data-text="5" xlink:href="#font_3_53" transform="matrix(10,0,0,-10,5.000625,26.63472)"/>
<g clip-path="url(#clip_4)">
<path transform="matrix(1,0,0,-1,0,180)" stroke-width="1" stroke-linecap="square" stroke-linejoin="round" fill="none" stroke="#006428" stroke-opacity=".8" d="M18.36 38.963804 41.342798 38.052984 47.36106 39.510297 52.029188 37.246259 55.843328 38.703569 59.068136 38.469358 61.86159 37.688657 64.32559 37.558538 66.52972 38.02696 68.52359 37.63661 70.34386 38.131055H72.01834L73.568668 37.81877 75.011989 38.599477 76.36212 38.235147 77.63038 37.740705 78.826129 38.10503 79.9572 37.42842 81.03025 38.287195 82.050937 37.896844 83.024127 38.443334 83.95405 37.42842 84.84438 37.610586 85.69838 38.365266 86.51887 38.26117 87.30839 36.986024 88.8033 37.376375 89.51251 37.792749 90.19847 37.48047 96.04734 37.610586 100.613178 38.313219 104.35883 38.1831 107.53459 38.88573 110.29118 38.1831 112.72647 38.677545 114.90759 37.454446 116.88263 38.287195 118.68719 38.521406 120.348369 37.922868 121.88728 39.588365 154.42868 55.957094 168.91356 79.16998 177.3906 101.88842 183.40625 131.99752 188.0728 145.89402 191.8859 149.84958 195.10996 75.83898 197.90287 100.32702 200.36643 76.82787 202.5702 77.21822 204.5638 87.73168 206.38382 80.23694 208.05809 86.01414 209.60825 84.81706 211.05142 78.12904 212.40143 84.244548 213.66957 78.88372 214.86522 74.772029 215.9962 72.742198 217.06917 82.89133 218.08977 78.36325 219.0629 87.65361 219.99275 64.5188 220.88304 82.9694 221.73699 85.10332 222.55742 83.67203 223.3469 82.83928 224.10767 68.68254 224.84172 79.69045 225.5509 79.06589 226.23683 81.19981 227.5447 74.043369 228.16918 83.724079 228.77556 88.278179 229.36487 85.10332 230.4959 70.24395 231.03929 81.69425 231.56891 80.83548 232.08545 82.11063 232.58956 78.46735 233.08179 71.050678 233.56272 73.44483 234.03282 71.310909 234.4926 80.991619 234.94249 77.686649 235.38292 68.99483 235.81426 69.4112 236.23688 67.745708 236.65114 76.46355 237.05735 75.865009 237.45583 80.88753 237.84685 72.92436 238.2307 67.71968 238.60764 79.22203 238.97789 78.62349 239.34172 80.54922 239.69933 73.10652 240.05092 69.4112 240.3967 76.95799 240.73686 78.12904 241.07158 81.06969 241.40102 79.19601 241.72536 73.83518 242.04474 82.761219 242.35933 77.79074 242.66925 81.35595 242.97464 80.83548 243.27565 78.36325 243.57239 83.04747 243.86496 83.02145 244.15352 86.74279 244.43814 86.846889 244.71894 82.9694 244.99602 87.9659 245.26949 85.38958 245.53942 86.43051 245.80591 86.53461 246.06905 82.813259 246.32892 87.679637 246.5856 84.68694 246.83917 85.46764 247.0897 88.85069 247.33728 84.40069 247.58196 91.27087 247.8238 87.15917 248.06288 86.846889 248.29927 90.38607 248.533 82.60507 248.76416 90.95859 248.9928 86.37846 249.44269 91.140758 249.66407 84.53081 249.88312 91.76531 250.0999 84.452739 250.31447 86.17028 250.52686 91.9735 250.73709 84.47876 250.94525 91.16678 251.15135 82.05858 251.55757 89.65742 251.75777 85.285488 251.95606 91.6352 252.15248 84.94718 252.34709 85.025249 252.5399 90.25596 252.73094 83.984317 252.92026 89.63139 253.10788 82.34483 253.47815 88.82467 253.66086 82.47495 253.84198 89.91765 254.02155 85.12934 254.19959 83.64601 254.37613 90.7504 254.55118 82.47495 254.7248 87.5235 255.06775 84.71297 255.23714 92.15566 255.40517 83.80215 255.57186 83.77612 255.73723 84.73899 255.9013 84.27057 256.0641 87.9659 256.22566 85.025249 256.38597 88.25215 256.54505 82.78723 256.7029 83.69805 256.85963 91.55713 257.01518 83.12554 257.16957 87.8618 257.3228 84.452739 257.47496 84.634899 257.62599 91.37496 257.77595 83.38577 257.92485 89.29309 258.21949 84.27057 258.36528 86.66473 258.51005 80.83548 258.65385 86.87291 258.93846 82.83928 259.0793 87.60157"/>
</g>
<g clip-path="url(#clip_5)">
<path transform="matrix(1,0,0,-1,0,180)" stroke-width="1" stroke-linecap="square" stroke-linejoin="round" fill="none" stroke="#9e3303" stroke-opacity=".8" d="M18.36 37.868219 32.86053 38.196115 41.342798 37.847398 47.36106 37.722486 55.843328 38.029565 59.068136 37.701669 61.86159 38.01655 64.32559 37.667837 66.52972 37.509096 68.52359 38.154474 70.34386 37.7381 72.01834 37.777135 73.568668 37.941083 75.011989 37.691259 76.36212 37.808366 77.63038 37.69386 78.826129 37.47006 79.9572 37.834386 82.050937 37.88123 83.024127 37.498685 83.95405 37.37377 84.84438 37.766725 85.69838 37.2931 86.51887 37.589769 87.30839 37.667837 88.0692 37.212427 88.8033 37.54813 90.19847 37.441434 100.613178 37.105733 104.35883 37.464857 107.53459 37.056287 110.29118 37.376375 112.72647 37.295705 114.90759 36.920965 116.88263 37.287897 118.68719 37.32693 120.348369 36.855909 121.88728 37.37898 154.42868 37.56114 168.91356 37.969709 183.40625 37.678247 188.0728 38.10243 191.8859 38.229944 202.5702 38.055585 204.5638 37.82918 206.38382 37.834386 208.05809 38.175294 214.86522 37.735498 215.9962 37.889036 217.06917 37.844797 218.08977 38.22734 219.0629 38.406904 219.99275 37.91766 222.55742 38.180498 223.3469 37.82398 224.84172 38.276784 226.23683 38.065996 226.90097 37.631406 227.5447 37.943685 228.16918 37.842195 228.77556 37.878629 229.36487 38.302808 229.93804 37.725088 230.4959 38.045179 231.56891 37.92807 232.58956 37.98532 233.08179 38.024358 233.56272 37.93848 234.03282 38.13886 234.94249 37.784944 235.38292 38.133657 236.23688 38.17269 236.65114 38.045179 237.05735 38.10763 237.45583 37.99053 237.84685 38.024358 238.2307 37.92807 238.60764 38.237749 239.34172 37.844797 239.69933 38.31842 240.05092 37.922868 240.73686 38.06079 241.07158 37.912458 241.72536 38.00354 242.66925 38.099828 242.97464 37.922868 243.57239 38.086816 244.15352 37.842195 244.71894 38.071199 245.80591 37.899446 246.06905 38.263776 246.32892 38.295003 246.83917 38.063394 247.0897 38.12585 247.33728 38.360059 247.58196 38.21433 247.8238 38.654127 248.06288 38.443334 248.29927 37.94889 248.76416 38.05038 248.9928 38.39129 249.21895 38.219533 250.0999 38.1831 250.52686 38.123247 250.94525 38.065996 251.15135 38.38608 251.35546 38.4043 251.55757 38.300207 252.34709 38.50319 252.5399 38.08421 252.73094 38.44073 252.92026 38.118043 253.84198 38.5162 254.02155 38.39129 254.37613 38.443334 254.55118 38.188306 254.7248 38.425119 255.23714 38.245557 255.40517 38.38088 255.57186 38.12585 256.38597 38.55003 256.85963 38.708776 257.01518 38.50319 257.16957 38.674943 257.3228 38.555238 257.47496 38.188306 257.62599 38.721788 257.77595 38.365266 257.92485 38.602079 258.0727 38.497983 258.36528 38.66193 258.79664 38.810266 258.93846 38.698366 259.0793 38.888338"/>
</g>
<g clip-path="url(#clip_6)">
<path transform="matrix(1,0,0,-1,0,180)" stroke-width="1" stroke-linecap="square" stroke-linejoin="round" fill="none" stroke="#084a91" stroke-opacity=".8" d="M18.36 32.934179 32.86053 33.139764 52.029188 32.8483 55.843328 32.590669 59.068136 32.817075 61.86159 32.89514 64.32559 32.624498 68.52359 32.653127 72.01834 32.567247 73.568668 32.71558 75.011989 32.575056 77.63038 32.554235 78.826129 32.694765 79.9572 32.36947 81.03025 32.590669 82.050937 32.346048 83.95405 32.307016 84.84438 32.330434 85.69838 32.575056 87.30839 32.20292 88.0692 32.31482 90.19847 32.075407 100.613178 31.997334 116.88263 31.630404 118.68719 31.721486 120.348369 31.531516 121.88728 31.554936 168.91356 31.508095 177.3906 31.380579 183.40625 31.422217 188.0728 31.268679 191.8859 31.48207 195.10996 31.430024 197.90287 31.622597 200.36643 31.510697 202.5702 31.627802 206.38382 31.174994 208.05809 31.474263 209.60825 31.323328 213.66957 31.294703 214.86522 31.120345 217.06917 31.23745 221.73699 30.8471 222.55742 30.909556 223.3469 31.089118 224.10767 30.743006 224.84172 30.867918 225.5509 30.857508 226.23683 30.724789 226.90097 30.719584 228.16918 30.438532 228.77556 30.339642 229.93804 30.495783 231.56891 30.152274 232.08545 30.063794 232.58956 30.300608 233.08179 30.199116 233.56272 29.97011 234.03282 30.162684 234.4926 30.084614 235.38292 30.23555 235.81426 29.959702 236.65114 29.931075 237.45583 29.962304 237.84685 29.811367 238.2307 29.798356 238.97789 29.944087 239.69933 29.64742 240.05092 29.71508 240.3967 29.613589 240.73686 29.74891 241.07158 29.553736 241.40102 29.629204 243.27565 29.228444 243.57239 29.418414 247.0897 28.884934 247.33728 29.02546 247.58196 29.01505 247.8238 28.83549 248.06288 28.94739 248.29927 28.762623 248.9928 28.700167 249.21895 28.684554 249.44269 28.786046 250.73709 28.63771 251.15135 28.733998 251.35546 28.546629 251.95606 28.66894 252.15248 28.577857 252.92026 28.707974 253.10788 28.45815 253.29384 28.622097 254.37613 28.499787 254.55118 28.564846 254.89698 28.361863 255.40517 28.421717 255.57186 28.36967 255.73723 28.50239 256.38597 28.372273 256.7029 28.463355 256.85963 28.330636 257.01518 28.35926 257.16957 28.273383 257.3228 28.385285 257.77595 28.312418 258.21949 28.354056 258.79664 28.255167 258.93846 28.216132 259.0793 28.315022"/>
</g>
<path transform="matrix(1,0,0,-1,0,180)" stroke-width=".8" stroke-linecap="square" stroke-miterlimit="10" stroke-linejoin="miter" fill="none" stroke="#000000" d="M18.36 21.756V160.76532"/>
<path transform="matrix(1,0,0,-1,0,180)" stroke-width=".8" stroke-linecap="square" stroke-miterlimit="10" stroke-linejoin="miter" fill="none" stroke="#000000" d="M18.36 21.756H260.1"/>
<path transform="matrix(1,0,0,-1,0,180)" stroke-width=".8" stroke-linecap="square" stroke-miterlimit="10" stroke-linejoin="miter" fill="none" stroke="#000000" d="M18.36 160.76532H260.1"/>
<use data-text="r" xlink:href="#font_3_114" transform="matrix(12,0,0,-12,20.353875,14.1323399)"/>
<use data-text=" " xlink:href="#font_3_32" transform="matrix(12,0,0,-12,25.285874,14.1323399)"/>
<use data-text="=" xlink:href="#font_3_61" transform="matrix(12,0,0,-12,29.101876,14.1323399)"/>
<use data-text=" " xlink:href="#font_3_32" transform="matrix(12,0,0,-12,39.157876,14.1323399)"/>
<use data-text="0" xlink:href="#font_3_48" transform="matrix(12,0,0,-12,42.973878,14.1323399)"/>
<use data-text="." xlink:href="#font_3_46" transform="matrix(12,0,0,-12,50.605875,14.1323399)"/>
<use data-text="0" xlink:href="#font_3_48" transform="matrix(12,0,0,-12,54.421876,14.1323399)"/>
<use data-text="1" xlink:href="#font_3_49" transform="matrix(12,0,0,-12,62.053876,14.1323399)"/>
<use data-text="," xlink:href="#font_3_44" transform="matrix(12,0,0,-12,69.685878,14.1323399)"/>
<use data-text=" " xlink:href="#font_3_32" transform="matrix(12,0,0,-12,73.50188,14.1323399)"/>
<use data-text="d" xlink:href="#font_3_100" transform="matrix(12,0,0,-12,77.31788,14.1323399)"/>
<use data-text="e" xlink:href="#font_3_101" transform="matrix(12,0,0,-12,84.93788,14.1323399)"/>
<use data-text="p" xlink:href="#font_3_112" transform="matrix(12,0,0,-12,92.31788,14.1323399)"/>
<use data-text="t" xlink:href="#font_3_116" transform="matrix(12,0,0,-12,99.93788,14.1323399)"/>
<use data-text="h" xlink:href="#font_3_104" transform="matrix(12,0,0,-12,104.641887,14.1323399)"/>
<use data-text=" " xlink:href="#font_3_32" transform="matrix(12,0,0,-12,112.249889,14.1323399)"/>
<use data-text="=" xlink:href="#font_3_61" transform="matrix(12,0,0,-12,116.06589,14.1323399)"/>
<use data-text=" " xlink:href="#font_3_32" transform="matrix(12,0,0,-12,126.12189,14.1323399)"/>
<use data-text="2" xlink:href="#font_3_50" transform="matrix(12,0,0,-12,129.9379,14.1323399)"/>
<g>
<path transform="matrix(1,0,0,-1,0,180)" d="M24.66 113.90907H88.36625C89.56625 113.90907 90.16625 114.50907 90.16625 115.70907V154.46532C90.16625 155.66532 89.56625 156.26532 88.36625 156.26532H24.66C23.46 156.26532 22.86 155.66532 22.86 154.46532V115.70907C22.86 114.50907 23.46 113.90907 24.66 113.90907Z" fill="#ffffff" fill-opacity=".8"/>
<path transform="matrix(1,0,0,-1,0,180)" stroke-width="1" stroke-linecap="butt" stroke-miterlimit="10" stroke-linejoin="miter" fill="none" stroke="#cccccc" stroke-opacity=".8" d="M24.66 113.90907H88.36625C89.56625 113.90907 90.16625 114.50907 90.16625 115.70907V154.46532C90.16625 155.66532 89.56625 156.26532 88.36625 156.26532H24.66C23.46 156.26532 22.86 155.66532 22.86 154.46532V115.70907C22.86 114.50907 23.46 113.90907 24.66 113.90907Z"/>
</g>
<path transform="matrix(1,0,0,-1,0,180)" stroke-width="1" stroke-linecap="square" stroke-linejoin="round" fill="none" stroke="#006428" stroke-opacity=".8" d="M26.46 148.97158H35.46 44.46"/>
<use data-text="t" xlink:href="#font_3_116" transform="matrix(9,0,0,-9,51.66,34.178438)"/>
<use data-text="r" xlink:href="#font_3_114" transform="matrix(9,0,0,-9,55.188,34.178438)"/>
<use data-text="a" xlink:href="#font_3_97" transform="matrix(9,0,0,-9,58.887,34.178438)"/>
<use data-text="i" xlink:href="#font_3_105" transform="matrix(9,0,0,-9,64.404,34.178438)"/>
<use data-text="n" xlink:href="#font_3_110" transform="matrix(9,0,0,-9,66.906,34.178438)"/>
<path transform="matrix(1,0,0,-1,0,180)" stroke-width="1" stroke-linecap="square" stroke-linejoin="round" fill="none" stroke="#9e3303" stroke-opacity=".8" d="M26.46 135.75283H35.46 44.46"/>
<use data-text="t" xlink:href="#font_3_116" transform="matrix(9,0,0,-9,51.66,47.397188)"/>
<use data-text="e" xlink:href="#font_3_101" transform="matrix(9,0,0,-9,55.188,47.397188)"/>
<use data-text="s" xlink:href="#font_3_115" transform="matrix(9,0,0,-9,60.723,47.397188)"/>
<use data-text="t" xlink:href="#font_3_116" transform="matrix(9,0,0,-9,65.412,47.397188)"/>
<path transform="matrix(1,0,0,-1,0,180)" stroke-width="1" stroke-linecap="square" stroke-linejoin="round" fill="none" stroke="#084a91" stroke-opacity=".8" d="M26.46 122.53407H35.46 44.46"/>
<use data-text="r" xlink:href="#font_3_114" transform="matrix(9,0,0,-9,51.66,60.61593)"/>
<use data-text="a" xlink:href="#font_3_97" transform="matrix(9,0,0,-9,55.359,60.61593)"/>
<use data-text="n" xlink:href="#font_3_110" transform="matrix(9,0,0,-9,60.876,60.61593)"/>
<use data-text="d" xlink:href="#font_3_100" transform="matrix(9,0,0,-9,66.582,60.61593)"/>
<use data-text="o" xlink:href="#font_3_111" transform="matrix(9,0,0,-9,72.297,60.61593)"/>
<use data-text="m" xlink:href="#font_3_109" transform="matrix(9,0,0,-9,77.805,60.61593)"/>
<path transform="matrix(1,0,0,-1,0,180)" d="M260.1 43.057447H263.6"/>
<path transform="matrix(1,0,0,-1,0,180)" stroke-width=".8" stroke-linecap="butt" stroke-linejoin="round" fill="none" stroke="#000000" d="M260.1 43.057447H263.6"/>
<use data-text="0" xlink:href="#font_3_48" transform="matrix(10,0,0,-10,267.1,140.73943)"/>
<use data-text="." xlink:href="#font_3_46" transform="matrix(10,0,0,-10,273.46003,140.73943)"/>
<use data-text="2" xlink:href="#font_3_50" transform="matrix(10,0,0,-10,276.64,140.73943)"/>
<path transform="matrix(1,0,0,-1,0,180)" d="M260.1 71.1152H263.6"/>
<path transform="matrix(1,0,0,-1,0,180)" stroke-width=".8" stroke-linecap="butt" stroke-linejoin="round" fill="none" stroke="#000000" d="M260.1 71.1152H263.6"/>
<use data-text="0" xlink:href="#font_3_48" transform="matrix(10,0,0,-10,267.1,112.68168)"/>
<use data-text="." xlink:href="#font_3_46" transform="matrix(10,0,0,-10,273.46003,112.68168)"/>
<use data-text="4" xlink:href="#font_3_52" transform="matrix(10,0,0,-10,276.64,112.68168)"/>
<path transform="matrix(1,0,0,-1,0,180)" d="M260.1 99.17294H263.6"/>
<path transform="matrix(1,0,0,-1,0,180)" stroke-width=".8" stroke-linecap="butt" stroke-linejoin="round" fill="none" stroke="#000000" d="M260.1 99.17294H263.6"/>
<use data-text="0" xlink:href="#font_3_48" transform="matrix(10,0,0,-10,267.1,84.62393)"/>
<use data-text="." xlink:href="#font_3_46" transform="matrix(10,0,0,-10,273.46003,84.62393)"/>
<use data-text="6" xlink:href="#font_3_54" transform="matrix(10,0,0,-10,276.64,84.62393)"/>
<path transform="matrix(1,0,0,-1,0,180)" d="M260.1 127.2307H263.6"/>
<path transform="matrix(1,0,0,-1,0,180)" stroke-width=".8" stroke-linecap="butt" stroke-linejoin="round" fill="none" stroke="#000000" d="M260.1 127.2307H263.6"/>
<use data-text="0" xlink:href="#font_3_48" transform="matrix(10,0,0,-10,267.1,56.566179)"/>
<use data-text="." xlink:href="#font_3_46" transform="matrix(10,0,0,-10,273.46003,56.566179)"/>
<use data-text="8" xlink:href="#font_3_56" transform="matrix(10,0,0,-10,276.64,56.566179)"/>
<path transform="matrix(1,0,0,-1,0,180)" d="M260.1 155.28845H263.6"/>
<path transform="matrix(1,0,0,-1,0,180)" stroke-width=".8" stroke-linecap="butt" stroke-linejoin="round" fill="none" stroke="#000000" d="M260.1 155.28845H263.6"/>
<use data-text="1" xlink:href="#font_3_49" transform="matrix(10,0,0,-10,267.1,28.508423)"/>
<use data-text="." xlink:href="#font_3_46" transform="matrix(10,0,0,-10,273.46003,28.508423)"/>
<use data-text="0" xlink:href="#font_3_48" transform="matrix(10,0,0,-10,276.64,28.508423)"/>
<g clip-path="url(#clip_7)">
<path transform="matrix(1,0,0,-1,0,180)" stroke-width="1" stroke-linecap="butt" stroke-dasharray="3.7,1.6" stroke-linejoin="round" fill="none" stroke="#006428" stroke-opacity=".3" d="M18.36 31.1329 32.86053 31.413479 41.342798 31.27319 47.36106 30.431458 52.029188 30.01059 55.843328 28.467415 59.068136 28.607703 61.86159 29.168858 64.32559 28.607703 66.52972 29.168858 68.52359 28.88828 73.568668 29.309147 75.011989 30.150879 76.36212 30.291169 77.63038 30.01059H79.9572L81.03025 30.571745 82.050937 29.870303 83.024127 30.01059 83.95405 30.291169H84.84438L85.69838 30.852324 86.51887 30.992613 87.30839 30.852324 88.8033 30.01059 89.51251 30.150879 90.19847 29.589724 96.04734 29.168858 100.613178 29.870303 104.35883 30.291169 107.53459 30.992613 112.72647 31.834345 114.90759 32.956655 116.88263 34.640119 118.68719 35.481855 120.348369 36.043008 121.88728 37.305608 154.42868 117.97164 168.91356 150.9395 177.3906 154.30643 188.0728 154.44672H259.0793"/>
</g>
<g clip-path="url(#clip_8)">
<path transform="matrix(1,0,0,-1,0,180)" stroke-width="1" stroke-linecap="butt" stroke-dasharray="3.7,1.6" stroke-linejoin="round" fill="none" stroke="#9e3303" stroke-opacity=".3" d="M18.36 29.421378 32.86053 30.024619 41.342798 29.828215 47.36106 29.000512 52.029188 28.14475 59.068136 28.214894 61.86159 28.579646 64.32559 29.421378 66.52972 29.940447 70.34386 31.287219 72.01834 31.427508 75.011989 32.409528 78.826129 32.830396 79.9572 32.648019 81.03025 32.802339 82.050937 33.082914H83.95405L85.69838 33.0268 88.0692 33.01277 88.8033 32.53579 90.19847 32.423559 96.04734 30.613833 100.613178 30.487572 104.35883 29.828215 107.53459 30.122822 110.29118 29.912388 112.72647 29.89836 114.90759 30.164908 116.88263 30.27714 118.68719 30.206995 121.88728 29.828215 154.42868 29.26706 168.91356 28.719935 183.40625 28.776049 188.0728 28.90231 191.8859 28.76202 195.10996 28.87425 197.90287 29.084685 200.36643 29.112742 202.5702 29.323176 204.5638 29.126772 206.38382 29.239003 209.60825 29.168858 211.05142 29.603753 212.40143 29.210944 214.86522 29.673897 215.9962 29.309147 217.06917 29.687926 218.08977 29.421378 219.0629 29.589724 219.99275 29.491522 220.88304 29.561667 221.73699 29.870303 222.55742 29.603753 224.10767 29.912388 224.84172 29.744042 225.5509 30.066706 226.23683 29.449435 226.90097 30.066706 228.77556 29.828215 229.36487 29.365262 229.93804 29.715985 230.4959 29.730013 231.03929 29.53361 231.56891 29.912388 232.08545 29.042599 232.58956 29.323176 233.08179 29.435406 233.56272 29.084685 234.03282 29.435406 234.4926 29.01454 234.94249 29.070656 235.38292 29.547638 235.81426 29.01454 236.23688 29.295119 236.65114 28.87425 237.45583 29.379292 237.84685 29.112742 238.2307 29.224974 238.60764 28.804108 238.97789 29.126772 239.34172 29.631812 239.69933 29.323176 240.05092 29.28109 240.3967 28.930367 241.07158 29.25303 241.40102 29.056628H241.72536L242.04474 28.76202 242.35933 28.90231 242.66925 29.182887 242.97464 28.90231 243.27565 29.056628 243.57239 28.846194 243.86496 28.90231 244.15352 29.25303 244.43814 29.070656 244.71894 29.28109 244.99602 29.084685 245.53942 29.295119 245.80591 29.028569 246.06905 29.042599 246.32892 28.76202 246.5856 28.986483H246.83917L247.0897 28.663819 247.33728 28.930367 247.58196 28.76202 247.8238 28.733963 248.06288 29.000512 248.29927 28.76202 248.533 29.000512 248.76416 28.832165 249.21895 28.958426 249.44269 28.776049 249.66407 28.860224 249.88312 28.635762 250.0999 28.846194 250.52686 28.383242 250.73709 28.64979 250.94525 28.299069 251.35546 28.663819 251.55757 28.369212 251.75777 28.747992 251.95606 28.200865 252.34709 28.733963 252.5399 28.27101 252.73094 28.635762 252.92026 28.15878 253.29384 28.663819 253.47815 28.355183 253.66086 28.5095 253.84198 28.14475 254.02155 28.607703 254.37613 28.5095 254.55118 28.705906 254.7248 28.074606 254.89698 28.691876 255.23714 28.467415 255.40517 28.733963 255.57186 28.355183 255.73723 28.790078 256.0641 28.39727 256.22566 28.621733 256.38597 28.383242 256.54505 28.495472 257.16957 28.327126 257.47496 28.607703 257.62599 28.565617 257.77595 28.719935 257.92485 28.214894 258.0727 28.705906 258.36528 28.5095 258.51005 28.776049 258.65385 28.327126 258.79664 28.790078 258.93846 28.76202 259.0793 28.551587"/>
</g>
<path transform="matrix(1,0,0,-1,0,180)" stroke-width=".8" stroke-linecap="square" stroke-dasharray="2.96,1.28" stroke-miterlimit="10" stroke-linejoin="miter" fill="none" stroke="#000000" stroke-opacity=".3" d="M260.1 21.756V160.76532"/>
</svg>
