<svg xmlns="http://www.w3.org/2000/svg" id="S2.F1.pic1" class="ltx_picture ltx_centering" height="194.14" overflow="visible" version="1.1" viewBox="0 0 561.57 194.14" width="561.57"><g style="--ltx-stroke-color:#000000;--ltx-fill-color:#000000;" fill="#000000" stroke="#000000" stroke-width="0.4pt" transform="translate(0,194.14) matrix(1 0 0 -1 0 0) translate(8.81,0) translate(0,85.16)"><g style="--ltx-stroke-color:#000000;--ltx-fill-color:#000000;" fill="#000000" stroke="#000000" transform="matrix(1.0 0.0 0.0 1.0 -4.2 -3.07)"><foreignObject style="--ltx-fo-width:0.61em;--ltx-fo-height:0.44em;--ltx-fo-depth:0em;font-size:10pt;" height="6.15" overflow="visible" transform="matrix(1 0 0 -1 0 6.15)" width="8.4"><span xmlns="http://www.w3.org/1999/xhtml" class="ltx_foreignobject_container"><span class="ltx_foreignobject_content"><math xmlns="http://www.w3.org/1998/Math/MathML" id="S2.F1.pic1.m1" class="ltx_Math" alttext="\mathbf{x}" display="inline" intent=":literal"><semantics><mi>𝐱</mi><annotation encoding="application/x-tex">\mathbf{x}</annotation></semantics></math></span></span></foreignObject></g><g style="--ltx-stroke-color:#000000;--ltx-fill-color:#F2F2F2;" fill="#F2F2F2" stroke="#000000" stroke-width="0.8pt"><path d="M 41.14 -15.75 h 48.01 v 31.5 h -48.01 Z"></path></g><g style="--ltx-stroke-color:#000000;--ltx-fill-color:#000000;" fill="#000000" stroke="#000000" stroke-width="0.8pt" transform="matrix(1.0 0.0 0.0 1.0 45.75 -3.46)"><foreignObject style="--ltx-fo-width:2.8em;--ltx-fo-height:0.75em;--ltx-fo-depth:0.25em;font-size:10pt;" height="13.84" overflow="visible" transform="matrix(1 0 0 -1 0 10.38)" width="38.79"><span xmlns="http://www.w3.org/1999/xhtml" class="ltx_foreignobject_container"><span class="ltx_foreignobject_content"><math xmlns="http://www.w3.org/1998/Math/MathML" id="S2.F1.pic1.m2" class="ltx_Math" alttext="f_{\bm{\theta}_{0}}(\mathbf{x})" display="inline" intent=":literal"><semantics><mrow><msub><mi>f</mi><msub><mi>𝜽</mi><mn>0</mn></msub></msub><mo lspace="0em" rspace="0em">​</mo><mrow><mo stretchy="false">(</mo><mi>𝐱</mi><mo stretchy="false">)</mo></mrow></mrow><annotation encoding="application/x-tex">f_{\bm{\theta}_{0}}(\mathbf{x})</annotation></semantics></math></span></span></foreignObject></g><g stroke-width="1.2pt"><path style="fill:none" d="M 9.09 0 L 34.99 0"></path><g stroke-dasharray="none" stroke-dashoffset="0.0pt" stroke-linecap="round" stroke-linejoin="round" transform="matrix(1.0 0.0 0.0 1.0 35.82 0)"><path style="fill:none" d="M -4.21 5.32 C -3.44 2.13 -1.73 0.62 0 0 C -1.73 -0.62 -3.44 -2.13 -4.21 -5.32"></path></g></g><g style="--ltx-stroke-color:#000000;--ltx-fill-color:#000000;" fill="#000000" stroke="#000000" transform="matrix(1.0 0.0 0.0 1.0 39.33 23.34)"><g class="ltx_tikzmatrix" transform="matrix(1 0 0 -1 0 17.52)"><g class="ltx_tikzmatrix_row" transform="matrix(1 0 0 1 0 7.69)"><g class="ltx_tikzmatrix_col ltx_nopad_r" transform="matrix(1 0 0 -1 4.17 0)"><foreignObject style="--ltx-fo-width:3.68em;--ltx-fo-height:0.65em;--ltx-fo-depth:0em;font-size:8.5pt;" height="7.69" overflow="visible" transform="matrix(1 0 0 -1 0 7.69)" width="43.28"><span xmlns="http://www.w3.org/1999/xhtml" class="ltx_foreignobject_container"><span class="ltx_foreignobject_content"><span id="S2.F1.pic1.1" class="ltx_text" style="font-size:80%;">Random</span></span></span></foreignObject></g></g><g class="ltx_tikzmatrix_row" transform="matrix(1 0 0 1 0 15.38)"><g class="ltx_tikzmatrix_col ltx_nopad_r" transform="matrix(1 0 0 -1 0 0)"><foreignObject style="--ltx-fo-width:4.39em;--ltx-fo-height:0.65em;--ltx-fo-depth:0.18em;font-size:8.5pt;" height="9.84" overflow="visible" transform="matrix(1 0 0 -1 0 7.69)" width="51.63"><span xmlns="http://www.w3.org/1999/xhtml" class="ltx_foreignobject_container"><span class="ltx_foreignobject_content"><span id="S2.F1.pic1.2" class="ltx_text" style="font-size:80%;">prediction</span></span></span></foreignObject></g></g></g></g><g style="--ltx-stroke-color:#000000;" stroke="#000000"><clipPath id="pgfcp1"><path d="M 130.72 19.69 C 127.79 19.69 125.41 10.87 125.41 0 C 125.41 -10.87 127.79 -19.69 130.72 -19.69 L 206.72 -19.69 C 209.65 -19.69 212.03 -10.87 212.03 0 C 212.03 10.87 209.65 19.69 206.72 19.69 Z M 206.72 19.69 C 203.79 19.69 201.42 10.87 201.42 0 C 201.42 -10.87 203.79 -19.69 206.72 -19.69"></path></clipPath><g clip-path="url(#pgfcp1)"><g transform="matrix(1.0 0.0 0.0 1.0 168.72 0) matrix(1.0 0.0 0.0 1.0 0 0) matrix(1.2474 0.0 0.0 0.567 0 0)"><defs><linearGradient gradientTransform="rotate(90)" id="pgfsh2"><stop offset="0.0" stop-color="#DB9470"></stop><stop offset="0.24998" stop-color="#DB9470"></stop><stop offset="0.49996" stop-color="#FCF8E2"></stop><stop offset="0.75002" stop-color="#DB9470"></stop><stop offset="1.0" stop-color="#DB9470"></stop></linearGradient></defs><g transform="translate(-69.44499 -69.44499)"><rect style="fill:url(#pgfsh2);stroke:none" height="138.89" width="138.89"></rect></g></g></g><clipPath id="pgfcp3"><path d="M 130.72 19.69 C 127.79 19.69 125.41 10.87 125.41 0 C 125.41 -10.87 127.79 -19.69 130.72 -19.69 L 206.72 -19.69 C 209.65 -19.69 212.03 -10.87 212.03 0 C 212.03 10.87 209.65 19.69 206.72 19.69 Z M 206.72 19.69 C 203.79 19.69 201.42 10.87 201.42 0 C 201.42 -10.87 203.79 -19.69 206.72 -19.69"></path></clipPath><g clip-path="url(#pgfcp3)"><g style="--ltx-fill-color:#E2A98D;" fill="#E2A98D"><path style="stroke:none" d="M 206.72 19.69 C 209.8 19.69 212.3 10.75 212.3 -0.28 C 212.3 -11.3 209.8 -20.24 206.72 -20.24 C 203.64 -20.24 201.14 -11.3 201.14 -0.28 C 201.14 10.75 203.64 19.69 206.72 19.69 Z"></path></g></g><path style="fill:none" d="M 130.72 19.69 C 127.79 19.69 125.41 10.87 125.41 0 C 125.41 -10.87 127.79 -19.69 130.72 -19.69 L 206.72 -19.69 C 209.65 -19.69 212.03 -10.87 212.03 0 C 212.03 10.87 209.65 19.69 206.72 19.69 Z M 206.72 19.69 C 203.79 19.69 201.42 10.87 201.42 0 C 201.42 -10.87 203.79 -19.69 206.72 -19.69"></path></g><g style="--ltx-stroke-color:#000000;--ltx-fill-color:#000000;" fill="#000000" stroke="#000000" transform="matrix(1.0 0.0 0.0 1.0 141.93 -3.46)"><foreignObject style="--ltx-fo-width:3.22em;--ltx-fo-height:0.75em;--ltx-fo-depth:0.25em;font-size:10pt;" height="13.84" overflow="visible" transform="matrix(1 0 0 -1 0 10.38)" width="44.59"><span xmlns="http://www.w3.org/1999/xhtml" class="ltx_foreignobject_container"><span class="ltx_foreignobject_content"><math xmlns="http://www.w3.org/1998/Math/MathML" id="S2.F1.pic1.m3" class="ltx_Math" alttext="\Delta\tilde{f}_{1}(\mathbf{x})" display="inline" intent=":literal"><semantics><mrow><mi mathvariant="normal">Δ</mi><mo lspace="0em" rspace="0em">​</mo><msub><mover accent="true"><mi>f</mi><mo>~</mo></mover><mn>1</mn></msub><mo lspace="0em" rspace="0em">​</mo><mrow><mo stretchy="false">(</mo><mi>𝐱</mi><mo stretchy="false">)</mo></mrow></mrow><annotation encoding="application/x-tex">\Delta\tilde{f}_{1}(\mathbf{x})</annotation></semantics></math></span></span></foreignObject></g><g style="--ltx-stroke-color:#000000;--ltx-fill-color:#000000;" fill="#000000" stroke="#000000" transform="matrix(1.0 0.0 0.0 1.0 58.21 -3.46)"><foreignObject style="--ltx-fo-width:7.11em;--ltx-fo-height:0.58em;--ltx-fo-depth:0.08em;font-size:10pt;" height="9.22" overflow="visible" transform="matrix(1 0 0 -1 0 8.07)" width="98.38"><span xmlns="http://www.w3.org/1999/xhtml" class="ltx_foreignobject_container"><span class="ltx_foreignobject_content">
<span id="S2.F1.pic1.3" class="ltx_inline-block ltx_minipage ltx_align_top" style="width:7.11em;">
<span id="S2.F1.pic1.3.1" class="ltx_p"></span>
<span id="S2.F1.pic1.3.2" class="ltx_p"><math xmlns="http://www.w3.org/1998/Math/MathML" id="S2.F1.pic1.m4" class="ltx_Math" alttext="+" display="inline" intent=":literal"><semantics><mo>+</mo><annotation encoding="application/x-tex">+</annotation></semantics></math></span>
</span></span></span></foreignObject></g><path style="stroke:none" d="M 206.36 0 M 209.32 0 C 209.32 7.94 207.99 14.37 206.36 14.37 C 204.73 14.37 203.41 7.94 203.41 0 C 203.41 -7.94 204.73 -14.37 206.36 -14.37 C 207.99 -14.37 209.32 -7.94 209.32 0 Z M 206.36 0"></path><clipPath id="pgfcp4"><path d="M 206.36 0 M 209.32 0 C 209.32 7.94 207.99 14.37 206.36 14.37 C 204.73 14.37 203.41 7.94 203.41 0 C 203.41 -7.94 204.73 -14.37 206.36 -14.37 C 207.99 -14.37 209.32 -7.94 209.32 0 Z M 206.36 0"></path></clipPath><g clip-path="url(#pgfcp4)"><g transform="matrix(1.0 0.0 0.0 1.0 206.36 0) matrix(1.0 0.0 0.0 1.0 0 0) matrix(0.08504 0.0 0.0 0.41391 0 0)"><defs><radialGradient fx="0.5" fy="0.5" id="pgfsh5"><stop offset="0.0" stop-color="#F9F3F0"></stop><stop offset="0.5" stop-color="#FDF9F8"></stop><stop offset="1.0" stop-color="#FDF9F8"></stop></radialGradient></defs><g transform="translate(-69.44 -69.44)"><circle style="fill:url(#pgfsh5);stroke:none" cx="69.44" cy="69.44" r="69.44"></circle></g></g></g><path style="fill:none" d="M 206.36 0 M 209.32 0 C 209.32 7.94 207.99 14.37 206.36 14.37 C 204.73 14.37 203.41 7.94 203.41 0 C 203.41 -7.94 204.73 -14.37 206.36 -14.37 C 207.99 -14.37 209.32 -7.94 209.32 0 Z M 206.36 0"></path><g style="--ltx-stroke-color:#000000;" stroke="#000000"><clipPath id="pgfcp6"><path d="M 245.9 27.56 C 242.72 27.56 240.14 15.22 240.14 0 C 240.14 -15.22 242.72 -27.56 245.9 -27.56 L 320.99 -27.56 C 324.17 -27.56 326.75 -15.22 326.75 0 C 326.75 15.22 324.17 27.56 320.99 27.56 Z M 320.99 27.56 C 317.8 27.56 315.22 15.22 315.22 0 C 315.22 -15.22 317.8 -27.56 320.99 -27.56"></path></clipPath><g clip-path="url(#pgfcp6)"><g transform="matrix(1.0 0.0 0.0 1.0 283.44 0) matrix(1.0 0.0 0.0 1.0 0 0) matrix(1.2474 0.0 0.0 0.79381 0 0)"><defs><linearGradient gradientTransform="rotate(90)" id="pgfsh7"><stop offset="0.0" stop-color="#DB9470"></stop><stop offset="0.24998" stop-color="#DB9470"></stop><stop offset="0.49996" stop-color="#FCF8E2"></stop><stop offset="0.75002" stop-color="#DB9470"></stop><stop offset="1.0" stop-color="#DB9470"></stop></linearGradient></defs><g transform="translate(-69.44499 -69.44499)"><rect style="fill:url(#pgfsh7);stroke:none" height="138.89" width="138.89"></rect></g></g></g><clipPath id="pgfcp8"><path d="M 245.9 27.56 C 242.72 27.56 240.14 15.22 240.14 0 C 240.14 -15.22 242.72 -27.56 245.9 -27.56 L 320.99 -27.56 C 324.17 -27.56 326.75 -15.22 326.75 0 C 326.75 15.22 324.17 27.56 320.99 27.56 Z M 320.99 27.56 C 317.8 27.56 315.22 15.22 315.22 0 C 315.22 -15.22 317.8 -27.56 320.99 -27.56"></path></clipPath><g clip-path="url(#pgfcp8)"><g style="--ltx-fill-color:#E2A98D;" fill="#E2A98D"><path style="stroke:none" d="M 320.99 27.56 C 324.32 27.56 327.03 15.1 327.03 -0.28 C 327.03 -15.65 324.32 -28.11 320.99 -28.11 C 317.65 -28.11 314.94 -15.65 314.94 -0.28 C 314.94 15.1 317.65 27.56 320.99 27.56 Z"></path></g></g><path style="fill:none" d="M 245.9 27.56 C 242.72 27.56 240.14 15.22 240.14 0 C 240.14 -15.22 242.72 -27.56 245.9 -27.56 L 320.99 -27.56 C 324.17 -27.56 326.75 -15.22 326.75 0 C 326.75 15.22 324.17 27.56 320.99 27.56 Z M 320.99 27.56 C 317.8 27.56 315.22 15.22 315.22 0 C 315.22 -15.22 317.8 -27.56 320.99 -27.56"></path></g><g style="--ltx-stroke-color:#000000;--ltx-fill-color:#000000;" fill="#000000" stroke="#000000" transform="matrix(1.0 0.0 0.0 1.0 256.53 -3.46)"><foreignObject style="--ltx-fo-width:3.22em;--ltx-fo-height:0.75em;--ltx-fo-depth:0.25em;font-size:10pt;" height="13.84" overflow="visible" transform="matrix(1 0 0 -1 0 10.38)" width="44.59"><span xmlns="http://www.w3.org/1999/xhtml" class="ltx_foreignobject_container"><span class="ltx_foreignobject_content"><math xmlns="http://www.w3.org/1998/Math/MathML" id="S2.F1.pic1.m5" class="ltx_Math" alttext="\Delta\tilde{f}_{2}(\mathbf{x})" display="inline" intent=":literal"><semantics><mrow><mi mathvariant="normal">Δ</mi><mo lspace="0em" rspace="0em">​</mo><msub><mover accent="true"><mi>f</mi><mo>~</mo></mover><mn>2</mn></msub><mo lspace="0em" rspace="0em">​</mo><mrow><mo stretchy="false">(</mo><mi>𝐱</mi><mo stretchy="false">)</mo></mrow></mrow><annotation encoding="application/x-tex">\Delta\tilde{f}_{2}(\mathbf{x})</annotation></semantics></math></span></span></foreignObject></g><g style="--ltx-stroke-color:#000000;--ltx-fill-color:#000000;" fill="#000000" stroke="#000000" transform="matrix(1.0 0.0 0.0 1.0 176.87 -3.46)"><foreignObject style="--ltx-fo-width:7.11em;--ltx-fo-height:0.58em;--ltx-fo-depth:0.08em;font-size:10pt;" height="9.22" overflow="visible" transform="matrix(1 0 0 -1 0 8.07)" width="98.38"><span xmlns="http://www.w3.org/1999/xhtml" class="ltx_foreignobject_container"><span class="ltx_foreignobject_content">
<span id="S2.F1.pic1.4" class="ltx_inline-block ltx_minipage ltx_align_top" style="width:7.11em;">
<span id="S2.F1.pic1.4.1" class="ltx_p"></span>
<span id="S2.F1.pic1.4.2" class="ltx_p"><math xmlns="http://www.w3.org/1998/Math/MathML" id="S2.F1.pic1.m6" class="ltx_Math" alttext="+" display="inline" intent=":literal"><semantics><mo>+</mo><annotation encoding="application/x-tex">+</annotation></semantics></math></span>
</span></span></span></foreignObject></g><path style="stroke:none" d="M 320.5 0 M 323.65 0 C 323.65 12.18 322.24 22.05 320.5 22.05 C 318.76 22.05 317.35 12.18 317.35 0 C 317.35 -12.18 318.76 -22.05 320.5 -22.05 C 322.24 -22.05 323.65 -12.18 323.65 0 Z M 320.5 0"></path><clipPath id="pgfcp9"><path d="M 320.5 0 M 323.65 0 C 323.65 12.18 322.24 22.05 320.5 22.05 C 318.76 22.05 317.35 12.18 317.35 0 C 317.35 -12.18 318.76 -22.05 320.5 -22.05 C 322.24 -22.05 323.65 -12.18 323.65 0 Z M 320.5 0"></path></clipPath><g clip-path="url(#pgfcp9)"><g transform="matrix(1.0 0.0 0.0 1.0 320.5 0) matrix(1.0 0.0 0.0 1.0 0 0) matrix(0.09071 0.0 0.0 0.63504 0 0)"><defs><radialGradient fx="0.5" fy="0.5" id="pgfsh10"><stop offset="0.0" stop-color="#F9F3F0"></stop><stop offset="0.5" stop-color="#FDF9F8"></stop><stop offset="1.0" stop-color="#FDF9F8"></stop></radialGradient></defs><g transform="translate(-69.44 -69.44)"><circle style="fill:url(#pgfsh10);stroke:none" cx="69.44" cy="69.44" r="69.44"></circle></g></g></g><path style="fill:none" d="M 320.5 0 M 323.65 0 C 323.65 12.18 322.24 22.05 320.5 22.05 C 318.76 22.05 317.35 12.18 317.35 0 C 317.35 -12.18 318.76 -22.05 320.5 -22.05 C 322.24 -22.05 323.65 -12.18 323.65 0 Z M 320.5 0"></path><g style="--ltx-stroke-color:#000000;" stroke="#000000"><clipPath id="pgfcp11"><path d="M 385.4 35.43 C 381.58 35.43 378.49 19.57 378.49 0 C 378.49 -19.57 381.58 -35.43 385.4 -35.43 L 458.18 -35.43 C 462 -35.43 465.1 -19.57 465.1 0 C 465.1 19.57 462 35.43 458.18 35.43 Z M 458.18 35.43 C 454.36 35.43 451.26 19.57 451.26 0 C 451.26 -19.57 454.36 -35.43 458.18 -35.43"></path></clipPath><g clip-path="url(#pgfcp11)"><g transform="matrix(1.0 0.0 0.0 1.0 421.79 0) matrix(1.0 0.0 0.0 1.0 0 0) matrix(1.2474 0.0 0.0 1.0206 0 0)"><defs><linearGradient gradientTransform="rotate(90)" id="pgfsh12"><stop offset="0.0" stop-color="#DB9470"></stop><stop offset="0.24998" stop-color="#DB9470"></stop><stop offset="0.49996" stop-color="#FCF8E2"></stop><stop offset="0.75002" stop-color="#DB9470"></stop><stop offset="1.0" stop-color="#DB9470"></stop></linearGradient></defs><g transform="translate(-69.44499 -69.44499)"><rect style="fill:url(#pgfsh12);stroke:none" height="138.89" width="138.89"></rect></g></g></g><clipPath id="pgfcp13"><path d="M 385.4 35.43 C 381.58 35.43 378.49 19.57 378.49 0 C 378.49 -19.57 381.58 -35.43 385.4 -35.43 L 458.18 -35.43 C 462 -35.43 465.1 -19.57 465.1 0 C 465.1 19.57 462 35.43 458.18 35.43 Z M 458.18 35.43 C 454.36 35.43 451.26 19.57 451.26 0 C 451.26 -19.57 454.36 -35.43 458.18 -35.43"></path></clipPath><g clip-path="url(#pgfcp13)"><g style="--ltx-fill-color:#C99083;" fill="#C99083"><path style="stroke:none" d="M 458.18 35.43 C 462.16 35.43 465.38 19.45 465.38 -0.28 C 465.38 -20 462.16 -35.99 458.18 -35.99 C 454.21 -35.99 450.99 -20 450.99 -0.28 C 450.99 19.45 454.21 35.43 458.18 35.43 Z"></path></g></g><path style="fill:none" d="M 385.4 35.43 C 381.58 35.43 378.49 19.57 378.49 0 C 378.49 -19.57 381.58 -35.43 385.4 -35.43 L 458.18 -35.43 C 462 -35.43 465.1 -19.57 465.1 0 C 465.1 19.57 462 35.43 458.18 35.43 Z M 458.18 35.43 C 454.36 35.43 451.26 19.57 451.26 0 C 451.26 -19.57 454.36 -35.43 458.18 -35.43"></path></g><g style="--ltx-stroke-color:#000000;--ltx-fill-color:#000000;" fill="#000000" stroke="#000000" transform="matrix(1.0 0.0 0.0 1.0 392.94 -3.46)"><foreignObject style="--ltx-fo-width:3.4em;--ltx-fo-height:0.75em;--ltx-fo-depth:0.25em;font-size:10pt;" height="13.84" overflow="visible" transform="matrix(1 0 0 -1 0 10.38)" width="47.1"><span xmlns="http://www.w3.org/1999/xhtml" class="ltx_foreignobject_container"><span class="ltx_foreignobject_content"><math xmlns="http://www.w3.org/1998/Math/MathML" id="S2.F1.pic1.m7" class="ltx_Math" alttext="\Delta\tilde{f}_{T}(\mathbf{x})" display="inline" intent=":literal"><semantics><mrow><mi mathvariant="normal">Δ</mi><mo lspace="0em" rspace="0em">​</mo><msub><mover accent="true"><mi>f</mi><mo>~</mo></mover><mi>T</mi></msub><mo lspace="0em" rspace="0em">​</mo><mrow><mo stretchy="false">(</mo><mi>𝐱</mi><mo stretchy="false">)</mo></mrow></mrow><annotation encoding="application/x-tex">\Delta\tilde{f}_{T}(\mathbf{x})</annotation></semantics></math></span></span></foreignObject></g><g style="--ltx-stroke-color:#000000;--ltx-fill-color:#000000;" fill="#000000" stroke="#000000" transform="matrix(1.0 0.0 0.0 1.0 303.41 -3.46)"><foreignObject style="--ltx-fo-width:7.11em;--ltx-fo-height:0.58em;--ltx-fo-depth:0.08em;font-size:10pt;" height="9.22" overflow="visible" transform="matrix(1 0 0 -1 0 8.07)" width="98.38"><span xmlns="http://www.w3.org/1999/xhtml" class="ltx_foreignobject_container"><span class="ltx_foreignobject_content">
<span id="S2.F1.pic1.5" class="ltx_inline-block ltx_minipage ltx_align_top" style="width:7.11em;">
<span id="S2.F1.pic1.5.1" class="ltx_p"></span>
<span id="S2.F1.pic1.5.2" class="ltx_p"><math xmlns="http://www.w3.org/1998/Math/MathML" id="S2.F1.pic1.m8" class="ltx_Math" alttext="+\,\hbox to10.00002pt{.\hss.\hss.}\,+" display="inline" intent=":literal"><semantics><mrow><mrow><mo rspace="0.392em">+</mo><mpadded style="width:10.0pt;" width="10.0pt"><mtext>…</mtext></mpadded></mrow><mo lspace="0.392em">+</mo></mrow><annotation encoding="application/x-tex">+\,\hbox to10.00002pt{.\hss.\hss.}\,+</annotation></semantics></math></span>
</span></span></span></foreignObject></g><g style="--ltx-stroke-color:#000000;--ltx-fill-color:#000000;" fill="#000000" stroke="#000000" transform="matrix(1.0 0.0 0.0 1.0 497.83 -3.46)"><foreignObject style="--ltx-fo-width:2.92em;--ltx-fo-height:0.75em;--ltx-fo-depth:0.25em;font-size:10pt;" height="13.84" overflow="visible" transform="matrix(1 0 0 -1 0 10.38)" width="40.46"><span xmlns="http://www.w3.org/1999/xhtml" class="ltx_foreignobject_container"><span class="ltx_foreignobject_content"><math xmlns="http://www.w3.org/1998/Math/MathML" id="S2.F1.pic1.m9" class="ltx_Math" alttext="\tilde{f}_{\bm{\theta}_{T}}(\mathbf{x})" display="inline" intent=":literal"><semantics><mrow><msub><mover accent="true"><mi>f</mi><mo>~</mo></mover><msub><mi>𝜽</mi><mi>T</mi></msub></msub><mo lspace="0em" rspace="0em">​</mo><mrow><mo stretchy="false">(</mo><mi>𝐱</mi><mo stretchy="false">)</mo></mrow></mrow><annotation encoding="application/x-tex">\tilde{f}_{\bm{\theta}_{T}}(\mathbf{x})</annotation></semantics></math></span></span></foreignObject></g><g style="--ltx-stroke-color:#000000;--ltx-fill-color:#000000;" fill="#000000" stroke="#000000" transform="matrix(1.0 0.0 0.0 1.0 487.97 18.85)"><g class="ltx_tikzmatrix" transform="matrix(1 0 0 -1 0 19.68)"><g class="ltx_tikzmatrix_row" transform="matrix(1 0 0 1 0 7.69)"><g class="ltx_tikzmatrix_col ltx_nopad_r" transform="matrix(1 0 0 -1 0 0)"><foreignObject style="--ltx-fo-width:5.12em;--ltx-fo-height:0.65em;--ltx-fo-depth:0.18em;font-size:8.5pt;" height="9.84" overflow="visible" transform="matrix(1 0 0 -1 0 7.69)" width="60.18"><span xmlns="http://www.w3.org/1999/xhtml" class="ltx_foreignobject_container"><span class="ltx_foreignobject_content"><span id="S2.F1.pic1.6" class="ltx_text" style="font-size:80%;">Telescoping</span></span></span></foreignObject></g></g><g class="ltx_tikzmatrix_row" transform="matrix(1 0 0 1 0 17.53)"><g class="ltx_tikzmatrix_col ltx_nopad_r" transform="matrix(1 0 0 -1 4.28 0)"><foreignObject style="--ltx-fo-width:4.39em;--ltx-fo-height:0.65em;--ltx-fo-depth:0.18em;font-size:8.5pt;" height="9.84" overflow="visible" transform="matrix(1 0 0 -1 0 7.69)" width="51.63"><span xmlns="http://www.w3.org/1999/xhtml" class="ltx_foreignobject_container"><span class="ltx_foreignobject_content"><span id="S2.F1.pic1.7" class="ltx_text" style="font-size:80%;">prediction</span></span></span></foreignObject></g></g></g></g><g stroke-width="1.2pt"><path style="fill:none" d="M 469.31 0 L 491.28 0"></path><g stroke-dasharray="none" stroke-dashoffset="0.0pt" stroke-linecap="round" stroke-linejoin="round" transform="matrix(1.0 0.0 0.0 1.0 492.11 0)"><path style="fill:none" d="M -4.21 5.32 C -3.44 2.13 -1.73 0.62 0 0 C -1.73 -0.62 -3.44 -2.13 -4.21 -5.32"></path></g></g><path style="stroke:none" d="M 457.67 0 M 462.39 0 C 462.39 16.31 460.28 29.53 457.67 29.53 C 455.06 29.53 452.94 16.31 452.94 0 C 452.94 -16.31 455.06 -29.53 457.67 -29.53 C 460.28 -29.53 462.39 -16.31 462.39 0 Z M 457.67 0"></path><clipPath id="pgfcp14"><path d="M 457.67 0 M 462.39 0 C 462.39 16.31 460.28 29.53 457.67 29.53 C 455.06 29.53 452.94 16.31 452.94 0 C 452.94 -16.31 455.06 -29.53 457.67 -29.53 C 460.28 -29.53 462.39 -16.31 462.39 0 Z M 457.67 0"></path></clipPath><g clip-path="url(#pgfcp14)"><g transform="matrix(1.0 0.0 0.0 1.0 457.67 0) matrix(1.0 0.0 0.0 1.0 0 0) matrix(0.13608 0.0 0.0 0.8505 0 0)"><defs><radialGradient fx="0.5" fy="0.5" id="pgfsh15"><stop offset="0.0" stop-color="#E6FFFF"></stop><stop offset="0.5" stop-color="#80BFFF"></stop><stop offset="1.0" stop-color="#80BFFF"></stop></radialGradient></defs><g transform="translate(-69.44 -69.44)"><circle style="fill:url(#pgfsh15);stroke:none" cx="69.44" cy="69.44" r="69.44"></circle></g></g></g><path style="fill:none" d="M 457.67 0 M 462.39 0 C 462.39 16.31 460.28 29.53 457.67 29.53 C 455.06 29.53 452.94 16.31 452.94 0 C 452.94 -16.31 455.06 -29.53 457.67 -29.53 C 460.28 -29.53 462.39 -16.31 462.39 0 Z M 457.67 0"></path><g stroke-width="1.2pt"><path style="fill:none" d="M 83.39 -24.85 C 90.12 -43.35 127.2 -42.33 133.37 -25.39"></path><g stroke-dasharray="none" stroke-dashoffset="0.0pt" stroke-linecap="butt" stroke-linejoin="miter" transform="matrix(0.34203 0.9397 -0.9397 0.34203 131.81 -29.68)"><path style="fill:none" d="M 0 5.4 L 5.4 0 L 0 -5.4"></path></g><g style="--ltx-stroke-color:#000000;--ltx-fill-color:#000000;" fill="#000000" stroke="#000000" transform="matrix(1.0 0.0 0.0 1.0 80.52 -54.04)"><foreignObject style="--ltx-fo-width:4.07em;--ltx-fo-height:0.75em;--ltx-fo-depth:0.25em;font-size:10pt;" height="13.84" overflow="visible" transform="matrix(1 0 0 -1 0 10.38)" width="56.28"><span xmlns="http://www.w3.org/1999/xhtml" class="ltx_foreignobject_container"><span class="ltx_foreignobject_content"><math xmlns="http://www.w3.org/1998/Math/MathML" id="S2.F1.pic1.m10" class="ltx_Math" alttext="\nabla_{\bm{\theta}}f_{\bm{\theta}_{0}}(\mathbf{x})" display="inline" intent=":literal"><semantics><mrow><mrow><msub><mo>∇</mo><mi>𝜽</mi></msub><msub><mi>f</mi><msub><mi>𝜽</mi><mn>0</mn></msub></msub></mrow><mo lspace="0em" rspace="0em">​</mo><mrow><mo stretchy="false">(</mo><mi>𝐱</mi><mo stretchy="false">)</mo></mrow></mrow><annotation encoding="application/x-tex">\nabla_{\bm{\theta}}f_{\bm{\theta}_{0}}(\mathbf{x})</annotation></semantics></math></span></span></foreignObject></g></g><g style="--ltx-stroke-color:#808080;--ltx-fill-color:#808080;--ltx-fg-color:#808080;" color="#808080" fill="#808080" stroke="#808080" stroke-dasharray="3.0pt,3.0pt" stroke-dashoffset="0.0pt"><path style="fill:none" d="M 2.9 -7.96 C 14.09 -38.72 42.35 -50.58 74.53 -50.58"></path></g><g style="--ltx-stroke-color:#808080;--ltx-fill-color:#808080;--ltx-fg-color:#808080;" color="#808080" fill="#808080" stroke="#808080" stroke-dasharray="none" stroke-dashoffset="0.0pt" stroke-linecap="round" stroke-linejoin="round" transform="matrix(1.0 0.0 0.0 1.0 74.8 -50.58)"><path style="fill:none" d="M -5.35 3.66 C -4.37 1.46 -2.2 0.43 0 0 C -2.2 -0.43 -4.37 -1.46 -5.35 -3.66"></path></g><g stroke-width="1.2pt"><path style="fill:none" d="M 198.67 -32.72 C 205.4 -51.22 242.48 -50.21 248.64 -33.27"></path><g stroke-dasharray="none" stroke-dashoffset="0.0pt" stroke-linecap="butt" stroke-linejoin="miter" transform="matrix(0.34203 0.9397 -0.9397 0.34203 247.08 -37.56)"><path style="fill:none" d="M 0 5.4 L 5.4 0 L 0 -5.4"></path></g><g style="--ltx-stroke-color:#000000;--ltx-fill-color:#000000;" fill="#000000" stroke="#000000" transform="matrix(1.0 0.0 0.0 1.0 195.8 -61.91)"><foreignObject style="--ltx-fo-width:4.07em;--ltx-fo-height:0.75em;--ltx-fo-depth:0.25em;font-size:10pt;" height="13.84" overflow="visible" transform="matrix(1 0 0 -1 0 10.38)" width="56.28"><span xmlns="http://www.w3.org/1999/xhtml" class="ltx_foreignobject_container"><span class="ltx_foreignobject_content"><math xmlns="http://www.w3.org/1998/Math/MathML" id="S2.F1.pic1.m11" class="ltx_Math" alttext="\nabla_{\bm{\theta}}f_{\bm{\theta}_{1}}(\mathbf{x})" display="inline" intent=":literal"><semantics><mrow><mrow><msub><mo>∇</mo><mi>𝜽</mi></msub><msub><mi>f</mi><msub><mi>𝜽</mi><mn>1</mn></msub></msub></mrow><mo lspace="0em" rspace="0em">​</mo><mrow><mo stretchy="false">(</mo><mi>𝐱</mi><mo stretchy="false">)</mo></mrow></mrow><annotation encoding="application/x-tex">\nabla_{\bm{\theta}}f_{\bm{\theta}_{1}}(\mathbf{x})</annotation></semantics></math></span></span></foreignObject></g></g><g style="--ltx-stroke-color:#808080;--ltx-fill-color:#808080;--ltx-fg-color:#808080;" color="#808080" fill="#808080" stroke="#808080" stroke-dasharray="3.0pt,3.0pt" stroke-dashoffset="0.0pt"><path style="fill:none" d="M -2.9 -7.96 C 10.66 -84.88 113.44 -72.01 189.81 -58.55"></path></g><g style="--ltx-stroke-color:#808080;--ltx-fill-color:#808080;--ltx-fg-color:#808080;" color="#808080" fill="#808080" stroke="#808080" stroke-dasharray="none" stroke-dashoffset="0.0pt" stroke-linecap="round" stroke-linejoin="round" transform="matrix(0.98482 0.17365 -0.17365 0.98482 190.09 -58.5)"><path style="fill:none" d="M -5.35 3.66 C -4.37 1.46 -2.2 0.43 0 0 C -2.2 -0.43 -4.37 -1.46 -5.35 -3.66"></path></g><g stroke-width="1.2pt"><path style="fill:none" d="M 94.33 15.15 C 102.21 28.79 115.23 27.77 122.28 15.57"></path><g stroke-dasharray="none" stroke-dashoffset="0.0pt" stroke-linecap="butt" stroke-linejoin="miter" transform="matrix(0.50002 -0.86601 0.86601 0.50002 119.99 19.52)"><path style="fill:none" d="M 0 5.4 L 5.4 0 L 0 -5.4"></path></g><g style="--ltx-stroke-color:#000000;--ltx-fill-color:#000000;" fill="#000000" stroke="#000000" transform="matrix(1.0 0.0 0.0 1.0 102.79 29.67)"><foreignObject style="--ltx-fo-width:1.75em;--ltx-fo-height:0.69em;--ltx-fo-depth:0.15em;font-size:10pt;" height="11.68" overflow="visible" transform="matrix(1 0 0 -1 0 9.61)" width="24.23"><span xmlns="http://www.w3.org/1999/xhtml" class="ltx_foreignobject_container"><span class="ltx_foreignobject_content"><math xmlns="http://www.w3.org/1998/Math/MathML" id="S2.F1.pic1.m12" class="ltx_Math" alttext="\Delta\bm{\theta}_{1}" display="inline" intent=":literal"><semantics><mrow><mi mathvariant="normal">Δ</mi><mo lspace="0em" rspace="0em">​</mo><msub><mi>𝜽</mi><mn>1</mn></msub></mrow><annotation encoding="application/x-tex">\Delta\bm{\theta}_{1}</annotation></semantics></math></span></span></foreignObject></g></g><g stroke-width="1.2pt"><path style="fill:none" d="M 213.01 18.78 C 220.88 32.42 229.97 31.4 237.01 19.2"></path><g stroke-dasharray="none" stroke-dashoffset="0.0pt" stroke-linecap="butt" stroke-linejoin="miter" transform="matrix(0.50002 -0.86601 0.86601 0.50002 234.73 23.15)"><path style="fill:none" d="M 0 5.4 L 5.4 0 L 0 -5.4"></path></g><g style="--ltx-stroke-color:#000000;--ltx-fill-color:#000000;" fill="#000000" stroke="#000000" transform="matrix(1.0 0.0 0.0 1.0 213.31 33.65)"><foreignObject style="--ltx-fo-width:1.75em;--ltx-fo-height:0.69em;--ltx-fo-depth:0.15em;font-size:10pt;" height="11.68" overflow="visible" transform="matrix(1 0 0 -1 0 9.61)" width="24.23"><span xmlns="http://www.w3.org/1999/xhtml" class="ltx_foreignobject_container"><span class="ltx_foreignobject_content"><math xmlns="http://www.w3.org/1998/Math/MathML" id="S2.F1.pic1.m13" class="ltx_Math" alttext="\Delta\bm{\theta}_{2}" display="inline" intent=":literal"><semantics><mrow><mi mathvariant="normal">Δ</mi><mo lspace="0em" rspace="0em">​</mo><msub><mi>𝜽</mi><mn>2</mn></msub></mrow><annotation encoding="application/x-tex">\Delta\bm{\theta}_{2}</annotation></semantics></math></span></span></foreignObject></g></g><g style="--ltx-stroke-color:#000000;--ltx-fill-color:#000000;" fill="#000000" stroke="#000000" transform="matrix(1.0 0.0 0.0 1.0 -4.2 70.47)"><foreignObject style="--ltx-fo-width:3.28em;--ltx-fo-height:1.2em;--ltx-fo-depth:0em;font-size:10pt;" height="16.55" overflow="visible" transform="matrix(1 0 0 -1 0 16.55)" width="45.4"><span xmlns="http://www.w3.org/1999/xhtml" class="ltx_foreignobject_container"><span class="ltx_foreignobject_content"><math xmlns="http://www.w3.org/1998/Math/MathML" id="S2.F1.pic1.m14" class="ltx_Math" alttext="{{{\mathcal{D}^{\text{train}}}}}" display="inline" intent=":literal"><semantics><msup><mi class="ltx_font_mathcaligraphic" mathsize="1.440em">𝒟</mi><mtext mathsize="1.440em">train</mtext></msup><annotation encoding="application/x-tex">{{{\mathcal{D}^{\text{train}}}}}</annotation></semantics></math></span></span></foreignObject></g><g style="--ltx-fg-color:#808080;" color="#808080" stroke-dasharray="3.0pt,3.0pt" stroke-dashoffset="0.0pt"><g style="--ltx-stroke-color:#808080;--ltx-fill-color:#808080;" fill="#808080" stroke="#808080"><path style="fill:none" d="M 46.09 73.88 C 70.53 73.88 82.73 60.44 101.03 45.08"></path></g><g style="--ltx-stroke-color:#808080;--ltx-fill-color:#808080;" fill="#808080" stroke="#808080" stroke-dasharray="none" stroke-dashoffset="0.0pt" stroke-linecap="round" stroke-linejoin="round" transform="matrix(0.76604 -0.64279 0.64279 0.76604 101.25 44.9)"><path style="fill:none" d="M -5.35 3.66 C -4.37 1.46 -2.2 0.43 0 0 C -2.2 -0.43 -4.37 -1.46 -5.35 -3.66"></path></g><g style="--ltx-stroke-color:#808080;--ltx-fill-color:#808080;--ltx-fg-color:#000000;" color="#000000" fill="#808080" stroke="#808080" transform="matrix(1.0 0.0 0.0 1.0 50.74 58.8)"><foreignObject style="--ltx-fg-color:#808080;--ltx-fo-width:1.26em;--ltx-fo-height:0.68em;--ltx-fo-depth:0.15em;font-size:10pt;" color="#808080" height="11.53" overflow="visible" transform="matrix(1 0 0 -1 0 9.46)" width="17.4"><span xmlns="http://www.w3.org/1999/xhtml" class="ltx_foreignobject_container"><span class="ltx_foreignobject_content"><math xmlns="http://www.w3.org/1998/Math/MathML" id="S2.F1.pic1.m15" class="ltx_Math" alttext="B_{1}" display="inline" intent=":literal"><semantics><msub><mi>B</mi><mn>1</mn></msub><annotation encoding="application/x-tex">B_{1}</annotation></semantics></math></span></span></foreignObject></g></g><g style="--ltx-fg-color:#808080;" color="#808080" stroke-dasharray="3.0pt,3.0pt" stroke-dashoffset="0.0pt"><g style="--ltx-stroke-color:#808080;--ltx-fill-color:#808080;" fill="#808080" stroke="#808080"><path style="fill:none" d="M 46.09 83.6 C 111.2 83.6 157.99 85.67 207.44 44.17"></path></g><g style="--ltx-stroke-color:#808080;--ltx-fill-color:#808080;" fill="#808080" stroke="#808080" stroke-dasharray="none" stroke-dashoffset="0.0pt" stroke-linecap="round" stroke-linejoin="round" transform="matrix(0.76604 -0.64279 0.64279 0.76604 207.66 43.99)"><path style="fill:none" d="M -5.35 3.66 C -4.37 1.46 -2.2 0.43 0 0 C -2.2 -0.43 -4.37 -1.46 -5.35 -3.66"></path></g><g style="--ltx-stroke-color:#808080;--ltx-fill-color:#808080;--ltx-fg-color:#000000;" color="#000000" fill="#808080" stroke="#808080" transform="matrix(1.0 0.0 0.0 1.0 74.43 89.66)"><foreignObject style="--ltx-fg-color:#808080;--ltx-fo-width:1.26em;--ltx-fo-height:0.68em;--ltx-fo-depth:0.15em;font-size:10pt;" color="#808080" height="11.53" overflow="visible" transform="matrix(1 0 0 -1 0 9.46)" width="17.4"><span xmlns="http://www.w3.org/1999/xhtml" class="ltx_foreignobject_container"><span class="ltx_foreignobject_content"><math xmlns="http://www.w3.org/1998/Math/MathML" id="S2.F1.pic1.m16" class="ltx_Math" alttext="B_{2}" display="inline" intent=":literal"><semantics><msub><mi>B</mi><mn>2</mn></msub><annotation encoding="application/x-tex">B_{2}</annotation></semantics></math></span></span></foreignObject></g></g><g style="--ltx-stroke-color:#000000;--ltx-fill-color:#000000;" fill="#000000" stroke="#000000" transform="matrix(1.0 0.0 0.0 1.0 273.52 77.25)"><g class="ltx_tikzmatrix" transform="matrix(1 0 0 -1 0 30.59)"><g class="ltx_tikzmatrix_row" transform="matrix(1 0 0 1 0 12.8)"><g class="ltx_tikzmatrix_col ltx_nopad_r" transform="matrix(1 0 0 -1 0 0)"><foreignObject style="--ltx-fo-width:10.22em;--ltx-fo-height:0.68em;--ltx-fo-depth:0.19em;font-size:10pt;" height="12.15" overflow="visible" transform="matrix(1 0 0 -1 0 9.46)" width="141.41"><span xmlns="http://www.w3.org/1999/xhtml" class="ltx_foreignobject_container"><span class="ltx_foreignobject_content">Linear approximations <span class="ltx_inline-block"><svg id="S2.F1.pic1.pic1" class="ltx_picture" height="12.8" overflow="visible" version="1.1" viewBox="0 0 19.8 12.8" width="19.8"><g style="--ltx-stroke-color:#000000;--ltx-fill-color:#000000;" fill="#000000" stroke="#000000" stroke-width="0.4pt" transform="translate(0,12.8) matrix(1 0 0 -1 0 0) translate(13.89,0)"><clipPath id="pgfcp16"><path d="M -11.31 12.53 C -12.58 12.53 -13.62 9.78 -13.62 6.4 C -13.62 3.02 -12.58 0.28 -11.31 0.28 L 3.33 0.28 C 4.6 0.28 5.63 3.02 5.63 6.4 C 5.63 9.78 4.6 12.53 3.33 12.53 Z M 3.33 12.53 C 2.05 12.53 1.02 9.78 1.02 6.4 C 1.02 3.02 2.05 0.28 3.33 0.28"></path></clipPath><g clip-path="url(#pgfcp16)"><g transform="matrix(1.0 0.0 0.0 1.0 -3.99 6.4) matrix(1.0 0.0 0.0 1.0 0 0) matrix(0.27719 0.0 0.0 0.17639 0 0)"><defs><linearGradient gradientTransform="rotate(90)" id="pgfsh17"><stop offset="0.0" stop-color="#DB9470"></stop><stop offset="0.24998" stop-color="#DB9470"></stop><stop offset="0.49996" stop-color="#FCF8E2"></stop><stop offset="0.75002" stop-color="#DB9470"></stop><stop offset="1.0" stop-color="#DB9470"></stop></linearGradient></defs><g transform="translate(-69.44499 -69.44499)"><rect style="fill:url(#pgfsh17);stroke:none" height="138.89" width="138.89"></rect></g></g></g><clipPath id="pgfcp18"><path d="M -11.31 12.53 C -12.58 12.53 -13.62 9.78 -13.62 6.4 C -13.62 3.02 -12.58 0.28 -11.31 0.28 L 3.33 0.28 C 4.6 0.28 5.63 3.02 5.63 6.4 C 5.63 9.78 4.6 12.53 3.33 12.53 Z M 3.33 12.53 C 2.05 12.53 1.02 9.78 1.02 6.4 C 1.02 3.02 2.05 0.28 3.33 0.28"></path></clipPath><g clip-path="url(#pgfcp18)"><g style="--ltx-fill-color:#E2A98D;" fill="#E2A98D"><path style="stroke:none" d="M 3.33 12.53 C 4.75 12.53 5.91 9.66 5.91 6.12 C 5.91 2.59 4.75 -0.28 3.33 -0.28 C 1.9 -0.28 0.74 2.59 0.74 6.12 C 0.74 9.66 1.9 12.53 3.33 12.53 Z"></path></g></g><path style="fill:none" d="M -11.31 12.53 C -12.58 12.53 -13.62 9.78 -13.62 6.4 C -13.62 3.02 -12.58 0.28 -11.31 0.28 L 3.33 0.28 C 4.6 0.28 5.63 3.02 5.63 6.4 C 5.63 9.78 4.6 12.53 3.33 12.53 Z M 3.33 12.53 C 2.05 12.53 1.02 9.78 1.02 6.4 C 1.02 3.02 2.05 0.28 3.33 0.28"></path></g></svg></span></span></span></foreignObject></g></g><g class="ltx_tikzmatrix_row" transform="matrix(1 0 0 1 0 27.13)"><g class="ltx_tikzmatrix_col ltx_nopad_r" transform="matrix(1 0 0 -1 2.22 0)"><foreignObject style="--ltx-fo-width:11.3em;--ltx-fo-height:0.84em;--ltx-fo-depth:0.25em;font-size:10pt;" height="15.1" overflow="visible" transform="matrix(1 0 0 -1 0 11.64)" width="156.38"><span xmlns="http://www.w3.org/1999/xhtml" class="ltx_foreignobject_container"><span class="ltx_foreignobject_content"><math xmlns="http://www.w3.org/1998/Math/MathML" id="S2.F1.pic1.m17" class="ltx_Math" alttext="\Delta\tilde{f}_{t}(\mathbf{x})\coloneq\nabla_{\bm{\theta}}f_{\bm{\theta}_{t-1}}(\mathbf{x})^{T}\Delta\bm{\theta}_{t}" display="inline" intent=":literal"><semantics><mrow><mrow><mi mathvariant="normal">Δ</mi><mo lspace="0em" rspace="0em">​</mo><msub><mover accent="true"><mi>f</mi><mo>~</mo></mover><mi>t</mi></msub><mo lspace="0em" rspace="0em">​</mo><mrow><mo stretchy="false">(</mo><mi>𝐱</mi><mo stretchy="false">)</mo></mrow></mrow><mo>≔</mo><mrow><mrow><msub><mo rspace="0.167em">∇</mo><mi>𝜽</mi></msub><msub><mi>f</mi><msub><mi>𝜽</mi><mrow><mi>t</mi><mo>−</mo><mn>1</mn></mrow></msub></msub></mrow><mo lspace="0em" rspace="0em">​</mo><msup><mrow><mo stretchy="false">(</mo><mi>𝐱</mi><mo stretchy="false">)</mo></mrow><mi>T</mi></msup><mo lspace="0em" rspace="0em">​</mo><mi mathvariant="normal">Δ</mi><mo lspace="0em" rspace="0em">​</mo><msub><mi>𝜽</mi><mi>t</mi></msub></mrow></mrow><annotation encoding="application/x-tex">\Delta\tilde{f}_{t}(\mathbf{x})\coloneq\nabla_{\bm{\theta}}f_{\bm{\theta}_{t-1}}(\mathbf{x})^{T}\Delta\bm{\theta}_{t}</annotation></semantics></math></span></span></foreignObject></g></g></g></g><path style="fill:none" d="M 329.88 68.9 C 315.08 63.51 300.28 54.79 296.35 40.12"></path><g stroke-dasharray="none" stroke-dashoffset="0.0pt" stroke-linecap="round" stroke-linejoin="round" transform="matrix(-0.25883 -0.96593 0.96593 -0.25883 296.28 39.85)"><path style="fill:none" d="M -2.88 3.32 C -2.35 1.33 -1.18 0.39 0 0 C -1.18 -0.39 -2.35 -1.33 -2.88 -3.32"></path></g><path style="fill:none" d="M 383.86 68.9 C 398.66 63.51 411.1 56.76 415.04 42.08"></path><g stroke-dasharray="none" stroke-dashoffset="0.0pt" stroke-linecap="round" stroke-linejoin="round" transform="matrix(0.25883 -0.96593 0.96593 0.25883 415.11 41.82)"><path style="fill:none" d="M -2.88 3.32 C -2.35 1.33 -1.18 0.39 0 0 C -1.18 -0.39 -2.35 -1.33 -2.88 -3.32"></path></g></g></svg>