<svg xmlns="http://www.w3.org/2000/svg" xmlns:xlink="http://www.w3.org/1999/xlink" id="S2.F1.pic2" class="ltx_picture ltx_centering ltx_figure_panel" height="159.86" overflow="visible" version="1.1" viewBox="0 0 218.44 159.86" width="218.44"><g style="--ltx-stroke-color:#000000;--ltx-fill-color:#000000;" fill="#000000" stroke="#000000" stroke-width="0.4pt" transform="translate(0,159.86) matrix(1 0 0 -1 0 0) translate(51.29,0) translate(0,39.87) matrix(1.0 0.0 0.0 1.0 -51.29 -39.87)"><g class="ltx_nestedsvg" transform="matrix(1 0 0 1 0 0) translate(-62.61,0) translate(0,49.45)"><g style="--ltx-stroke-color:#D9D9D9;--ltx-fill-color:#D9D9D9;--ltx-fg-color:#D9D9D9;" color="#D9D9D9" fill="#D9D9D9" stroke="#D9D9D9" stroke-dasharray="3.0pt,3.0pt" stroke-dashoffset="0.0pt" stroke-width="0.4pt"><path style="fill:none" d="M 127.81 -9.58 L 127.81 105.32 M 191.71 -9.58 L 191.71 105.32 M 255.61 -9.58 L 255.61 105.32"></path></g><g style="--ltx-stroke-color:#D9D9D9;--ltx-fill-color:#D9D9D9;--ltx-fg-color:#D9D9D9;" color="#D9D9D9" fill="#D9D9D9" stroke="#D9D9D9" stroke-dasharray="3.0pt,3.0pt" stroke-dashoffset="0.0pt" stroke-width="0.4pt"><path style="fill:none" d="M 113.9 12.8 L 280.77 12.8 M 113.9 57.07 L 280.77 57.07 M 113.9 101.34 L 280.77 101.34"></path></g><g style="--ltx-stroke-color:#808080;--ltx-fill-color:#808080;--ltx-fg-color:#808080;" color="#808080" fill="#808080" stroke="#808080" stroke-width="0.2pt"><path style="fill:none" d="M 117.91 -9.58 L 117.91 -5.64 M 121.61 -9.58 L 121.61 -5.64 M 124.88 -9.58 L 124.88 -5.64 M 127.81 -9.58 L 127.81 -5.64 M 147.04 -9.58 L 147.04 -5.64 M 158.3 -9.58 L 158.3 -5.64 M 166.28 -9.58 L 166.28 -5.64 M 172.47 -9.58 L 172.47 -5.64 M 177.53 -9.58 L 177.53 -5.64 M 181.81 -9.58 L 181.81 -5.64 M 185.52 -9.58 L 185.52 -5.64 M 188.79 -9.58 L 188.79 -5.64 M 191.71 -9.58 L 191.71 -5.64 M 210.95 -9.58 L 210.95 -5.64 M 222.2 -9.58 L 222.2 -5.64 M 230.18 -9.58 L 230.18 -5.64 M 236.38 -9.58 L 236.38 -5.64 M 241.44 -9.58 L 241.44 -5.64 M 245.72 -9.58 L 245.72 -5.64 M 249.42 -9.58 L 249.42 -5.64 M 252.69 -9.58 L 252.69 -5.64 M 117.91 105.32 L 117.91 101.39 M 121.61 105.32 L 121.61 101.39 M 124.88 105.32 L 124.88 101.39 M 127.81 105.32 L 127.81 101.39 M 147.04 105.32 L 147.04 101.39 M 158.3 105.32 L 158.3 101.39 M 166.28 105.32 L 166.28 101.39 M 172.47 105.32 L 172.47 101.39 M 177.53 105.32 L 177.53 101.39 M 181.81 105.32 L 181.81 101.39 M 185.52 105.32 L 185.52 101.39 M 188.79 105.32 L 188.79 101.39 M 191.71 105.32 L 191.71 101.39 M 210.95 105.32 L 210.95 101.39 M 222.2 105.32 L 222.2 101.39 M 230.18 105.32 L 230.18 101.39 M 236.38 105.32 L 236.38 101.39 M 241.44 105.32 L 241.44 101.39 M 245.72 105.32 L 245.72 101.39 M 249.42 105.32 L 249.42 101.39 M 252.69 105.32 L 252.69 101.39"></path></g><g style="--ltx-stroke-color:#808080;--ltx-fill-color:#808080;--ltx-fg-color:#808080;" color="#808080" fill="#808080" stroke="#808080" stroke-width="0.2pt"><path style="fill:none" d="M 127.81 -9.58 L 127.81 -3.67 M 191.71 -9.58 L 191.71 -3.67 M 255.61 -9.58 L 255.61 -3.67 M 127.81 105.32 L 127.81 99.42 M 191.71 105.32 L 191.71 99.42 M 255.61 105.32 L 255.61 99.42"></path></g><g style="--ltx-stroke-color:#808080;--ltx-fill-color:#808080;--ltx-fg-color:#808080;" color="#808080" fill="#808080" stroke="#808080" stroke-width="0.2pt"><path style="fill:none" d="M 113.9 12.8 L 119.81 12.8 M 113.9 57.07 L 119.81 57.07 M 113.9 101.34 L 119.81 101.34 M 280.77 12.8 L 274.87 12.8 M 280.77 57.07 L 274.87 57.07 M 280.77 101.34 L 274.87 101.34"></path></g><g style="--ltx-stroke-color:#000000;--ltx-fill-color:#000000;" fill="#000000" stroke="#000000" stroke-width="0.4pt"><path style="fill:none" d="M 113.9 -9.58 L 113.9 105.32 L 280.77 105.32 L 280.77 -9.58 L 113.9 -9.58 Z"></path><g style="--ltx-stroke-color:#000000;--ltx-fill-color:#000000;" fill="#000000" stroke="#000000" transform="matrix(1.0 0.0 0.0 1.0 117.79 -25.73)"><foreignObject style="--ltx-fo-width:1.45em;--ltx-fo-height:0.81em;--ltx-fo-depth:0em;font-size:10pt;" height="11.26" overflow="visible" transform="matrix(1 0 0 -1 0 11.26)" width="20.04"><span class="ltx_foreignobject_container"><span class="ltx_foreignobject_content"><math id="S2.F1.pic2.m1" class="ltx_Math" alttext="10^{2}" display="inline" intent=":literal"><semantics><msup><mn>10</mn><mn>2</mn></msup><annotation encoding="application/x-tex">10^{2}</annotation></semantics></math></span></span></foreignObject></g><g style="--ltx-stroke-color:#000000;--ltx-fill-color:#000000;" fill="#000000" stroke="#000000" transform="matrix(1.0 0.0 0.0 1.0 181.69 -25.73)"><foreignObject style="--ltx-fo-width:1.45em;--ltx-fo-height:0.81em;--ltx-fo-depth:0em;font-size:10pt;" height="11.26" overflow="visible" transform="matrix(1 0 0 -1 0 11.26)" width="20.04"><span class="ltx_foreignobject_container"><span class="ltx_foreignobject_content"><math id="S2.F1.pic2.m2" class="ltx_Math" alttext="10^{3}" display="inline" intent=":literal"><semantics><msup><mn>10</mn><mn>3</mn></msup><annotation encoding="application/x-tex">10^{3}</annotation></semantics></math></span></span></foreignObject></g><g style="--ltx-stroke-color:#000000;--ltx-fill-color:#000000;" fill="#000000" stroke="#000000" transform="matrix(1.0 0.0 0.0 1.0 245.59 -25.73)"><foreignObject style="--ltx-fo-width:1.45em;--ltx-fo-height:0.81em;--ltx-fo-depth:0em;font-size:10pt;" height="11.26" overflow="visible" transform="matrix(1 0 0 -1 0 11.26)" width="20.04"><span class="ltx_foreignobject_container"><span class="ltx_foreignobject_content"><math id="S2.F1.pic2.m3" class="ltx_Math" alttext="10^{4}" display="inline" intent=":literal"><semantics><msup><mn>10</mn><mn>4</mn></msup><annotation encoding="application/x-tex">10^{4}</annotation></semantics></math></span></span></foreignObject></g><g style="--ltx-stroke-color:#000000;--ltx-fill-color:#000000;" fill="#000000" stroke="#000000" transform="matrix(1.0 0.0 0.0 1.0 89.02 8.34)"><foreignObject style="--ltx-fo-width:1.44em;--ltx-fo-height:0.64em;--ltx-fo-depth:0em;font-size:10pt;" height="8.92" overflow="visible" transform="matrix(1 0 0 -1 0 8.92)" width="19.99"><span class="ltx_foreignobject_container"><span class="ltx_foreignobject_content"><math id="S2.F1.pic2.m4" class="ltx_Math" alttext="0.1" display="inline" intent=":literal"><semantics><mn>0.1</mn><annotation encoding="application/x-tex">0.1</annotation></semantics></math></span></span></foreignObject></g><g style="--ltx-stroke-color:#000000;--ltx-fill-color:#000000;" fill="#000000" stroke="#000000" transform="matrix(1.0 0.0 0.0 1.0 89.02 52.61)"><foreignObject style="--ltx-fo-width:1.44em;--ltx-fo-height:0.64em;--ltx-fo-depth:0em;font-size:10pt;" height="8.92" overflow="visible" transform="matrix(1 0 0 -1 0 8.92)" width="19.99"><span class="ltx_foreignobject_container"><span class="ltx_foreignobject_content"><math id="S2.F1.pic2.m5" class="ltx_Math" alttext="0.2" display="inline" intent=":literal"><semantics><mn>0.2</mn><annotation encoding="application/x-tex">0.2</annotation></semantics></math></span></span></foreignObject></g><g style="--ltx-stroke-color:#000000;--ltx-fill-color:#000000;" fill="#000000" stroke="#000000" transform="matrix(1.0 0.0 0.0 1.0 89.02 96.88)"><foreignObject style="--ltx-fo-width:1.44em;--ltx-fo-height:0.64em;--ltx-fo-depth:0em;font-size:10pt;" height="8.92" overflow="visible" transform="matrix(1 0 0 -1 0 8.92)" width="19.99"><span class="ltx_foreignobject_container"><span class="ltx_foreignobject_content"><math id="S2.F1.pic2.m6" class="ltx_Math" alttext="0.3" display="inline" intent=":literal"><semantics><mn>0.3</mn><annotation encoding="application/x-tex">0.3</annotation></semantics></math></span></span></foreignObject></g><clipPath id="pgfcp2"><path d="M 113.9 -9.58 L 280.77 -9.58 L 280.77 105.32 L 113.9 105.32 Z"></path></clipPath><g clip-path="url(#pgfcp2)"><g style="--ltx-stroke-color:#0000FF;--ltx-fill-color:#0000FF;--ltx-fg-color:#0000FF;" color="#0000FF" fill="#0000FF" stroke="#0000FF" stroke-width="0.8pt"><path style="fill:none" d="M 127.81 70.04 L 147.04 63.22 L 172.47 26.79 L 191.71 23.56 L 210.95 11.08 L 236.38 4.96 L 255.61 0 L 266.87 0.55"></path></g><g></g><g style="--ltx-stroke-color:#FF0000;--ltx-fill-color:#FF0000;--ltx-fg-color:#FF0000;" color="#FF0000" fill="#FF0000" stroke="#FF0000" stroke-width="0.8pt"><path style="fill:none" d="M 127.81 95.55 L 147.04 95.75 L 172.47 74.41 L 191.71 50.71 L 210.95 17.26 L 236.38 6.1 L 255.61 6.32 L 266.87 4.32"></path></g><g></g></g><g style="--ltx-stroke-color:#0000FF;--ltx-fill-color:#0000FF;--ltx-fg-color:#0000FF;" color="#0000FF" fill="#0000FF" stroke="#0000FF" stroke-width="0.8pt"><path d="M 130.57 70.04 C 130.57 71.57 129.33 72.81 127.81 72.81 C 126.28 72.81 125.04 71.57 125.04 70.04 C 125.04 68.51 126.28 67.27 127.81 67.27 C 129.33 67.27 130.57 68.51 130.57 70.04 Z M 127.81 70.04"></path><path d="M 149.81 63.22 C 149.81 64.75 148.57 65.99 147.04 65.99 C 145.51 65.99 144.28 64.75 144.28 63.22 C 144.28 61.69 145.51 60.45 147.04 60.45 C 148.57 60.45 149.81 61.69 149.81 63.22 Z M 147.04 63.22"></path><path d="M 175.24 26.79 C 175.24 28.32 174 29.55 172.47 29.55 C 170.94 29.55 169.71 28.32 169.71 26.79 C 169.71 25.26 170.94 24.02 172.47 24.02 C 174 24.02 175.24 25.26 175.24 26.79 Z M 172.47 26.79"></path><path d="M 194.48 23.56 C 194.48 25.08 193.24 26.32 191.71 26.32 C 190.18 26.32 188.94 25.08 188.94 23.56 C 188.94 22.03 190.18 20.79 191.71 20.79 C 193.24 20.79 194.48 22.03 194.48 23.56 Z M 191.71 23.56"></path><path d="M 213.71 11.08 C 213.71 12.61 212.48 13.85 210.95 13.85 C 209.42 13.85 208.18 12.61 208.18 11.08 C 208.18 9.55 209.42 8.31 210.95 8.31 C 212.48 8.31 213.71 9.55 213.71 11.08 Z M 210.95 11.08"></path><path d="M 239.14 4.96 C 239.14 6.49 237.9 7.73 236.38 7.73 C 234.85 7.73 233.61 6.49 233.61 4.96 C 233.61 3.43 234.85 2.2 236.38 2.2 C 237.9 2.2 239.14 3.43 239.14 4.96 Z M 236.38 4.96"></path><path d="M 258.38 0 C 258.38 1.53 257.14 2.77 255.61 2.77 C 254.08 2.77 252.85 1.53 252.85 0 C 252.85 -1.53 254.08 -2.77 255.61 -2.77 C 257.14 -2.77 258.38 -1.53 258.38 0 Z M 255.61 0"></path><path d="M 269.63 0.55 C 269.63 2.08 268.39 3.32 266.87 3.32 C 265.34 3.32 264.1 2.08 264.1 0.55 C 264.1 -0.98 265.34 -2.21 266.87 -2.21 C 268.39 -2.21 269.63 -0.98 269.63 0.55 Z M 266.87 0.55"></path></g><g style="--ltx-stroke-color:#FF0000;--ltx-fill-color:#FF0000;--ltx-fg-color:#FF0000;" color="#FF0000" fill="#FF0000" stroke="#FF0000" stroke-width="0.8pt"><path d="M 125.04 92.79 h 5.53 v 5.53 h -5.53 Z"></path><path d="M 144.28 92.98 h 5.53 v 5.53 h -5.53 Z"></path><path d="M 169.71 71.64 h 5.53 v 5.53 h -5.53 Z"></path><path d="M 188.94 47.95 h 5.53 v 5.53 h -5.53 Z"></path><path d="M 208.18 14.49 h 5.53 v 5.53 h -5.53 Z"></path><path d="M 233.61 3.33 h 5.53 v 5.53 h -5.53 Z"></path><path d="M 252.85 3.55 h 5.53 v 5.53 h -5.53 Z"></path><path d="M 264.1 1.55 h 5.53 v 5.53 h -5.53 Z"></path></g><g style="--ltx-stroke-color:#000000;--ltx-fill-color:#000000;" fill="#000000" stroke="#000000" transform="matrix(1.0 0.0 0.0 1.0 163.09 -44.84)"><foreignObject style="--ltx-fo-width:4.95em;--ltx-fo-height:0.69em;--ltx-fo-depth:0em;font-size:10pt;" height="9.61" overflow="visible" transform="matrix(1 0 0 -1 0 9.61)" width="68.49"><span class="ltx_foreignobject_container"><span class="ltx_foreignobject_content"><span id="S2.F1.pic2.1" class="ltx_text">Subset Size</span></span></span></foreignObject></g><g style="--ltx-stroke-color:#000000;--ltx-fill-color:#000000;" fill="#000000" stroke="#000000" transform="matrix(0.0 1.0 -1.0 0.0 76.83 -8.45)"><foreignObject style="--ltx-fo-width:8.17em;--ltx-fo-height:0.69em;--ltx-fo-depth:0.19em;font-size:10pt;" height="12.3" overflow="visible" transform="matrix(1 0 0 -1 0 9.61)" width="113.04"><span class="ltx_foreignobject_container"><span class="ltx_foreignobject_content"><span id="S2.F1.pic2.2" class="ltx_text">Normal Alignment</span></span></span></foreignObject></g><g style="--ltx-stroke-color:#000000;--ltx-fill-color:#FFFFFF;" fill="#FFFFFF" stroke="#000000"><path d="M 147.07 67.39 h 128.42 v 34.21 h -128.42 Z"></path></g><g style="--ltx-stroke-color:#000000;--ltx-fill-color:#FFFFFF;" fill="#FFFFFF" stroke="#000000" transform="matrix(1.0 0.0 0.0 1.0 151.22 77.33)"><g class="ltx_tikzmatrix" transform="matrix(1 0 0 -1 0 28.68)"><g class="ltx_tikzmatrix_row" transform="matrix(1 0 0 1 0 7.17)"><g style="--ltx-stroke-color:#0000FF;--ltx-fill-color:#0000FF;--ltx-fg-color:#0000FF;" class="ltx_tikzmatrix_col ltx_nopad_l ltx_nopad_r" color="#0000FF" fill="#0000FF" stroke="#0000FF" stroke-width="0.8pt" transform="matrix(1 0 0 -1 0 0) translate(0.55,0)"><path style="fill:none" d="M 0 0 L 11.81 0 L 23.62 0"></path><g style="--ltx-fill-color:#0000FF;" fill="#0000FF"><path d="M 14.58 0 C 14.58 1.53 13.34 2.77 11.81 2.77 C 10.28 2.77 9.04 1.53 9.04 0 C 9.04 -1.53 10.28 -2.77 11.81 -2.77 C 13.34 -2.77 14.58 -1.53 14.58 0 Z M 11.81 0"></path></g></g><g style="--ltx-stroke-color:#000000;--ltx-fill-color:#000000;" class="ltx_tikzmatrix_col ltx_nopad_l ltx_nopad_r" fill="#000000" stroke="#000000" transform="matrix(1 0 0 -1 24.73 0) translate(-0.28,0) matrix(1.0 0.0 0.0 1.0 3.04 -2.33)"><foreignObject style="--ltx-fo-width:7.62em;--ltx-fo-height:0.61em;--ltx-fo-depth:0em;font-size:7.97pt;" height="6.73" overflow="visible" transform="matrix(1 0 0 -1 0 6.73)" width="84.06"><span class="ltx_foreignobject_container"><span class="ltx_foreignobject_content"><span id="S2.F1.pic2.3" class="ltx_text" style="font-size:70%;">WideResNet-28-2</span></span></span></foreignObject></g></g><g class="ltx_tikzmatrix_row" transform="matrix(1 0 0 1 0 21.51)"><g style="--ltx-stroke-color:#FF0000;--ltx-fill-color:#FF0000;--ltx-fg-color:#FF0000;" class="ltx_tikzmatrix_col ltx_nopad_l ltx_nopad_r" color="#FF0000" fill="#FF0000" stroke="#FF0000" stroke-width="0.8pt" transform="matrix(1 0 0 -1 0 0) translate(0.55,0)"><path style="fill:none" d="M 0 0 L 11.81 0 L 23.62 0"></path><g style="--ltx-fill-color:#FF0000;" fill="#FF0000"><path d="M 9.04 -2.77 h 5.53 v 5.53 h -5.53 Z"></path></g></g><g style="--ltx-stroke-color:#000000;--ltx-fill-color:#000000;" class="ltx_tikzmatrix_col ltx_nopad_l ltx_nopad_r" fill="#000000" stroke="#000000" transform="matrix(1 0 0 -1 24.73 0) translate(-0.28,0) matrix(1.0 0.0 0.0 1.0 3.04 -2.33)"><foreignObject style="--ltx-fo-width:8.12em;--ltx-fo-height:0.61em;--ltx-fo-depth:0em;font-size:7.97pt;" height="6.73" overflow="visible" transform="matrix(1 0 0 -1 0 6.73)" width="89.58"><span class="ltx_foreignobject_container"><span class="ltx_foreignobject_content"><span id="S2.F1.pic2.4" class="ltx_text" style="font-size:70%;">WideResNet-28-10</span></span></span></foreignObject></g></g></g></g></g></g></g></svg>